%TF.GenerationSoftware,KiCad,Pcbnew,9.0.2-9.0.2-0~ubuntu22.04.1*%
%TF.CreationDate,2025-06-23T10:34:33-07:00*%
%TF.ProjectId,ds1486,64733134-3836-42e6-9b69-6361645f7063,rev?*%
%TF.SameCoordinates,Original*%
%TF.FileFunction,Soldermask,Bot*%
%TF.FilePolarity,Negative*%
%FSLAX46Y46*%
G04 Gerber Fmt 4.6, Leading zero omitted, Abs format (unit mm)*
G04 Created by KiCad (PCBNEW 9.0.2-9.0.2-0~ubuntu22.04.1) date 2025-06-23 10:34:33*
%MOMM*%
%LPD*%
G01*
G04 APERTURE LIST*
G04 Aperture macros list*
%AMRoundRect*
0 Rectangle with rounded corners*
0 $1 Rounding radius*
0 $2 $3 $4 $5 $6 $7 $8 $9 X,Y pos of 4 corners*
0 Add a 4 corners polygon primitive as box body*
4,1,4,$2,$3,$4,$5,$6,$7,$8,$9,$2,$3,0*
0 Add four circle primitives for the rounded corners*
1,1,$1+$1,$2,$3*
1,1,$1+$1,$4,$5*
1,1,$1+$1,$6,$7*
1,1,$1+$1,$8,$9*
0 Add four rect primitives between the rounded corners*
20,1,$1+$1,$2,$3,$4,$5,0*
20,1,$1+$1,$4,$5,$6,$7,0*
20,1,$1+$1,$6,$7,$8,$9,0*
20,1,$1+$1,$8,$9,$2,$3,0*%
G04 Aperture macros list end*
%ADD10RoundRect,0.225000X-0.250000X0.225000X-0.250000X-0.225000X0.250000X-0.225000X0.250000X0.225000X0*%
%ADD11R,1.600000X1.600000*%
%ADD12C,1.600000*%
%ADD13R,1.700000X1.700000*%
%ADD14C,1.700000*%
%ADD15RoundRect,0.300000X-0.700000X-0.700000X0.700000X-0.700000X0.700000X0.700000X-0.700000X0.700000X0*%
%ADD16C,2.000000*%
%ADD17RoundRect,0.200000X-0.200000X-0.275000X0.200000X-0.275000X0.200000X0.275000X-0.200000X0.275000X0*%
%ADD18RoundRect,0.225000X-0.225000X-0.250000X0.225000X-0.250000X0.225000X0.250000X-0.225000X0.250000X0*%
%ADD19RoundRect,0.150000X0.675000X0.150000X-0.675000X0.150000X-0.675000X-0.150000X0.675000X-0.150000X0*%
%ADD20RoundRect,0.250000X0.250000X0.475000X-0.250000X0.475000X-0.250000X-0.475000X0.250000X-0.475000X0*%
%ADD21RoundRect,0.250000X-0.250000X-0.475000X0.250000X-0.475000X0.250000X0.475000X-0.250000X0.475000X0*%
%ADD22RoundRect,0.225000X0.250000X-0.225000X0.250000X0.225000X-0.250000X0.225000X-0.250000X-0.225000X0*%
%ADD23RoundRect,0.162500X0.650000X0.162500X-0.650000X0.162500X-0.650000X-0.162500X0.650000X-0.162500X0*%
%ADD24RoundRect,0.225000X0.225000X0.250000X-0.225000X0.250000X-0.225000X-0.250000X0.225000X-0.250000X0*%
%ADD25R,0.400000X1.200000*%
G04 APERTURE END LIST*
D10*
%TO.C,C20*%
X114900000Y-73400000D03*
X114900000Y-74950000D03*
%TD*%
D11*
%TO.C,J4*%
X111760000Y-63500000D03*
D12*
X111760000Y-66040000D03*
X111760000Y-68580000D03*
X111760000Y-71120000D03*
X111760000Y-73660000D03*
X111760000Y-76200000D03*
X111760000Y-78740000D03*
X111760000Y-81280000D03*
X111760000Y-83820000D03*
X111760000Y-86360000D03*
X111760000Y-88900000D03*
X111760000Y-91440000D03*
X111760000Y-93980000D03*
X111760000Y-96520000D03*
X111760000Y-99060000D03*
X111760000Y-101600000D03*
%TD*%
D13*
%TO.C,J3*%
X132080000Y-63500000D03*
D14*
X132080000Y-66040000D03*
X132080000Y-68580000D03*
X132080000Y-71120000D03*
X132080000Y-73660000D03*
X132080000Y-76200000D03*
X132080000Y-78740000D03*
X132080000Y-81280000D03*
X132080000Y-83820000D03*
X132080000Y-86360000D03*
X132080000Y-88900000D03*
X132080000Y-91440000D03*
X132080000Y-93980000D03*
X132080000Y-96520000D03*
X132080000Y-99060000D03*
X132080000Y-101600000D03*
%TD*%
D15*
%TO.C,BT1*%
X119500000Y-102550000D03*
D16*
X119500000Y-92550000D03*
%TD*%
D13*
%TO.C,J2*%
X106680000Y-63500000D03*
D14*
X106680000Y-66040000D03*
X106680000Y-68580000D03*
X106680000Y-71120000D03*
X106680000Y-73660000D03*
X106680000Y-76200000D03*
X106680000Y-78740000D03*
X106680000Y-81280000D03*
X106680000Y-83820000D03*
X106680000Y-86360000D03*
X106680000Y-88900000D03*
X106680000Y-91440000D03*
X106680000Y-93980000D03*
X106680000Y-96520000D03*
X106680000Y-99060000D03*
X106680000Y-101600000D03*
%TD*%
D11*
%TO.C,J5*%
X127000000Y-63500000D03*
D12*
X127000000Y-66040000D03*
X127000000Y-68580000D03*
X127000000Y-71120000D03*
X127000000Y-73660000D03*
X127000000Y-76200000D03*
X127000000Y-78740000D03*
X127000000Y-81280000D03*
X127000000Y-83820000D03*
X127000000Y-86360000D03*
X127000000Y-88900000D03*
X127000000Y-91440000D03*
X127000000Y-93980000D03*
X127000000Y-96520000D03*
X127000000Y-99060000D03*
X127000000Y-101600000D03*
%TD*%
D13*
%TO.C,J1*%
X116870000Y-62200000D03*
D14*
X119410000Y-62200000D03*
X121950000Y-62200000D03*
%TD*%
D17*
%TO.C,R38*%
X118400000Y-77750000D03*
X120050000Y-77750000D03*
%TD*%
D18*
%TO.C,C11*%
X118250000Y-87200000D03*
X119800000Y-87200000D03*
%TD*%
D19*
%TO.C,U6*%
X122200000Y-72340000D03*
X122200000Y-73610000D03*
X122200000Y-74880000D03*
X122200000Y-76150000D03*
X116950000Y-76150000D03*
X116950000Y-74880000D03*
X116950000Y-73610000D03*
X116950000Y-72340000D03*
%TD*%
D20*
%TO.C,C2*%
X120950000Y-64450000D03*
X119050000Y-64450000D03*
%TD*%
D10*
%TO.C,C6*%
X115650000Y-88800000D03*
X115650000Y-90350000D03*
%TD*%
D21*
%TO.C,C1*%
X115550000Y-64450000D03*
X117450000Y-64450000D03*
%TD*%
D22*
%TO.C,C16*%
X114450000Y-100500000D03*
X114450000Y-98950000D03*
%TD*%
D23*
%TO.C,U8*%
X123100000Y-66490000D03*
X123100000Y-67760000D03*
X123100000Y-69030000D03*
X123100000Y-70300000D03*
X115925000Y-70300000D03*
X115925000Y-69030000D03*
X115925000Y-67760000D03*
X115925000Y-66490000D03*
%TD*%
D18*
%TO.C,C17*%
X122650000Y-64500000D03*
X124200000Y-64500000D03*
%TD*%
D10*
%TO.C,C5*%
X118850000Y-88800000D03*
X118850000Y-90350000D03*
%TD*%
%TO.C,C13*%
X117550000Y-81850000D03*
X117550000Y-83400000D03*
%TD*%
%TO.C,C8*%
X119100000Y-81850000D03*
X119100000Y-83400000D03*
%TD*%
%TO.C,C12*%
X117294452Y-89300000D03*
X117294452Y-90850000D03*
%TD*%
D17*
%TO.C,R37*%
X120900000Y-79600000D03*
X122550000Y-79600000D03*
%TD*%
D10*
%TO.C,C14*%
X120400000Y-88800000D03*
X120400000Y-90350000D03*
%TD*%
D18*
%TO.C,C7*%
X117500000Y-84900000D03*
X119050000Y-84900000D03*
%TD*%
D10*
%TO.C,C15*%
X114450000Y-94950000D03*
X114450000Y-96500000D03*
%TD*%
%TO.C,C9*%
X122900000Y-88800000D03*
X122900000Y-90350000D03*
%TD*%
D24*
%TO.C,C10*%
X122275000Y-84250000D03*
X120725000Y-84250000D03*
%TD*%
D25*
%TO.C,U4*%
X116457500Y-95100000D03*
X117092500Y-95100000D03*
X117727500Y-95100000D03*
X118362500Y-95100000D03*
X118997500Y-95100000D03*
X119632500Y-95100000D03*
X120267500Y-95100000D03*
X120902500Y-95100000D03*
X121537500Y-95100000D03*
X122172500Y-95100000D03*
X122807500Y-95100000D03*
X123442500Y-95100000D03*
X123442500Y-100300000D03*
X122807500Y-100300000D03*
X122172500Y-100300000D03*
X121537500Y-100300000D03*
X120902500Y-100300000D03*
X120267500Y-100300000D03*
X119632500Y-100300000D03*
X118997500Y-100300000D03*
X118362500Y-100300000D03*
X117727500Y-100300000D03*
X117092500Y-100300000D03*
X116457500Y-100300000D03*
%TD*%
M02*
