%TF.GenerationSoftware,KiCad,Pcbnew,9.0.2-9.0.2-0~ubuntu22.04.1*%
%TF.CreationDate,2025-06-23T10:34:33-07:00*%
%TF.ProjectId,ds1486,64733134-3836-42e6-9b69-6361645f7063,rev?*%
%TF.SameCoordinates,Original*%
%TF.FileFunction,Soldermask,Top*%
%TF.FilePolarity,Negative*%
%FSLAX46Y46*%
G04 Gerber Fmt 4.6, Leading zero omitted, Abs format (unit mm)*
G04 Created by KiCad (PCBNEW 9.0.2-9.0.2-0~ubuntu22.04.1) date 2025-06-23 10:34:33*
%MOMM*%
%LPD*%
G01*
G04 APERTURE LIST*
G04 Aperture macros list*
%AMRoundRect*
0 Rectangle with rounded corners*
0 $1 Rounding radius*
0 $2 $3 $4 $5 $6 $7 $8 $9 X,Y pos of 4 corners*
0 Add a 4 corners polygon primitive as box body*
4,1,4,$2,$3,$4,$5,$6,$7,$8,$9,$2,$3,0*
0 Add four circle primitives for the rounded corners*
1,1,$1+$1,$2,$3*
1,1,$1+$1,$4,$5*
1,1,$1+$1,$6,$7*
1,1,$1+$1,$8,$9*
0 Add four rect primitives between the rounded corners*
20,1,$1+$1,$2,$3,$4,$5,0*
20,1,$1+$1,$4,$5,$6,$7,0*
20,1,$1+$1,$6,$7,$8,$9,0*
20,1,$1+$1,$8,$9,$2,$3,0*%
G04 Aperture macros list end*
%ADD10RoundRect,0.140000X-0.140000X-0.170000X0.140000X-0.170000X0.140000X0.170000X-0.140000X0.170000X0*%
%ADD11RoundRect,0.140000X-0.170000X0.140000X-0.170000X-0.140000X0.170000X-0.140000X0.170000X0.140000X0*%
%ADD12RoundRect,0.135000X-0.135000X-0.185000X0.135000X-0.185000X0.135000X0.185000X-0.135000X0.185000X0*%
%ADD13RoundRect,0.135000X-0.185000X0.135000X-0.185000X-0.135000X0.185000X-0.135000X0.185000X0.135000X0*%
%ADD14R,1.600000X1.600000*%
%ADD15C,1.600000*%
%ADD16RoundRect,0.135000X0.135000X0.185000X-0.135000X0.185000X-0.135000X-0.185000X0.135000X-0.185000X0*%
%ADD17RoundRect,0.250000X0.300000X0.300000X-0.300000X0.300000X-0.300000X-0.300000X0.300000X-0.300000X0*%
%ADD18R,1.700000X1.700000*%
%ADD19C,1.700000*%
%ADD20RoundRect,0.300000X-0.700000X-0.700000X0.700000X-0.700000X0.700000X0.700000X-0.700000X0.700000X0*%
%ADD21C,2.000000*%
%ADD22RoundRect,0.250000X0.450000X0.350000X-0.450000X0.350000X-0.450000X-0.350000X0.450000X-0.350000X0*%
%ADD23RoundRect,0.050000X0.285000X0.100000X-0.285000X0.100000X-0.285000X-0.100000X0.285000X-0.100000X0*%
%ADD24RoundRect,0.225000X-0.250000X0.225000X-0.250000X-0.225000X0.250000X-0.225000X0.250000X0.225000X0*%
%ADD25RoundRect,0.225000X0.250000X-0.225000X0.250000X0.225000X-0.250000X0.225000X-0.250000X-0.225000X0*%
%ADD26RoundRect,0.050000X0.387500X0.050000X-0.387500X0.050000X-0.387500X-0.050000X0.387500X-0.050000X0*%
%ADD27RoundRect,0.050000X0.050000X0.387500X-0.050000X0.387500X-0.050000X-0.387500X0.050000X-0.387500X0*%
%ADD28R,3.200000X3.200000*%
%ADD29RoundRect,0.375000X-0.375000X0.625000X-0.375000X-0.625000X0.375000X-0.625000X0.375000X0.625000X0*%
%ADD30RoundRect,0.500000X-1.400000X0.500000X-1.400000X-0.500000X1.400000X-0.500000X1.400000X0.500000X0*%
%ADD31RoundRect,0.200000X0.200000X0.275000X-0.200000X0.275000X-0.200000X-0.275000X0.200000X-0.275000X0*%
G04 APERTURE END LIST*
D10*
%TO.C,C19*%
X122940000Y-74700000D03*
X123900000Y-74700000D03*
%TD*%
D11*
%TO.C,C18*%
X123800000Y-81800000D03*
X123800000Y-82760000D03*
%TD*%
D12*
%TO.C,R12*%
X111300000Y-69850000D03*
X112320000Y-69850000D03*
%TD*%
%TO.C,R5*%
X111300000Y-85100000D03*
X112320000Y-85100000D03*
%TD*%
D13*
%TO.C,R33*%
X113250000Y-68080000D03*
X113250000Y-69100000D03*
%TD*%
D14*
%TO.C,J4*%
X111760000Y-63500000D03*
D15*
X111760000Y-66040000D03*
X111760000Y-68580000D03*
X111760000Y-71120000D03*
X111760000Y-73660000D03*
X111760000Y-76200000D03*
X111760000Y-78740000D03*
X111760000Y-81280000D03*
X111760000Y-83820000D03*
X111760000Y-86360000D03*
X111760000Y-88900000D03*
X111760000Y-91440000D03*
X111760000Y-93980000D03*
X111760000Y-96520000D03*
X111760000Y-99060000D03*
X111760000Y-101600000D03*
%TD*%
D13*
%TO.C,R28*%
X125550000Y-78230000D03*
X125550000Y-79250000D03*
%TD*%
%TO.C,R21*%
X113250000Y-85830000D03*
X113250000Y-86850000D03*
%TD*%
D12*
%TO.C,R19*%
X111280000Y-67300000D03*
X112300000Y-67300000D03*
%TD*%
D16*
%TO.C,R17*%
X127500000Y-80000000D03*
X126480000Y-80000000D03*
%TD*%
D13*
%TO.C,R35*%
X113250000Y-65580000D03*
X113250000Y-66600000D03*
%TD*%
D16*
%TO.C,R11*%
X127500000Y-67300000D03*
X126480000Y-67300000D03*
%TD*%
D12*
%TO.C,R7*%
X111300000Y-80000000D03*
X112320000Y-80000000D03*
%TD*%
%TO.C,R6*%
X111300000Y-87650000D03*
X112320000Y-87650000D03*
%TD*%
D13*
%TO.C,R3*%
X113250000Y-90930000D03*
X113250000Y-91950000D03*
%TD*%
D17*
%TO.C,D1*%
X116050000Y-102950000D03*
X113250000Y-102950000D03*
%TD*%
D18*
%TO.C,J3*%
X132080000Y-63500000D03*
D19*
X132080000Y-66040000D03*
X132080000Y-68580000D03*
X132080000Y-71120000D03*
X132080000Y-73660000D03*
X132080000Y-76200000D03*
X132080000Y-78740000D03*
X132080000Y-81280000D03*
X132080000Y-83820000D03*
X132080000Y-86360000D03*
X132080000Y-88900000D03*
X132080000Y-91440000D03*
X132080000Y-93980000D03*
X132080000Y-96520000D03*
X132080000Y-99060000D03*
X132080000Y-101600000D03*
%TD*%
D20*
%TO.C,BT1*%
X119500000Y-102550000D03*
D21*
X119500000Y-92550000D03*
%TD*%
D13*
%TO.C,R29*%
X125550000Y-85880000D03*
X125550000Y-86900000D03*
%TD*%
%TO.C,R34*%
X125550000Y-65530000D03*
X125550000Y-66550000D03*
%TD*%
D12*
%TO.C,R14*%
X111300000Y-72400000D03*
X112320000Y-72400000D03*
%TD*%
D18*
%TO.C,J2*%
X106680000Y-63500000D03*
D19*
X106680000Y-66040000D03*
X106680000Y-68580000D03*
X106680000Y-71120000D03*
X106680000Y-73660000D03*
X106680000Y-76200000D03*
X106680000Y-78740000D03*
X106680000Y-81280000D03*
X106680000Y-83820000D03*
X106680000Y-86360000D03*
X106680000Y-88900000D03*
X106680000Y-91440000D03*
X106680000Y-93980000D03*
X106680000Y-96520000D03*
X106680000Y-99060000D03*
X106680000Y-101600000D03*
%TD*%
D22*
%TO.C,Y2*%
X120080000Y-76550000D03*
X117880000Y-76550000D03*
X117880000Y-78250000D03*
X120080000Y-78250000D03*
%TD*%
D12*
%TO.C,R9*%
X111300000Y-74950000D03*
X112320000Y-74950000D03*
%TD*%
D13*
%TO.C,R31*%
X113250000Y-70650000D03*
X113250000Y-71670000D03*
%TD*%
D12*
%TO.C,R4*%
X111300000Y-90150000D03*
X112320000Y-90150000D03*
%TD*%
D23*
%TO.C,U5*%
X124300000Y-73600000D03*
X124300000Y-73100000D03*
X124300000Y-72600000D03*
X122820000Y-72600000D03*
X122820000Y-73600000D03*
%TD*%
D16*
%TO.C,R18*%
X127500000Y-77450000D03*
X126480000Y-77450000D03*
%TD*%
D24*
%TO.C,C3*%
X121850000Y-76650000D03*
X121850000Y-78200000D03*
%TD*%
D16*
%TO.C,R13*%
X127500000Y-74900000D03*
X126480000Y-74900000D03*
%TD*%
%TO.C,R16*%
X127500000Y-87600000D03*
X126480000Y-87600000D03*
%TD*%
D13*
%TO.C,R32*%
X125550000Y-73230000D03*
X125550000Y-74250000D03*
%TD*%
%TO.C,R22*%
X113250000Y-83300000D03*
X113250000Y-84320000D03*
%TD*%
D23*
%TO.C,U7*%
X124330000Y-80700000D03*
X124330000Y-80200000D03*
X124330000Y-79700000D03*
X122850000Y-79700000D03*
X122850000Y-80700000D03*
%TD*%
D13*
%TO.C,R24*%
X113250000Y-78230000D03*
X113250000Y-79250000D03*
%TD*%
%TO.C,R26*%
X113250000Y-73130000D03*
X113250000Y-74150000D03*
%TD*%
D16*
%TO.C,R15*%
X127500000Y-82550000D03*
X126480000Y-82550000D03*
%TD*%
D13*
%TO.C,R30*%
X125550000Y-80800000D03*
X125550000Y-81820000D03*
%TD*%
%TO.C,R27*%
X125550000Y-75700000D03*
X125550000Y-76720000D03*
%TD*%
D14*
%TO.C,J5*%
X127000000Y-63500000D03*
D15*
X127000000Y-66040000D03*
X127000000Y-68580000D03*
X127000000Y-71120000D03*
X127000000Y-73660000D03*
X127000000Y-76200000D03*
X127000000Y-78740000D03*
X127000000Y-81280000D03*
X127000000Y-83820000D03*
X127000000Y-86360000D03*
X127000000Y-88900000D03*
X127000000Y-91440000D03*
X127000000Y-93980000D03*
X127000000Y-96520000D03*
X127000000Y-99060000D03*
X127000000Y-101600000D03*
%TD*%
D25*
%TO.C,C4*%
X116100000Y-78200000D03*
X116100000Y-76650000D03*
%TD*%
D13*
%TO.C,R25*%
X113250000Y-75680000D03*
X113250000Y-76700000D03*
%TD*%
D26*
%TO.C,U1*%
X122637500Y-87850000D03*
X122637500Y-87450000D03*
X122637500Y-87050000D03*
X122637500Y-86650000D03*
X122637500Y-86250000D03*
X122637500Y-85850000D03*
X122637500Y-85450000D03*
X122637500Y-85050000D03*
X122637500Y-84650000D03*
X122637500Y-84250000D03*
X122637500Y-83850000D03*
X122637500Y-83450000D03*
X122637500Y-83050000D03*
X122637500Y-82650000D03*
D27*
X121800000Y-81812500D03*
X121400000Y-81812500D03*
X121000000Y-81812500D03*
X120600000Y-81812500D03*
X120200000Y-81812500D03*
X119800000Y-81812500D03*
X119400000Y-81812500D03*
X119000000Y-81812500D03*
X118600000Y-81812500D03*
X118200000Y-81812500D03*
X117800000Y-81812500D03*
X117400000Y-81812500D03*
X117000000Y-81812500D03*
X116600000Y-81812500D03*
D26*
X115762500Y-82650000D03*
X115762500Y-83050000D03*
X115762500Y-83450000D03*
X115762500Y-83850000D03*
X115762500Y-84250000D03*
X115762500Y-84650000D03*
X115762500Y-85050000D03*
X115762500Y-85450000D03*
X115762500Y-85850000D03*
X115762500Y-86250000D03*
X115762500Y-86650000D03*
X115762500Y-87050000D03*
X115762500Y-87450000D03*
X115762500Y-87850000D03*
D27*
X116600000Y-88687500D03*
X117000000Y-88687500D03*
X117400000Y-88687500D03*
X117800000Y-88687500D03*
X118200000Y-88687500D03*
X118600000Y-88687500D03*
X119000000Y-88687500D03*
X119400000Y-88687500D03*
X119800000Y-88687500D03*
X120200000Y-88687500D03*
X120600000Y-88687500D03*
X121000000Y-88687500D03*
X121400000Y-88687500D03*
X121800000Y-88687500D03*
D28*
X119200000Y-85250000D03*
%TD*%
D12*
%TO.C,R8*%
X111300000Y-82550000D03*
X112320000Y-82550000D03*
%TD*%
D29*
%TO.C,U3*%
X120750000Y-66600000D03*
X118450000Y-66600000D03*
D30*
X118450000Y-72900000D03*
D29*
X116150000Y-66600000D03*
%TD*%
D12*
%TO.C,R36*%
X116480000Y-79700000D03*
X117500000Y-79700000D03*
%TD*%
%TO.C,R10*%
X111300000Y-77450000D03*
X112320000Y-77450000D03*
%TD*%
%TO.C,R2*%
X111300000Y-92700000D03*
X112320000Y-92700000D03*
%TD*%
D31*
%TO.C,R1*%
X119630000Y-74900000D03*
X117980000Y-74900000D03*
%TD*%
D18*
%TO.C,J1*%
X116870000Y-62200000D03*
D19*
X119410000Y-62200000D03*
X121950000Y-62200000D03*
%TD*%
D13*
%TO.C,R23*%
X113250000Y-80780000D03*
X113250000Y-81800000D03*
%TD*%
%TO.C,R20*%
X113250000Y-88380000D03*
X113250000Y-89400000D03*
%TD*%
D17*
%TO.C,D2*%
X125850000Y-102950000D03*
X123050000Y-102950000D03*
%TD*%
M02*
