M48
; DRILL file {KiCad 9.0.2-9.0.2-0~ubuntu22.04.1} date 2025-06-23T10:34:27-0700
; FORMAT={-:-/ absolute / metric / decimal}
; #@! TF.CreationDate,2025-06-23T10:34:27-07:00
; #@! TF.GenerationSoftware,Kicad,Pcbnew,9.0.2-9.0.2-0~ubuntu22.04.1
; #@! TF.FileFunction,Plated,1,4,PTH
FMAT,2
METRIC
; #@! TA.AperFunction,Plated,PTH,ViaDrill
T1C0.300
; #@! TA.AperFunction,Plated,PTH,ComponentDrill
T2C0.800
; #@! TA.AperFunction,Plated,PTH,ComponentDrill
T3C1.000
%
G90
G05
T1
X112.75Y-69.5
X112.8Y-84.7
X112.85Y-67.0
X112.85Y-89.8
X112.85Y-92.35
X112.998Y-78.284
X113.023Y-75.722
X113.029Y-73.23
X113.069Y-65.78
X113.086Y-68.327
X113.093Y-70.885
X113.114Y-91.124
X113.2Y-102.8
X113.245Y-88.63
X113.25Y-81.03
X113.252Y-86.08
X113.253Y-83.55
X114.15Y-87.5
X114.3Y-94.95
X114.55Y-96.55
X114.55Y-98.95
X114.752Y-63.386
X114.976Y-74.4
X115.05Y-72.1
X115.1Y-82.15
X115.55Y-64.45
X115.75Y-88.7
X115.8Y-90.4
X116.05Y-102.95
X116.45Y-101.2
X116.569Y-83.233
X116.798Y-86.138
X116.9Y-87.05
X117.1Y-84.9
X117.1Y-94.2
X117.225Y-76.95
X117.3Y-90.9
X117.405Y-89.504
X117.5Y-79.7
X117.55Y-83.45
X117.68Y-95.838
X117.725Y-80.565
X117.728Y-99.453
X117.808Y-97.755
X118.15Y-87.4
X118.156Y-96.542
X118.2Y-64.45
X118.45Y-66.6
X118.52Y-80.244
X118.55Y-97.35
X118.7Y-98.2
X118.8Y-88.64
X118.817Y-72.533
X118.85Y-90.35
X118.925Y-73.375
X119.1Y-83.35
X119.2Y-85.25
X119.21Y-80.741
X119.536Y-98.843
X119.545Y-97.993
X119.625Y-89.619
X119.65Y-72.5
X119.7Y-73.35
X119.731Y-87.014
X119.85Y-97.25
X120.26Y-90.643
X120.363Y-98.569
X120.55Y-91.45
X120.69Y-87.8
X120.8Y-83.15
X120.85Y-97.0
X120.876Y-84.299
X120.95Y-64.45
X121.013Y-99.117
X121.25Y-91.9
X121.33Y-80.893
X121.5Y-96.35
X121.514Y-66.668
X121.62Y-86.079
X121.651Y-87.011
X121.726Y-84.307
X121.8Y-98.65
X121.806Y-90.0
X121.834Y-78.25
X121.966Y-83.05
X122.35Y-96.2
X122.65Y-98.8
X122.753Y-76.101
X122.88Y-80.618
X122.9Y-70.3
X122.923Y-88.538
X122.95Y-82.0
X123.0Y-78.4
X123.156Y-90.278
X123.5Y-99.15
X123.508Y-100.47
X123.96Y-83.98
X124.119Y-82.749
X124.264Y-95.112
X125.5Y-101.05
X125.55Y-65.75
X125.55Y-70.15
X125.55Y-71.95
X125.55Y-75.95
X125.686Y-78.432
X125.7Y-73.439
X125.735Y-85.945
X125.741Y-80.793
X125.95Y-79.65
X125.965Y-77.135
X125.975Y-66.975
X126.681Y-82.456
T2
X111.76Y-63.5
X111.76Y-66.04
X111.76Y-68.58
X111.76Y-71.12
X111.76Y-73.66
X111.76Y-76.2
X111.76Y-78.74
X111.76Y-81.28
X111.76Y-83.82
X111.76Y-86.36
X111.76Y-88.9
X111.76Y-91.44
X111.76Y-93.98
X111.76Y-96.52
X111.76Y-99.06
X111.76Y-101.6
X127.0Y-63.5
X127.0Y-66.04
X127.0Y-68.58
X127.0Y-71.12
X127.0Y-73.66
X127.0Y-76.2
X127.0Y-78.74
X127.0Y-81.28
X127.0Y-83.82
X127.0Y-86.36
X127.0Y-88.9
X127.0Y-91.44
X127.0Y-93.98
X127.0Y-96.52
X127.0Y-99.06
X127.0Y-101.6
T3
X106.68Y-63.5
X106.68Y-66.04
X106.68Y-68.58
X106.68Y-71.12
X106.68Y-73.66
X106.68Y-76.2
X106.68Y-78.74
X106.68Y-81.28
X106.68Y-83.82
X106.68Y-86.36
X106.68Y-88.9
X106.68Y-91.44
X106.68Y-93.98
X106.68Y-96.52
X106.68Y-99.06
X106.68Y-101.6
X116.87Y-62.2
X119.41Y-62.2
X119.5Y-92.55
X119.5Y-102.55
X121.95Y-62.2
X132.08Y-63.5
X132.08Y-66.04
X132.08Y-68.58
X132.08Y-71.12
X132.08Y-73.66
X132.08Y-76.2
X132.08Y-78.74
X132.08Y-81.28
X132.08Y-83.82
X132.08Y-86.36
X132.08Y-88.9
X132.08Y-91.44
X132.08Y-93.98
X132.08Y-96.52
X132.08Y-99.06
X132.08Y-101.6
M30
