%TF.GenerationSoftware,KiCad,Pcbnew,9.0.2-9.0.2-0~ubuntu22.04.1*%
%TF.CreationDate,2025-06-23T10:34:33-07:00*%
%TF.ProjectId,ds1486,64733134-3836-42e6-9b69-6361645f7063,rev?*%
%TF.SameCoordinates,Original*%
%TF.FileFunction,Copper,L2,Inr*%
%TF.FilePolarity,Positive*%
%FSLAX46Y46*%
G04 Gerber Fmt 4.6, Leading zero omitted, Abs format (unit mm)*
G04 Created by KiCad (PCBNEW 9.0.2-9.0.2-0~ubuntu22.04.1) date 2025-06-23 10:34:33*
%MOMM*%
%LPD*%
G01*
G04 APERTURE LIST*
G04 Aperture macros list*
%AMRoundRect*
0 Rectangle with rounded corners*
0 $1 Rounding radius*
0 $2 $3 $4 $5 $6 $7 $8 $9 X,Y pos of 4 corners*
0 Add a 4 corners polygon primitive as box body*
4,1,4,$2,$3,$4,$5,$6,$7,$8,$9,$2,$3,0*
0 Add four circle primitives for the rounded corners*
1,1,$1+$1,$2,$3*
1,1,$1+$1,$4,$5*
1,1,$1+$1,$6,$7*
1,1,$1+$1,$8,$9*
0 Add four rect primitives between the rounded corners*
20,1,$1+$1,$2,$3,$4,$5,0*
20,1,$1+$1,$4,$5,$6,$7,0*
20,1,$1+$1,$6,$7,$8,$9,0*
20,1,$1+$1,$8,$9,$2,$3,0*%
G04 Aperture macros list end*
%TA.AperFunction,ComponentPad*%
%ADD10R,1.600000X1.600000*%
%TD*%
%TA.AperFunction,ComponentPad*%
%ADD11C,1.600000*%
%TD*%
%TA.AperFunction,ComponentPad*%
%ADD12R,1.700000X1.700000*%
%TD*%
%TA.AperFunction,ComponentPad*%
%ADD13C,1.700000*%
%TD*%
%TA.AperFunction,ComponentPad*%
%ADD14RoundRect,0.300000X-0.700000X-0.700000X0.700000X-0.700000X0.700000X0.700000X-0.700000X0.700000X0*%
%TD*%
%TA.AperFunction,ComponentPad*%
%ADD15C,2.000000*%
%TD*%
%TA.AperFunction,ViaPad*%
%ADD16C,0.600000*%
%TD*%
%TA.AperFunction,Conductor*%
%ADD17C,0.100000*%
%TD*%
%TA.AperFunction,Conductor*%
%ADD18C,0.200000*%
%TD*%
G04 APERTURE END LIST*
D10*
%TO.N,/INTB_*%
%TO.C,J4*%
X111760000Y-63500000D03*
D11*
%TO.N,/A16*%
X111760000Y-66040000D03*
%TO.N,/A14*%
X111760000Y-68580000D03*
%TO.N,/A12*%
X111760000Y-71120000D03*
%TO.N,/A7*%
X111760000Y-73660000D03*
%TO.N,/A6*%
X111760000Y-76200000D03*
%TO.N,/A5*%
X111760000Y-78740000D03*
%TO.N,/A4*%
X111760000Y-81280000D03*
%TO.N,/A3*%
X111760000Y-83820000D03*
%TO.N,/A2*%
X111760000Y-86360000D03*
%TO.N,/A1*%
X111760000Y-88900000D03*
%TO.N,/A0*%
X111760000Y-91440000D03*
%TO.N,/DQ0*%
X111760000Y-93980000D03*
%TO.N,/DQ1*%
X111760000Y-96520000D03*
%TO.N,/DQ2*%
X111760000Y-99060000D03*
%TO.N,GND*%
X111760000Y-101600000D03*
%TD*%
D12*
%TO.N,+5V*%
%TO.C,J3*%
X132080000Y-63500000D03*
D13*
%TO.N,/A15*%
X132080000Y-66040000D03*
%TO.N,/INTA_*%
X132080000Y-68580000D03*
%TO.N,/WE_*%
X132080000Y-71120000D03*
%TO.N,/A13*%
X132080000Y-73660000D03*
%TO.N,/A8*%
X132080000Y-76200000D03*
%TO.N,/A9*%
X132080000Y-78740000D03*
%TO.N,/A11*%
X132080000Y-81280000D03*
%TO.N,/OE_*%
X132080000Y-83820000D03*
%TO.N,/A10*%
X132080000Y-86360000D03*
%TO.N,/CE_*%
X132080000Y-88900000D03*
%TO.N,/DQ7*%
X132080000Y-91440000D03*
%TO.N,/DQ6*%
X132080000Y-93980000D03*
%TO.N,/DQ5*%
X132080000Y-96520000D03*
%TO.N,/DQ4*%
X132080000Y-99060000D03*
%TO.N,/DQ3*%
X132080000Y-101600000D03*
%TD*%
D14*
%TO.N,+BATT*%
%TO.C,BT1*%
X119500000Y-102550000D03*
D15*
%TO.N,GND*%
X119500000Y-92550000D03*
%TD*%
D12*
%TO.N,/INTB_*%
%TO.C,J2*%
X106680000Y-63500000D03*
D13*
%TO.N,/A16*%
X106680000Y-66040000D03*
%TO.N,/A14*%
X106680000Y-68580000D03*
%TO.N,/A12*%
X106680000Y-71120000D03*
%TO.N,/A7*%
X106680000Y-73660000D03*
%TO.N,/A6*%
X106680000Y-76200000D03*
%TO.N,/A5*%
X106680000Y-78740000D03*
%TO.N,/A4*%
X106680000Y-81280000D03*
%TO.N,/A3*%
X106680000Y-83820000D03*
%TO.N,/A2*%
X106680000Y-86360000D03*
%TO.N,/A1*%
X106680000Y-88900000D03*
%TO.N,/A0*%
X106680000Y-91440000D03*
%TO.N,/DQ0*%
X106680000Y-93980000D03*
%TO.N,/DQ1*%
X106680000Y-96520000D03*
%TO.N,/DQ2*%
X106680000Y-99060000D03*
%TO.N,GND*%
X106680000Y-101600000D03*
%TD*%
D10*
%TO.N,+5V*%
%TO.C,J5*%
X127000000Y-63500000D03*
D11*
%TO.N,/A15*%
X127000000Y-66040000D03*
%TO.N,/INTA_*%
X127000000Y-68580000D03*
%TO.N,/WE_*%
X127000000Y-71120000D03*
%TO.N,/A13*%
X127000000Y-73660000D03*
%TO.N,/A8*%
X127000000Y-76200000D03*
%TO.N,/A9*%
X127000000Y-78740000D03*
%TO.N,/A11*%
X127000000Y-81280000D03*
%TO.N,/OE_*%
X127000000Y-83820000D03*
%TO.N,/A10*%
X127000000Y-86360000D03*
%TO.N,/CE_*%
X127000000Y-88900000D03*
%TO.N,/DQ7*%
X127000000Y-91440000D03*
%TO.N,/DQ6*%
X127000000Y-93980000D03*
%TO.N,/DQ5*%
X127000000Y-96520000D03*
%TO.N,/DQ4*%
X127000000Y-99060000D03*
%TO.N,/DQ3*%
X127000000Y-101600000D03*
%TD*%
D12*
%TO.N,/SWCLK*%
%TO.C,J1*%
X116870000Y-62200000D03*
D13*
%TO.N,GND*%
X119410000Y-62200000D03*
%TO.N,/SWD*%
X121950000Y-62200000D03*
%TD*%
D16*
%TO.N,GND*%
X114975808Y-74400000D03*
X124119101Y-82749000D03*
%TO.N,/SCL*%
X123960388Y-83980000D03*
%TO.N,/DQ4*%
X122650000Y-98800000D03*
%TO.N,/DQ2*%
X119535773Y-98843299D03*
%TO.N,/DQ5*%
X121800000Y-98650000D03*
%TO.N,/DQ0*%
X117808155Y-97754616D03*
%TO.N,/DQ6*%
X121013222Y-99116861D03*
%TO.N,+5V*%
X116450000Y-101200000D03*
X115550000Y-64450000D03*
X125500000Y-101050000D03*
%TO.N,/DQ3*%
X123500000Y-99150000D03*
%TO.N,/DQ1*%
X118700000Y-98200000D03*
%TO.N,GND*%
X113086131Y-68327249D03*
X122752531Y-76100811D03*
X121833760Y-78250000D03*
X121514255Y-66668121D03*
X117550000Y-83450000D03*
X120260451Y-90643321D03*
X125550000Y-71950000D03*
X112997709Y-78284333D03*
X119200000Y-85250000D03*
X113069371Y-65780000D03*
X125700333Y-73438667D03*
X120875763Y-84299417D03*
X122900000Y-70300000D03*
X117300000Y-90900000D03*
X114550000Y-98950000D03*
X113029207Y-73230410D03*
X125550000Y-65750000D03*
X113245403Y-88630000D03*
X113114167Y-91124167D03*
X118200000Y-64450000D03*
X123507502Y-100470000D03*
X119731000Y-87013605D03*
X113250000Y-81030000D03*
X113253231Y-83550000D03*
X117727501Y-99453473D03*
X115800000Y-90400000D03*
X113093000Y-70884847D03*
X113022517Y-75721923D03*
X119100000Y-83350000D03*
X125735076Y-85944925D03*
X125685579Y-78432099D03*
X124264000Y-95112500D03*
X125740946Y-80792877D03*
X113251801Y-86080000D03*
X117225454Y-76950000D03*
X114550000Y-96550000D03*
X125550000Y-75950000D03*
X123156306Y-90277805D03*
X118850000Y-90350000D03*
%TO.N,/DQ7*%
X120362948Y-98569460D03*
%TO.N,/QSPI_SD2*%
X121650637Y-87010749D03*
%TO.N,/QSPI_SD1*%
X121806000Y-90000000D03*
%TO.N,/QSPI_SS*%
X121250000Y-91900000D03*
%TO.N,/QSPI_SD3*%
X121620450Y-86079270D03*
%TO.N,/QSPI_SD0*%
X120550000Y-91450000D03*
%TO.N,/QSPI_SCLK*%
X120690373Y-87800301D03*
%TO.N,+3V3*%
X119700000Y-73350000D03*
X122923172Y-88538386D03*
X119650000Y-72500000D03*
X115750000Y-88700000D03*
X117099998Y-84900000D03*
X118800000Y-88640282D03*
X119210027Y-80740517D03*
X114300000Y-94950000D03*
X120950000Y-64450000D03*
X113200000Y-102800000D03*
X118450000Y-66600000D03*
X118150000Y-87400000D03*
X122880000Y-80618108D03*
X117500000Y-79700000D03*
X118816767Y-72533239D03*
X118925000Y-73375000D03*
X121725731Y-84306978D03*
%TO.N,/DQC0*%
X117679727Y-95837811D03*
%TO.N,/DQC2*%
X118550000Y-97350000D03*
%TO.N,/DQC1*%
X118156495Y-96541513D03*
%TO.N,/AC0*%
X112850000Y-92350000D03*
X116797784Y-86138247D03*
%TO.N,/AC1*%
X112850000Y-89800000D03*
X116900000Y-87050000D03*
%TO.N,/AC3*%
X114150000Y-87500000D03*
X112800000Y-84700000D03*
%TO.N,/AC15*%
X114752142Y-63385667D03*
X125975000Y-66975000D03*
%TO.N,/AC14*%
X112750000Y-69500000D03*
X115100000Y-82150000D03*
%TO.N,/AC11*%
X126681101Y-82455924D03*
X120800000Y-83149998D03*
%TO.N,/AC10*%
X122950000Y-82000000D03*
X121329649Y-80893311D03*
%TO.N,/AC9*%
X125950000Y-79650000D03*
X123000000Y-78400000D03*
%TO.N,/AC8*%
X125550000Y-70150000D03*
X125965000Y-77135000D03*
%TO.N,/AC16*%
X116569019Y-83233262D03*
X112850000Y-67000000D03*
%TO.N,/DQC4*%
X121500000Y-96350000D03*
%TO.N,/DQC5*%
X120850000Y-97000000D03*
%TO.N,/DQC7*%
X119544867Y-97993346D03*
%TO.N,/DQC3*%
X122350000Y-96200000D03*
%TO.N,/DQC6*%
X119850000Y-97250000D03*
%TO.N,/SWD*%
X115050000Y-72100000D03*
%TO.N,/SWCLK*%
X117725134Y-80564606D03*
%TO.N,/SDA*%
X121966092Y-83049999D03*
%TO.N,/VRTC*%
X116050000Y-102950000D03*
%TO.N,+1V1*%
X118519816Y-80244420D03*
X119624999Y-89618708D03*
X117405037Y-89504205D03*
%TO.N,/D_DIR*%
X117100000Y-94200000D03*
%TD*%
D17*
%TO.N,/AC11*%
X126294177Y-82069000D02*
X126681101Y-82455924D01*
X123837435Y-82069000D02*
X126294177Y-82069000D01*
X121380001Y-83729999D02*
X122176436Y-83729999D01*
X120800000Y-83149998D02*
X121380001Y-83729999D01*
X122176436Y-83729999D02*
X123837435Y-82069000D01*
D18*
%TO.N,+3V3*%
X119250544Y-80700000D02*
X120490584Y-80700000D01*
X120490584Y-80700000D02*
X121027273Y-80163311D01*
X119210027Y-80740517D02*
X119250544Y-80700000D01*
X121879806Y-80411092D02*
X122672984Y-80411092D01*
X121027273Y-80163311D02*
X121632025Y-80163311D01*
X122672984Y-80411092D02*
X122880000Y-80618108D01*
X121632025Y-80163311D02*
X121879806Y-80411092D01*
D17*
%TO.N,/AC10*%
X121800000Y-82000000D02*
X121329649Y-81529649D01*
X121329649Y-81529649D02*
X121329649Y-80893311D01*
X122950000Y-82000000D02*
X121800000Y-82000000D01*
D18*
%TO.N,+5V*%
X128600000Y-65100000D02*
X127000000Y-63500000D01*
X125500000Y-101050000D02*
X126051000Y-100499000D01*
X126051000Y-100499000D02*
X128151000Y-100499000D01*
X128600000Y-100050000D02*
X128600000Y-65100000D01*
X128151000Y-100499000D02*
X128600000Y-100050000D01*
%TO.N,+3V3*%
X118800000Y-88050000D02*
X118150000Y-87400000D01*
X118800000Y-88640282D02*
X118800000Y-88050000D01*
X113200000Y-96050000D02*
X114300000Y-94950000D01*
X117500000Y-79700000D02*
X117652789Y-79547211D01*
X118150000Y-85950002D02*
X117099998Y-84900000D01*
X118741254Y-79547211D02*
X119210027Y-80015984D01*
X117652789Y-79547211D02*
X118741254Y-79547211D01*
X115750000Y-88700000D02*
X118740282Y-88700000D01*
X113200000Y-102800000D02*
X113200000Y-96050000D01*
X114300000Y-90150000D02*
X114300000Y-94950000D01*
X119210027Y-80015984D02*
X119210027Y-80740517D01*
X115750000Y-88700000D02*
X114300000Y-90150000D01*
X118150000Y-87400000D02*
X118150000Y-85950002D01*
X118740282Y-88700000D02*
X118800000Y-88640282D01*
D17*
%TO.N,/AC15*%
X123600000Y-63500000D02*
X114866475Y-63500000D01*
X124800000Y-65800000D02*
X124800000Y-64700000D01*
X124800000Y-64700000D02*
X123600000Y-63500000D01*
X125975000Y-66975000D02*
X124800000Y-65800000D01*
X114866475Y-63500000D02*
X114752142Y-63385667D01*
%TO.N,/AC9*%
X124700000Y-78400000D02*
X123000000Y-78400000D01*
X125950000Y-79650000D02*
X124700000Y-78400000D01*
%TO.N,/AC8*%
X128051000Y-76635339D02*
X127435339Y-77251000D01*
X127435339Y-77251000D02*
X126081000Y-77251000D01*
X126081000Y-77251000D02*
X125965000Y-77135000D01*
X125631000Y-70069000D02*
X127435339Y-70069000D01*
X125550000Y-70150000D02*
X125631000Y-70069000D01*
X128051000Y-70684661D02*
X128051000Y-76635339D01*
X127435339Y-70069000D02*
X128051000Y-70684661D01*
D18*
%TO.N,+1V1*%
X119624999Y-88025056D02*
X119624999Y-89618708D01*
X118519816Y-80244420D02*
X118450000Y-80314236D01*
X118450000Y-86850057D02*
X119624999Y-88025056D01*
X118450000Y-80314236D02*
X118450000Y-86850057D01*
X119624999Y-89618708D02*
X117519540Y-89618708D01*
X117519540Y-89618708D02*
X117405037Y-89504205D01*
%TD*%
%TA.AperFunction,Conductor*%
%TO.N,+3V3*%
G36*
X115588038Y-60870185D02*
G01*
X115633793Y-60922989D01*
X115643737Y-60992147D01*
X115620265Y-61048810D01*
X115615106Y-61055703D01*
X115576204Y-61107668D01*
X115576202Y-61107671D01*
X115525908Y-61242517D01*
X115519501Y-61302116D01*
X115519500Y-61302135D01*
X115519500Y-62721584D01*
X115499815Y-62788623D01*
X115447011Y-62834378D01*
X115377853Y-62844322D01*
X115314297Y-62815297D01*
X115307819Y-62809265D01*
X115262434Y-62763880D01*
X115262430Y-62763877D01*
X115131327Y-62676276D01*
X115131314Y-62676269D01*
X114985643Y-62615931D01*
X114985631Y-62615928D01*
X114830987Y-62585167D01*
X114830984Y-62585167D01*
X114673300Y-62585167D01*
X114673297Y-62585167D01*
X114518652Y-62615928D01*
X114518640Y-62615931D01*
X114372969Y-62676269D01*
X114372956Y-62676276D01*
X114241853Y-62763877D01*
X114241849Y-62763880D01*
X114130355Y-62875374D01*
X114130352Y-62875378D01*
X114042751Y-63006481D01*
X114042744Y-63006494D01*
X113982406Y-63152165D01*
X113982403Y-63152177D01*
X113951642Y-63306820D01*
X113951642Y-63464513D01*
X113982403Y-63619156D01*
X113982406Y-63619168D01*
X114042744Y-63764839D01*
X114042751Y-63764852D01*
X114130352Y-63895955D01*
X114130355Y-63895959D01*
X114241849Y-64007453D01*
X114241853Y-64007456D01*
X114372956Y-64095057D01*
X114372969Y-64095064D01*
X114511974Y-64152641D01*
X114518645Y-64155404D01*
X114592274Y-64170050D01*
X114660378Y-64183597D01*
X114722289Y-64215982D01*
X114756863Y-64276697D01*
X114757805Y-64329404D01*
X114749500Y-64371158D01*
X114749500Y-64528846D01*
X114780261Y-64683489D01*
X114780264Y-64683501D01*
X114840602Y-64829172D01*
X114840609Y-64829185D01*
X114928210Y-64960288D01*
X114928213Y-64960292D01*
X115039707Y-65071786D01*
X115039711Y-65071789D01*
X115170814Y-65159390D01*
X115170827Y-65159397D01*
X115316498Y-65219735D01*
X115316503Y-65219737D01*
X115471153Y-65250499D01*
X115471156Y-65250500D01*
X115471158Y-65250500D01*
X115628844Y-65250500D01*
X115628845Y-65250499D01*
X115783497Y-65219737D01*
X115929179Y-65159394D01*
X116060289Y-65071789D01*
X116171789Y-64960289D01*
X116259394Y-64829179D01*
X116261210Y-64824796D01*
X116294760Y-64743797D01*
X116319737Y-64683497D01*
X116350500Y-64528842D01*
X116350500Y-64371158D01*
X116350500Y-64371155D01*
X116350499Y-64371153D01*
X116345868Y-64347870D01*
X116319737Y-64216503D01*
X116319732Y-64216492D01*
X116317969Y-64210676D01*
X116320720Y-64209841D01*
X116314497Y-64152641D01*
X116345691Y-64090122D01*
X116405734Y-64054392D01*
X116436555Y-64050500D01*
X117313445Y-64050500D01*
X117380484Y-64070185D01*
X117426239Y-64122989D01*
X117436183Y-64192147D01*
X117431159Y-64210411D01*
X117432031Y-64210676D01*
X117430261Y-64216510D01*
X117399500Y-64371153D01*
X117399500Y-64528846D01*
X117430261Y-64683489D01*
X117430264Y-64683501D01*
X117490602Y-64829172D01*
X117490609Y-64829185D01*
X117578210Y-64960288D01*
X117578213Y-64960292D01*
X117689707Y-65071786D01*
X117689711Y-65071789D01*
X117820814Y-65159390D01*
X117820827Y-65159397D01*
X117966498Y-65219735D01*
X117966503Y-65219737D01*
X118121153Y-65250499D01*
X118121156Y-65250500D01*
X118121158Y-65250500D01*
X118278844Y-65250500D01*
X118278845Y-65250499D01*
X118433497Y-65219737D01*
X118579179Y-65159394D01*
X118710289Y-65071789D01*
X118821789Y-64960289D01*
X118909394Y-64829179D01*
X118911210Y-64824796D01*
X118944760Y-64743797D01*
X118969737Y-64683497D01*
X119000500Y-64528842D01*
X119000500Y-64371158D01*
X119000500Y-64371155D01*
X119000499Y-64371153D01*
X118995868Y-64347870D01*
X118969737Y-64216503D01*
X118969732Y-64216492D01*
X118967969Y-64210676D01*
X118970720Y-64209841D01*
X118964497Y-64152641D01*
X118995691Y-64090122D01*
X119055734Y-64054392D01*
X119086555Y-64050500D01*
X123320613Y-64050500D01*
X123387652Y-64070185D01*
X123408294Y-64086819D01*
X124213181Y-64891706D01*
X124246666Y-64953029D01*
X124249500Y-64979387D01*
X124249500Y-65872475D01*
X124279249Y-65983497D01*
X124279248Y-65983497D01*
X124279249Y-65983499D01*
X124287014Y-66012481D01*
X124287015Y-66012484D01*
X124287016Y-66012485D01*
X124306559Y-66046334D01*
X124359489Y-66138013D01*
X124359491Y-66138016D01*
X125138181Y-66916706D01*
X125171666Y-66978029D01*
X125174500Y-67004387D01*
X125174500Y-67053846D01*
X125205261Y-67208489D01*
X125205264Y-67208501D01*
X125265602Y-67354172D01*
X125265609Y-67354185D01*
X125353210Y-67485288D01*
X125353213Y-67485292D01*
X125464707Y-67596786D01*
X125464711Y-67596789D01*
X125595814Y-67684390D01*
X125595827Y-67684397D01*
X125741498Y-67744735D01*
X125741503Y-67744737D01*
X125765843Y-67749578D01*
X125784681Y-67753326D01*
X125846592Y-67785710D01*
X125881166Y-67846426D01*
X125877427Y-67916196D01*
X125870975Y-67931237D01*
X125794782Y-68080773D01*
X125731522Y-68275465D01*
X125699500Y-68477648D01*
X125699500Y-68682351D01*
X125731522Y-68884534D01*
X125768726Y-68999035D01*
X125794780Y-69079219D01*
X125794781Y-69079222D01*
X125794782Y-69079223D01*
X125850677Y-69188924D01*
X125863573Y-69257594D01*
X125837296Y-69322334D01*
X125780190Y-69362591D01*
X125716001Y-69366836D01*
X125628846Y-69349500D01*
X125628842Y-69349500D01*
X125471158Y-69349500D01*
X125471155Y-69349500D01*
X125316510Y-69380261D01*
X125316498Y-69380264D01*
X125170827Y-69440602D01*
X125170814Y-69440609D01*
X125039711Y-69528210D01*
X125039707Y-69528213D01*
X124928213Y-69639707D01*
X124928210Y-69639711D01*
X124840609Y-69770814D01*
X124840602Y-69770827D01*
X124780264Y-69916498D01*
X124780261Y-69916510D01*
X124749500Y-70071153D01*
X124749500Y-70228846D01*
X124780261Y-70383489D01*
X124780264Y-70383501D01*
X124840602Y-70529172D01*
X124840609Y-70529185D01*
X124928210Y-70660288D01*
X124928213Y-70660292D01*
X125039707Y-70771786D01*
X125039711Y-70771789D01*
X125170814Y-70859390D01*
X125170827Y-70859397D01*
X125316498Y-70919735D01*
X125316503Y-70919737D01*
X125316507Y-70919737D01*
X125316508Y-70919738D01*
X125359967Y-70928383D01*
X125421878Y-70960768D01*
X125456452Y-71021484D01*
X125452712Y-71091253D01*
X125411845Y-71147925D01*
X125359967Y-71171617D01*
X125316508Y-71180261D01*
X125316498Y-71180264D01*
X125170827Y-71240602D01*
X125170814Y-71240609D01*
X125039711Y-71328210D01*
X125039707Y-71328213D01*
X124928213Y-71439707D01*
X124928210Y-71439711D01*
X124840609Y-71570814D01*
X124840602Y-71570827D01*
X124780264Y-71716498D01*
X124780261Y-71716510D01*
X124749500Y-71871153D01*
X124749500Y-72028846D01*
X124780261Y-72183489D01*
X124780264Y-72183501D01*
X124840602Y-72329172D01*
X124840609Y-72329185D01*
X124928210Y-72460288D01*
X124928213Y-72460292D01*
X125039710Y-72571789D01*
X125151118Y-72646229D01*
X125195923Y-72699841D01*
X125204630Y-72769166D01*
X125174476Y-72832193D01*
X125169909Y-72837012D01*
X125078543Y-72928378D01*
X124990942Y-73059481D01*
X124990935Y-73059494D01*
X124930597Y-73205165D01*
X124930594Y-73205177D01*
X124899833Y-73359820D01*
X124899833Y-73517513D01*
X124930594Y-73672156D01*
X124930597Y-73672168D01*
X124990935Y-73817839D01*
X124990942Y-73817852D01*
X125078543Y-73948955D01*
X125078546Y-73948959D01*
X125190040Y-74060453D01*
X125190044Y-74060456D01*
X125321147Y-74148057D01*
X125321160Y-74148064D01*
X125466831Y-74208402D01*
X125466836Y-74208404D01*
X125621486Y-74239166D01*
X125621489Y-74239167D01*
X125759528Y-74239167D01*
X125826567Y-74258852D01*
X125870013Y-74306872D01*
X125887715Y-74341613D01*
X126008028Y-74507213D01*
X126152786Y-74651971D01*
X126307749Y-74764556D01*
X126318390Y-74772287D01*
X126402313Y-74815048D01*
X126411080Y-74819515D01*
X126461876Y-74867490D01*
X126478671Y-74935311D01*
X126456134Y-75001446D01*
X126411080Y-75040485D01*
X126318386Y-75087715D01*
X126152781Y-75208033D01*
X126152774Y-75208038D01*
X126115648Y-75245164D01*
X126054324Y-75278648D01*
X125984633Y-75273662D01*
X125959080Y-75260584D01*
X125929187Y-75240611D01*
X125929183Y-75240609D01*
X125929179Y-75240606D01*
X125929175Y-75240604D01*
X125929171Y-75240602D01*
X125783501Y-75180264D01*
X125783489Y-75180261D01*
X125628845Y-75149500D01*
X125628842Y-75149500D01*
X125471158Y-75149500D01*
X125471155Y-75149500D01*
X125316510Y-75180261D01*
X125316498Y-75180264D01*
X125170827Y-75240602D01*
X125170814Y-75240609D01*
X125039711Y-75328210D01*
X125039707Y-75328213D01*
X124928213Y-75439707D01*
X124928210Y-75439711D01*
X124840609Y-75570814D01*
X124840602Y-75570827D01*
X124780264Y-75716498D01*
X124780261Y-75716510D01*
X124749500Y-75871153D01*
X124749500Y-76028846D01*
X124780261Y-76183489D01*
X124780264Y-76183501D01*
X124840602Y-76329172D01*
X124840609Y-76329185D01*
X124928210Y-76460288D01*
X124928213Y-76460292D01*
X125039707Y-76571786D01*
X125039711Y-76571789D01*
X125170813Y-76659389D01*
X125170815Y-76659390D01*
X125170821Y-76659394D01*
X125170827Y-76659396D01*
X125173812Y-76660992D01*
X125175089Y-76662247D01*
X125175886Y-76662779D01*
X125175785Y-76662929D01*
X125223661Y-76709950D01*
X125239128Y-76778086D01*
X125229930Y-76817808D01*
X125195264Y-76901498D01*
X125195261Y-76901510D01*
X125164500Y-77056153D01*
X125164500Y-77213846D01*
X125195261Y-77368489D01*
X125195264Y-77368501D01*
X125255602Y-77514172D01*
X125255609Y-77514185D01*
X125298719Y-77578703D01*
X125299556Y-77581378D01*
X125301628Y-77583269D01*
X125309937Y-77614531D01*
X125319597Y-77645381D01*
X125318855Y-77648083D01*
X125319576Y-77650794D01*
X125309666Y-77681578D01*
X125301112Y-77712761D01*
X125298763Y-77715449D01*
X125298167Y-77717303D01*
X125290504Y-77724904D01*
X125274374Y-77743372D01*
X125269623Y-77747278D01*
X125175290Y-77810310D01*
X125093482Y-77892117D01*
X125088823Y-77895949D01*
X125062003Y-77907369D01*
X125036424Y-77921337D01*
X125030241Y-77920894D01*
X125024539Y-77923323D01*
X124995809Y-77918432D01*
X124966732Y-77916353D01*
X124957193Y-77911858D01*
X124955661Y-77911598D01*
X124954616Y-77910644D01*
X124948067Y-77907559D01*
X124912485Y-77887016D01*
X124912486Y-77887016D01*
X124877482Y-77877637D01*
X124772475Y-77849500D01*
X124772472Y-77849500D01*
X123632940Y-77849500D01*
X123565901Y-77829815D01*
X123545258Y-77813180D01*
X123510292Y-77778213D01*
X123510288Y-77778210D01*
X123379185Y-77690609D01*
X123379172Y-77690602D01*
X123233501Y-77630264D01*
X123233489Y-77630261D01*
X123078845Y-77599500D01*
X123078842Y-77599500D01*
X122921158Y-77599500D01*
X122921155Y-77599500D01*
X122766510Y-77630261D01*
X122766498Y-77630264D01*
X122620827Y-77690602D01*
X122620816Y-77690608D01*
X122576924Y-77719936D01*
X122510246Y-77740813D01*
X122442866Y-77722328D01*
X122420353Y-77704514D01*
X122344052Y-77628213D01*
X122344048Y-77628210D01*
X122212945Y-77540609D01*
X122212932Y-77540602D01*
X122067261Y-77480264D01*
X122067249Y-77480261D01*
X121912605Y-77449500D01*
X121912602Y-77449500D01*
X121754918Y-77449500D01*
X121754915Y-77449500D01*
X121600270Y-77480261D01*
X121600258Y-77480264D01*
X121454587Y-77540602D01*
X121454574Y-77540609D01*
X121323471Y-77628210D01*
X121323467Y-77628213D01*
X121211973Y-77739707D01*
X121211970Y-77739711D01*
X121124369Y-77870814D01*
X121124362Y-77870827D01*
X121064024Y-78016498D01*
X121064021Y-78016510D01*
X121033260Y-78171153D01*
X121033260Y-78328846D01*
X121064021Y-78483489D01*
X121064024Y-78483501D01*
X121124362Y-78629172D01*
X121124369Y-78629185D01*
X121211970Y-78760288D01*
X121211973Y-78760292D01*
X121323467Y-78871786D01*
X121323471Y-78871789D01*
X121454574Y-78959390D01*
X121454587Y-78959397D01*
X121600258Y-79019735D01*
X121600263Y-79019737D01*
X121724925Y-79044534D01*
X121754913Y-79050499D01*
X121754916Y-79050500D01*
X121754918Y-79050500D01*
X121912604Y-79050500D01*
X121912605Y-79050499D01*
X122067257Y-79019737D01*
X122212939Y-78959394D01*
X122212944Y-78959390D01*
X122212947Y-78959389D01*
X122256833Y-78930065D01*
X122323510Y-78909186D01*
X122390890Y-78927670D01*
X122413406Y-78945485D01*
X122489707Y-79021786D01*
X122489711Y-79021789D01*
X122620814Y-79109390D01*
X122620827Y-79109397D01*
X122766498Y-79169735D01*
X122766503Y-79169737D01*
X122921153Y-79200499D01*
X122921156Y-79200500D01*
X122921158Y-79200500D01*
X123078844Y-79200500D01*
X123078845Y-79200499D01*
X123233497Y-79169737D01*
X123379179Y-79109394D01*
X123510289Y-79021789D01*
X123545258Y-78986820D01*
X123606580Y-78953334D01*
X123632940Y-78950500D01*
X124420613Y-78950500D01*
X124487652Y-78970185D01*
X124508294Y-78986819D01*
X125113181Y-79591706D01*
X125146666Y-79653029D01*
X125149500Y-79679387D01*
X125149500Y-79728846D01*
X125180261Y-79883489D01*
X125180264Y-79883501D01*
X125240605Y-80029179D01*
X125243221Y-80034073D01*
X125257460Y-80102476D01*
X125232456Y-80167719D01*
X125221542Y-80180202D01*
X125119156Y-80282588D01*
X125031555Y-80413691D01*
X125031548Y-80413704D01*
X124971210Y-80559375D01*
X124971207Y-80559387D01*
X124940446Y-80714030D01*
X124940446Y-80871723D01*
X124971207Y-81026366D01*
X124971210Y-81026378D01*
X125031548Y-81172049D01*
X125031555Y-81172062D01*
X125119156Y-81303165D01*
X125119159Y-81303169D01*
X125122809Y-81306819D01*
X125156294Y-81368142D01*
X125151310Y-81437834D01*
X125109438Y-81493767D01*
X125043974Y-81518184D01*
X125035128Y-81518500D01*
X123764958Y-81518500D01*
X123703203Y-81535047D01*
X123633353Y-81533384D01*
X123575491Y-81494220D01*
X123575259Y-81493938D01*
X123571789Y-81489710D01*
X123460292Y-81378213D01*
X123460288Y-81378210D01*
X123329185Y-81290609D01*
X123329172Y-81290602D01*
X123183501Y-81230264D01*
X123183489Y-81230261D01*
X123028845Y-81199500D01*
X123028842Y-81199500D01*
X122871158Y-81199500D01*
X122871155Y-81199500D01*
X122716510Y-81230261D01*
X122716498Y-81230264D01*
X122570827Y-81290602D01*
X122570814Y-81290609D01*
X122439711Y-81378210D01*
X122439707Y-81378213D01*
X122404742Y-81413180D01*
X122377811Y-81427885D01*
X122351995Y-81444477D01*
X122345796Y-81445368D01*
X122343420Y-81446666D01*
X122317060Y-81449500D01*
X122151302Y-81449500D01*
X122084263Y-81429815D01*
X122038508Y-81377011D01*
X122028564Y-81307853D01*
X122036741Y-81278048D01*
X122074706Y-81186392D01*
X122099386Y-81126808D01*
X122130149Y-80972153D01*
X122130149Y-80814469D01*
X122130149Y-80814466D01*
X122130148Y-80814464D01*
X122119630Y-80761585D01*
X122099386Y-80659814D01*
X122099384Y-80659809D01*
X122039046Y-80514138D01*
X122039039Y-80514125D01*
X121951438Y-80383022D01*
X121951435Y-80383018D01*
X121839941Y-80271524D01*
X121839937Y-80271521D01*
X121708834Y-80183920D01*
X121708821Y-80183913D01*
X121563150Y-80123575D01*
X121563138Y-80123572D01*
X121408494Y-80092811D01*
X121408491Y-80092811D01*
X121250807Y-80092811D01*
X121250804Y-80092811D01*
X121096159Y-80123572D01*
X121096147Y-80123575D01*
X120950476Y-80183913D01*
X120950463Y-80183920D01*
X120819360Y-80271521D01*
X120819356Y-80271524D01*
X120707862Y-80383018D01*
X120707859Y-80383022D01*
X120620258Y-80514125D01*
X120620251Y-80514138D01*
X120559913Y-80659809D01*
X120559910Y-80659821D01*
X120529149Y-80814464D01*
X120529149Y-80972157D01*
X120559910Y-81126800D01*
X120559913Y-81126812D01*
X120620251Y-81272483D01*
X120620258Y-81272496D01*
X120707859Y-81403599D01*
X120707862Y-81403603D01*
X120742829Y-81438569D01*
X120776315Y-81499891D01*
X120779149Y-81526251D01*
X120779149Y-81602124D01*
X120803717Y-81693811D01*
X120816665Y-81742134D01*
X120852747Y-81804630D01*
X120889138Y-81867662D01*
X120889140Y-81867665D01*
X121221317Y-82199842D01*
X121254802Y-82261165D01*
X121249818Y-82330857D01*
X121207946Y-82386790D01*
X121142482Y-82411207D01*
X121086184Y-82402084D01*
X121033501Y-82380262D01*
X121033489Y-82380259D01*
X120878845Y-82349498D01*
X120878842Y-82349498D01*
X120721158Y-82349498D01*
X120721155Y-82349498D01*
X120566510Y-82380259D01*
X120566498Y-82380262D01*
X120420827Y-82440600D01*
X120420814Y-82440607D01*
X120289711Y-82528208D01*
X120289707Y-82528211D01*
X120178213Y-82639705D01*
X120178210Y-82639709D01*
X120090609Y-82770812D01*
X120090602Y-82770825D01*
X120030264Y-82916496D01*
X120030261Y-82916507D01*
X120029670Y-82919479D01*
X120028931Y-82920890D01*
X120028494Y-82922333D01*
X120028220Y-82922249D01*
X119997281Y-82981388D01*
X119936564Y-83015959D01*
X119866794Y-83012215D01*
X119810125Y-82971346D01*
X119804952Y-82964172D01*
X119721789Y-82839711D01*
X119721786Y-82839707D01*
X119610292Y-82728213D01*
X119610288Y-82728210D01*
X119479185Y-82640609D01*
X119479172Y-82640602D01*
X119333501Y-82580264D01*
X119333489Y-82580261D01*
X119178845Y-82549500D01*
X119178842Y-82549500D01*
X119174500Y-82549500D01*
X119107461Y-82529815D01*
X119061706Y-82477011D01*
X119050500Y-82425500D01*
X119050500Y-80897176D01*
X119070185Y-80830137D01*
X119086820Y-80809494D01*
X119141602Y-80754712D01*
X119141605Y-80754709D01*
X119229210Y-80623599D01*
X119239654Y-80598386D01*
X119274555Y-80514125D01*
X119289553Y-80477917D01*
X119320316Y-80323262D01*
X119320316Y-80165578D01*
X119320316Y-80165575D01*
X119320315Y-80165573D01*
X119311785Y-80122690D01*
X119289553Y-80010923D01*
X119285278Y-80000602D01*
X119229213Y-79865247D01*
X119229206Y-79865234D01*
X119141605Y-79734131D01*
X119141602Y-79734127D01*
X119030108Y-79622633D01*
X119030104Y-79622630D01*
X118899001Y-79535029D01*
X118898988Y-79535022D01*
X118753317Y-79474684D01*
X118753305Y-79474681D01*
X118598661Y-79443920D01*
X118598658Y-79443920D01*
X118440974Y-79443920D01*
X118440971Y-79443920D01*
X118286326Y-79474681D01*
X118286314Y-79474684D01*
X118140643Y-79535022D01*
X118140630Y-79535029D01*
X118009527Y-79622630D01*
X118009523Y-79622633D01*
X117903777Y-79728380D01*
X117842454Y-79761865D01*
X117810067Y-79763748D01*
X117810067Y-79764106D01*
X117646289Y-79764106D01*
X117491644Y-79794867D01*
X117491632Y-79794870D01*
X117345961Y-79855208D01*
X117345948Y-79855215D01*
X117214845Y-79942816D01*
X117214841Y-79942819D01*
X117103347Y-80054313D01*
X117103344Y-80054317D01*
X117015743Y-80185420D01*
X117015736Y-80185433D01*
X116955398Y-80331104D01*
X116955395Y-80331116D01*
X116924634Y-80485759D01*
X116924634Y-80643452D01*
X116955395Y-80798095D01*
X116955398Y-80798107D01*
X117015736Y-80943778D01*
X117015743Y-80943791D01*
X117103344Y-81074894D01*
X117103347Y-81074898D01*
X117214841Y-81186392D01*
X117214845Y-81186395D01*
X117345948Y-81273996D01*
X117345961Y-81274003D01*
X117491632Y-81334341D01*
X117491637Y-81334343D01*
X117600765Y-81356050D01*
X117646287Y-81365105D01*
X117646290Y-81365106D01*
X117725500Y-81365106D01*
X117792539Y-81384791D01*
X117838294Y-81437595D01*
X117849500Y-81489106D01*
X117849500Y-82542297D01*
X117829815Y-82609336D01*
X117777011Y-82655091D01*
X117707853Y-82665035D01*
X117701309Y-82663914D01*
X117628845Y-82649500D01*
X117628842Y-82649500D01*
X117471158Y-82649500D01*
X117471155Y-82649500D01*
X117316511Y-82680260D01*
X117316501Y-82680263D01*
X117273967Y-82697881D01*
X117204497Y-82705348D01*
X117142019Y-82674072D01*
X117138836Y-82671000D01*
X117079311Y-82611475D01*
X117079307Y-82611472D01*
X116948204Y-82523871D01*
X116948191Y-82523864D01*
X116802520Y-82463526D01*
X116802508Y-82463523D01*
X116647864Y-82432762D01*
X116647861Y-82432762D01*
X116490177Y-82432762D01*
X116490174Y-82432762D01*
X116335529Y-82463523D01*
X116335517Y-82463526D01*
X116189846Y-82523864D01*
X116189833Y-82523871D01*
X116058730Y-82611472D01*
X116058725Y-82611476D01*
X116015698Y-82654503D01*
X115954375Y-82687987D01*
X115884683Y-82683002D01*
X115828750Y-82641130D01*
X115804334Y-82575666D01*
X115813456Y-82519371D01*
X115869737Y-82383497D01*
X115900500Y-82228842D01*
X115900500Y-82071158D01*
X115900500Y-82071155D01*
X115900499Y-82071153D01*
X115878710Y-81961613D01*
X115869737Y-81916503D01*
X115869735Y-81916498D01*
X115809397Y-81770827D01*
X115809390Y-81770814D01*
X115721789Y-81639711D01*
X115721786Y-81639707D01*
X115610292Y-81528213D01*
X115610288Y-81528210D01*
X115479185Y-81440609D01*
X115479172Y-81440602D01*
X115333501Y-81380264D01*
X115333489Y-81380261D01*
X115178845Y-81349500D01*
X115178842Y-81349500D01*
X115021158Y-81349500D01*
X115021155Y-81349500D01*
X114866510Y-81380261D01*
X114866498Y-81380264D01*
X114720827Y-81440602D01*
X114720814Y-81440609D01*
X114589711Y-81528210D01*
X114589707Y-81528213D01*
X114478213Y-81639707D01*
X114478210Y-81639711D01*
X114390609Y-81770814D01*
X114390602Y-81770827D01*
X114330264Y-81916498D01*
X114330261Y-81916510D01*
X114299500Y-82071153D01*
X114299500Y-82228846D01*
X114330261Y-82383489D01*
X114330264Y-82383501D01*
X114390602Y-82529172D01*
X114390609Y-82529185D01*
X114478210Y-82660288D01*
X114478213Y-82660292D01*
X114589707Y-82771786D01*
X114589711Y-82771789D01*
X114720814Y-82859390D01*
X114720827Y-82859397D01*
X114858705Y-82916507D01*
X114866503Y-82919737D01*
X114998455Y-82945984D01*
X115021153Y-82950499D01*
X115021156Y-82950500D01*
X115021158Y-82950500D01*
X115178844Y-82950500D01*
X115178845Y-82950499D01*
X115333497Y-82919737D01*
X115479179Y-82859394D01*
X115610289Y-82771789D01*
X115653318Y-82728760D01*
X115714641Y-82695274D01*
X115784332Y-82700258D01*
X115840266Y-82742129D01*
X115864684Y-82807593D01*
X115855561Y-82863892D01*
X115799283Y-82999760D01*
X115799280Y-82999772D01*
X115768519Y-83154415D01*
X115768519Y-83312108D01*
X115799280Y-83466751D01*
X115799283Y-83466763D01*
X115859621Y-83612434D01*
X115859628Y-83612447D01*
X115947229Y-83743550D01*
X115947232Y-83743554D01*
X116058726Y-83855048D01*
X116058730Y-83855051D01*
X116189833Y-83942652D01*
X116189846Y-83942659D01*
X116274956Y-83977912D01*
X116335522Y-84002999D01*
X116490172Y-84033761D01*
X116490175Y-84033762D01*
X116490177Y-84033762D01*
X116647863Y-84033762D01*
X116647864Y-84033761D01*
X116802516Y-84002999D01*
X116845050Y-83985380D01*
X116914517Y-83977912D01*
X116976996Y-84009186D01*
X116980182Y-84012261D01*
X117039707Y-84071786D01*
X117039711Y-84071789D01*
X117170814Y-84159390D01*
X117170827Y-84159397D01*
X117301419Y-84213489D01*
X117316503Y-84219737D01*
X117433363Y-84242982D01*
X117471153Y-84250499D01*
X117471156Y-84250500D01*
X117471158Y-84250500D01*
X117628843Y-84250500D01*
X117644564Y-84247372D01*
X117701309Y-84236085D01*
X117770899Y-84242312D01*
X117826077Y-84285174D01*
X117849322Y-84351063D01*
X117849500Y-84357702D01*
X117849500Y-86627097D01*
X117829815Y-86694136D01*
X117777011Y-86739891D01*
X117707853Y-86749835D01*
X117644297Y-86720810D01*
X117620927Y-86693734D01*
X117615091Y-86684576D01*
X117609394Y-86670821D01*
X117543164Y-86571702D01*
X117542423Y-86570538D01*
X117533066Y-86538213D01*
X117523016Y-86506114D01*
X117523316Y-86504527D01*
X117522997Y-86503423D01*
X117524454Y-86498529D01*
X117532434Y-86456451D01*
X117567521Y-86371744D01*
X117598284Y-86217089D01*
X117598284Y-86059405D01*
X117598284Y-86059402D01*
X117598283Y-86059400D01*
X117578390Y-85959394D01*
X117567521Y-85904750D01*
X117549307Y-85860776D01*
X117507181Y-85759074D01*
X117507174Y-85759061D01*
X117419573Y-85627958D01*
X117419570Y-85627954D01*
X117308076Y-85516460D01*
X117308072Y-85516457D01*
X117176969Y-85428856D01*
X117176956Y-85428849D01*
X117031285Y-85368511D01*
X117031273Y-85368508D01*
X116876629Y-85337747D01*
X116876626Y-85337747D01*
X116718942Y-85337747D01*
X116718939Y-85337747D01*
X116564294Y-85368508D01*
X116564282Y-85368511D01*
X116418611Y-85428849D01*
X116418598Y-85428856D01*
X116287495Y-85516457D01*
X116287491Y-85516460D01*
X116175997Y-85627954D01*
X116175994Y-85627958D01*
X116088393Y-85759061D01*
X116088386Y-85759074D01*
X116028048Y-85904745D01*
X116028045Y-85904757D01*
X115997284Y-86059400D01*
X115997284Y-86217093D01*
X116028045Y-86371736D01*
X116028048Y-86371748D01*
X116088386Y-86517419D01*
X116088396Y-86517437D01*
X116153889Y-86615455D01*
X116174767Y-86682132D01*
X116165349Y-86731796D01*
X116130263Y-86816503D01*
X116130261Y-86816510D01*
X116099500Y-86971153D01*
X116099500Y-87128846D01*
X116130261Y-87283489D01*
X116130264Y-87283501D01*
X116190602Y-87429172D01*
X116190609Y-87429185D01*
X116278210Y-87560288D01*
X116278213Y-87560292D01*
X116389707Y-87671786D01*
X116389711Y-87671789D01*
X116520814Y-87759390D01*
X116520827Y-87759397D01*
X116646011Y-87811249D01*
X116666503Y-87819737D01*
X116814356Y-87849147D01*
X116821153Y-87850499D01*
X116821156Y-87850500D01*
X116821158Y-87850500D01*
X116978844Y-87850500D01*
X116978845Y-87850499D01*
X117133497Y-87819737D01*
X117279179Y-87759394D01*
X117410289Y-87671789D01*
X117521789Y-87560289D01*
X117609394Y-87429179D01*
X117612719Y-87421153D01*
X117641376Y-87351966D01*
X117669737Y-87283497D01*
X117684911Y-87207213D01*
X117691846Y-87172350D01*
X117724231Y-87110439D01*
X117784946Y-87075865D01*
X117854716Y-87079604D01*
X117911388Y-87120471D01*
X117920846Y-87134535D01*
X117942678Y-87172350D01*
X117969477Y-87218769D01*
X117969481Y-87218774D01*
X118088349Y-87337642D01*
X118088355Y-87337647D01*
X118988180Y-88237472D01*
X119021665Y-88298795D01*
X119024499Y-88325153D01*
X119024499Y-88894208D01*
X119004814Y-88961247D01*
X118952010Y-89007002D01*
X118900499Y-89018208D01*
X118102480Y-89018208D01*
X118035441Y-88998523D01*
X118014803Y-88981893D01*
X117915326Y-88882416D01*
X117915325Y-88882415D01*
X117915324Y-88882414D01*
X117784222Y-88794814D01*
X117784209Y-88794807D01*
X117638538Y-88734469D01*
X117638526Y-88734466D01*
X117483882Y-88703705D01*
X117483879Y-88703705D01*
X117326195Y-88703705D01*
X117326192Y-88703705D01*
X117171547Y-88734466D01*
X117171535Y-88734469D01*
X117025864Y-88794807D01*
X117025851Y-88794814D01*
X116894748Y-88882415D01*
X116894744Y-88882418D01*
X116783250Y-88993912D01*
X116783247Y-88993916D01*
X116695646Y-89125019D01*
X116695639Y-89125032D01*
X116635301Y-89270703D01*
X116635298Y-89270715D01*
X116604537Y-89425358D01*
X116604537Y-89583051D01*
X116635298Y-89737694D01*
X116635301Y-89737706D01*
X116667394Y-89815185D01*
X116674863Y-89884654D01*
X116643588Y-89947133D01*
X116583499Y-89982785D01*
X116513674Y-89980291D01*
X116456281Y-89940443D01*
X116449731Y-89931528D01*
X116421789Y-89889711D01*
X116421786Y-89889707D01*
X116310292Y-89778213D01*
X116310288Y-89778210D01*
X116179185Y-89690609D01*
X116179172Y-89690602D01*
X116033501Y-89630264D01*
X116033489Y-89630261D01*
X115878845Y-89599500D01*
X115878842Y-89599500D01*
X115721158Y-89599500D01*
X115721155Y-89599500D01*
X115566510Y-89630261D01*
X115566498Y-89630264D01*
X115420827Y-89690602D01*
X115420814Y-89690609D01*
X115289711Y-89778210D01*
X115289707Y-89778213D01*
X115178213Y-89889707D01*
X115178210Y-89889711D01*
X115090609Y-90020814D01*
X115090602Y-90020827D01*
X115030264Y-90166498D01*
X115030261Y-90166510D01*
X114999500Y-90321153D01*
X114999500Y-90478846D01*
X115030261Y-90633489D01*
X115030264Y-90633501D01*
X115090602Y-90779172D01*
X115090609Y-90779185D01*
X115178210Y-90910288D01*
X115178213Y-90910292D01*
X115289707Y-91021786D01*
X115289711Y-91021789D01*
X115420814Y-91109390D01*
X115420827Y-91109397D01*
X115520060Y-91150500D01*
X115566503Y-91169737D01*
X115721153Y-91200499D01*
X115721156Y-91200500D01*
X115721158Y-91200500D01*
X115878844Y-91200500D01*
X115878845Y-91200499D01*
X116033497Y-91169737D01*
X116179179Y-91109394D01*
X116310289Y-91021789D01*
X116311186Y-91020891D01*
X116311773Y-91020571D01*
X116314999Y-91017924D01*
X116315500Y-91018535D01*
X116372504Y-90987402D01*
X116442196Y-90992380D01*
X116498134Y-91034246D01*
X116520491Y-91084374D01*
X116530261Y-91133491D01*
X116530264Y-91133501D01*
X116590602Y-91279172D01*
X116590609Y-91279185D01*
X116678210Y-91410288D01*
X116678213Y-91410292D01*
X116789707Y-91521786D01*
X116789711Y-91521789D01*
X116920814Y-91609390D01*
X116920827Y-91609397D01*
X117058683Y-91666498D01*
X117066503Y-91669737D01*
X117221153Y-91700499D01*
X117221156Y-91700500D01*
X117221158Y-91700500D01*
X117378844Y-91700500D01*
X117378845Y-91700499D01*
X117533497Y-91669737D01*
X117679179Y-91609394D01*
X117810289Y-91521789D01*
X117921789Y-91410289D01*
X118009394Y-91279179D01*
X118069737Y-91133497D01*
X118096099Y-91000965D01*
X118128483Y-90939055D01*
X118189199Y-90904481D01*
X118258968Y-90908220D01*
X118305397Y-90937476D01*
X118339707Y-90971786D01*
X118339711Y-90971789D01*
X118470814Y-91059390D01*
X118470818Y-91059392D01*
X118470821Y-91059394D01*
X118602553Y-91113959D01*
X118656953Y-91157797D01*
X118679019Y-91224091D01*
X118661740Y-91291790D01*
X118627984Y-91328835D01*
X118522496Y-91405478D01*
X118522487Y-91405485D01*
X118355485Y-91572487D01*
X118355485Y-91572488D01*
X118355483Y-91572490D01*
X118310463Y-91634455D01*
X118216657Y-91763566D01*
X118109433Y-91974003D01*
X118036446Y-92198631D01*
X117999500Y-92431902D01*
X117999500Y-92668097D01*
X118036446Y-92901368D01*
X118109433Y-93125996D01*
X118197271Y-93298386D01*
X118216657Y-93336433D01*
X118355483Y-93527510D01*
X118522490Y-93694517D01*
X118713567Y-93833343D01*
X118812991Y-93884002D01*
X118924003Y-93940566D01*
X118924005Y-93940566D01*
X118924008Y-93940568D01*
X119003849Y-93966510D01*
X119148631Y-94013553D01*
X119381903Y-94050500D01*
X119381908Y-94050500D01*
X119618097Y-94050500D01*
X119851368Y-94013553D01*
X120075992Y-93940568D01*
X120286433Y-93833343D01*
X120477510Y-93694517D01*
X120644517Y-93527510D01*
X120783343Y-93336433D01*
X120890568Y-93125992D01*
X120963553Y-92901368D01*
X120980561Y-92793980D01*
X121010490Y-92730846D01*
X121069801Y-92693914D01*
X121127224Y-92691761D01*
X121159031Y-92698087D01*
X121171157Y-92700500D01*
X121171158Y-92700500D01*
X121328844Y-92700500D01*
X121328845Y-92700499D01*
X121483497Y-92669737D01*
X121629179Y-92609394D01*
X121760289Y-92521789D01*
X121871789Y-92410289D01*
X121959394Y-92279179D01*
X121962719Y-92271153D01*
X122019735Y-92133501D01*
X122019737Y-92133497D01*
X122050500Y-91978842D01*
X122050500Y-91821158D01*
X122050500Y-91821155D01*
X122050499Y-91821153D01*
X122039044Y-91763566D01*
X122019737Y-91666503D01*
X122006463Y-91634456D01*
X121959397Y-91520827D01*
X121959390Y-91520814D01*
X121871789Y-91389711D01*
X121871786Y-91389707D01*
X121760292Y-91278213D01*
X121760288Y-91278210D01*
X121629185Y-91190609D01*
X121629172Y-91190602D01*
X121483501Y-91130264D01*
X121483489Y-91130261D01*
X121322868Y-91098311D01*
X121323346Y-91095906D01*
X121268547Y-91073750D01*
X121242431Y-91045434D01*
X121171789Y-90939710D01*
X121090113Y-90858034D01*
X121089691Y-90857262D01*
X121088925Y-90856830D01*
X121072980Y-90826657D01*
X121056628Y-90796711D01*
X121056554Y-90795575D01*
X121056280Y-90795056D01*
X121056271Y-90791205D01*
X121054242Y-90759821D01*
X121054828Y-90752942D01*
X121060951Y-90722163D01*
X121060951Y-90681115D01*
X121061399Y-90675860D01*
X121072221Y-90648009D01*
X121080636Y-90619353D01*
X121084738Y-90615798D01*
X121086706Y-90610735D01*
X121110869Y-90593155D01*
X121133440Y-90573598D01*
X121138813Y-90572825D01*
X121143206Y-90569630D01*
X121173033Y-90567905D01*
X121202598Y-90563654D01*
X121207537Y-90565909D01*
X121212959Y-90565596D01*
X121238980Y-90580269D01*
X121266154Y-90592679D01*
X121272632Y-90598711D01*
X121295707Y-90621786D01*
X121295711Y-90621789D01*
X121426814Y-90709390D01*
X121426827Y-90709397D01*
X121548563Y-90759821D01*
X121572503Y-90769737D01*
X121702399Y-90795575D01*
X121727153Y-90800499D01*
X121727156Y-90800500D01*
X121727158Y-90800500D01*
X121884844Y-90800500D01*
X121884845Y-90800499D01*
X122039497Y-90769737D01*
X122185179Y-90709394D01*
X122287235Y-90641201D01*
X122353910Y-90620325D01*
X122421290Y-90638809D01*
X122459226Y-90675414D01*
X122534516Y-90788093D01*
X122534519Y-90788097D01*
X122646013Y-90899591D01*
X122646017Y-90899594D01*
X122777120Y-90987195D01*
X122777133Y-90987202D01*
X122917720Y-91045434D01*
X122922809Y-91047542D01*
X123039840Y-91070821D01*
X123077459Y-91078304D01*
X123077462Y-91078305D01*
X123077464Y-91078305D01*
X123235150Y-91078305D01*
X123235151Y-91078304D01*
X123389803Y-91047542D01*
X123535485Y-90987199D01*
X123666595Y-90899594D01*
X123778095Y-90788094D01*
X123865700Y-90656984D01*
X123926043Y-90511302D01*
X123956806Y-90356647D01*
X123956806Y-90198963D01*
X123956806Y-90198960D01*
X123956805Y-90198958D01*
X123938159Y-90105220D01*
X123926043Y-90044308D01*
X123921562Y-90033489D01*
X123865703Y-89898632D01*
X123865696Y-89898619D01*
X123778095Y-89767516D01*
X123778092Y-89767512D01*
X123666598Y-89656018D01*
X123666594Y-89656015D01*
X123535491Y-89568414D01*
X123535478Y-89568407D01*
X123389807Y-89508069D01*
X123389795Y-89508066D01*
X123235151Y-89477305D01*
X123235148Y-89477305D01*
X123077464Y-89477305D01*
X123077461Y-89477305D01*
X122922816Y-89508066D01*
X122922804Y-89508069D01*
X122777133Y-89568407D01*
X122777120Y-89568414D01*
X122675072Y-89636601D01*
X122608394Y-89657479D01*
X122541014Y-89638994D01*
X122503079Y-89602390D01*
X122427789Y-89489711D01*
X122427786Y-89489707D01*
X122316292Y-89378213D01*
X122316288Y-89378210D01*
X122185185Y-89290609D01*
X122185172Y-89290602D01*
X122039501Y-89230264D01*
X122039489Y-89230261D01*
X121884845Y-89199500D01*
X121884842Y-89199500D01*
X121727158Y-89199500D01*
X121727155Y-89199500D01*
X121572510Y-89230261D01*
X121572498Y-89230264D01*
X121426827Y-89290602D01*
X121426814Y-89290609D01*
X121295711Y-89378210D01*
X121295707Y-89378213D01*
X121184213Y-89489707D01*
X121184210Y-89489711D01*
X121096609Y-89620814D01*
X121096602Y-89620827D01*
X121036264Y-89766498D01*
X121036261Y-89766510D01*
X121005500Y-89921153D01*
X121005500Y-89956929D01*
X120985815Y-90023968D01*
X120933011Y-90069723D01*
X120863853Y-90079667D01*
X120800297Y-90050642D01*
X120793819Y-90044610D01*
X120770743Y-90021534D01*
X120770739Y-90021531D01*
X120639636Y-89933930D01*
X120639627Y-89933925D01*
X120492377Y-89872933D01*
X120437974Y-89829092D01*
X120415909Y-89762798D01*
X120418213Y-89734180D01*
X120425499Y-89697552D01*
X120425499Y-89539863D01*
X120425498Y-89539861D01*
X120419174Y-89508068D01*
X120394736Y-89385211D01*
X120347306Y-89270703D01*
X120334396Y-89239535D01*
X120334389Y-89239522D01*
X120246397Y-89107833D01*
X120225519Y-89041155D01*
X120225499Y-89038942D01*
X120225499Y-88659777D01*
X120245184Y-88592738D01*
X120297988Y-88546983D01*
X120367146Y-88537039D01*
X120396945Y-88545214D01*
X120456876Y-88570038D01*
X120611526Y-88600800D01*
X120611529Y-88600801D01*
X120611531Y-88600801D01*
X120769217Y-88600801D01*
X120769218Y-88600800D01*
X120923870Y-88570038D01*
X121069552Y-88509695D01*
X121200662Y-88422090D01*
X121312162Y-88310590D01*
X121399767Y-88179480D01*
X121460110Y-88033798D01*
X121482625Y-87920608D01*
X121484525Y-87911058D01*
X121516910Y-87849147D01*
X121577625Y-87814573D01*
X121606142Y-87811249D01*
X121729481Y-87811249D01*
X121729482Y-87811248D01*
X121884134Y-87780486D01*
X122029816Y-87720143D01*
X122160926Y-87632538D01*
X122272426Y-87521038D01*
X122360031Y-87389928D01*
X122420374Y-87244246D01*
X122451137Y-87089591D01*
X122451137Y-86931907D01*
X122451137Y-86931904D01*
X122451136Y-86931902D01*
X122440911Y-86880499D01*
X122420374Y-86777252D01*
X122389684Y-86703159D01*
X122360034Y-86631576D01*
X122360032Y-86631572D01*
X122360031Y-86631570D01*
X122333131Y-86591311D01*
X122312253Y-86524634D01*
X122328685Y-86464730D01*
X122326975Y-86463816D01*
X122329840Y-86458454D01*
X122329844Y-86458449D01*
X122390187Y-86312767D01*
X122420950Y-86158112D01*
X122420950Y-86000428D01*
X122420950Y-86000425D01*
X122420949Y-86000423D01*
X122412787Y-85959390D01*
X122390187Y-85845773D01*
X122354779Y-85760289D01*
X122329847Y-85700097D01*
X122329840Y-85700084D01*
X122242239Y-85568981D01*
X122242236Y-85568977D01*
X122130742Y-85457483D01*
X122130738Y-85457480D01*
X121999635Y-85369879D01*
X121999622Y-85369872D01*
X121853951Y-85309534D01*
X121853939Y-85309531D01*
X121699295Y-85278770D01*
X121699292Y-85278770D01*
X121541608Y-85278770D01*
X121541605Y-85278770D01*
X121386960Y-85309531D01*
X121386948Y-85309534D01*
X121241277Y-85369872D01*
X121241264Y-85369879D01*
X121110161Y-85457480D01*
X121110157Y-85457483D01*
X120998663Y-85568977D01*
X120998660Y-85568981D01*
X120911059Y-85700084D01*
X120911052Y-85700097D01*
X120850714Y-85845768D01*
X120850711Y-85845780D01*
X120819950Y-86000423D01*
X120819950Y-86158116D01*
X120850711Y-86312759D01*
X120850714Y-86312771D01*
X120911052Y-86458442D01*
X120911059Y-86458455D01*
X120937955Y-86498707D01*
X120958833Y-86565384D01*
X120942402Y-86625280D01*
X120944116Y-86626196D01*
X120941239Y-86631577D01*
X120880901Y-86777247D01*
X120880898Y-86777259D01*
X120856485Y-86899992D01*
X120841774Y-86928115D01*
X120828581Y-86957004D01*
X120825691Y-86958861D01*
X120824100Y-86961903D01*
X120796517Y-86977609D01*
X120769803Y-86994778D01*
X120765208Y-86995438D01*
X120763385Y-86996477D01*
X120734868Y-86999801D01*
X120646201Y-86999801D01*
X120579162Y-86980116D01*
X120533407Y-86927312D01*
X120524584Y-86899992D01*
X120507976Y-86816503D01*
X120500737Y-86780108D01*
X120468864Y-86703159D01*
X120440397Y-86634432D01*
X120440390Y-86634419D01*
X120352789Y-86503316D01*
X120352786Y-86503312D01*
X120241292Y-86391818D01*
X120241288Y-86391815D01*
X120110185Y-86304214D01*
X120110172Y-86304207D01*
X119964501Y-86243869D01*
X119964489Y-86243866D01*
X119809845Y-86213105D01*
X119809842Y-86213105D01*
X119652158Y-86213105D01*
X119632109Y-86217093D01*
X119568155Y-86229814D01*
X119498563Y-86223586D01*
X119443386Y-86180722D01*
X119420142Y-86114832D01*
X119436210Y-86046835D01*
X119486490Y-85998320D01*
X119496492Y-85993643D01*
X119579179Y-85959394D01*
X119710289Y-85871789D01*
X119821789Y-85760289D01*
X119909394Y-85629179D01*
X119909902Y-85627954D01*
X119935669Y-85565746D01*
X119969737Y-85483497D01*
X120000500Y-85328842D01*
X120000500Y-85171158D01*
X120000500Y-85171155D01*
X120000499Y-85171153D01*
X119988025Y-85108443D01*
X119969737Y-85016503D01*
X119916023Y-84886825D01*
X119909397Y-84870827D01*
X119909390Y-84870814D01*
X119821789Y-84739711D01*
X119821786Y-84739707D01*
X119710292Y-84628213D01*
X119710288Y-84628210D01*
X119579185Y-84540609D01*
X119579172Y-84540602D01*
X119433501Y-84480264D01*
X119433489Y-84480261D01*
X119278845Y-84449500D01*
X119278842Y-84449500D01*
X119174500Y-84449500D01*
X119165814Y-84446949D01*
X119156853Y-84448238D01*
X119132812Y-84437259D01*
X119107461Y-84429815D01*
X119101533Y-84422974D01*
X119093297Y-84419213D01*
X119079007Y-84396978D01*
X119061706Y-84377011D01*
X119059418Y-84366496D01*
X119055523Y-84360435D01*
X119050500Y-84325500D01*
X119050500Y-84274500D01*
X119070185Y-84207461D01*
X119122989Y-84161706D01*
X119174500Y-84150500D01*
X119178844Y-84150500D01*
X119178845Y-84150499D01*
X119333497Y-84119737D01*
X119479179Y-84059394D01*
X119610289Y-83971789D01*
X119721789Y-83860289D01*
X119809394Y-83729179D01*
X119869737Y-83583497D01*
X119870326Y-83580532D01*
X119871063Y-83579124D01*
X119871506Y-83577665D01*
X119871782Y-83577748D01*
X119879344Y-83563289D01*
X119883653Y-83544311D01*
X119895203Y-83532966D01*
X119902707Y-83518620D01*
X119919616Y-83508989D01*
X119933501Y-83495353D01*
X119949351Y-83492054D01*
X119963420Y-83484042D01*
X119982853Y-83485082D01*
X120001906Y-83481117D01*
X120017021Y-83486910D01*
X120033190Y-83487776D01*
X120048976Y-83499158D01*
X120067147Y-83506123D01*
X120085008Y-83525138D01*
X120089864Y-83528639D01*
X120091878Y-83531303D01*
X120093520Y-83533538D01*
X120178211Y-83660287D01*
X120209943Y-83692019D01*
X120215527Y-83699620D01*
X120224355Y-83723958D01*
X120236760Y-83746675D01*
X120236074Y-83756263D01*
X120239353Y-83765302D01*
X120233622Y-83790545D01*
X120231776Y-83816367D01*
X120224561Y-83830464D01*
X120223886Y-83833438D01*
X120222183Y-83835110D01*
X120218696Y-83841924D01*
X120166372Y-83920231D01*
X120166365Y-83920244D01*
X120106027Y-84065915D01*
X120106024Y-84065927D01*
X120075263Y-84220570D01*
X120075263Y-84378263D01*
X120106024Y-84532906D01*
X120106027Y-84532918D01*
X120166365Y-84678589D01*
X120166372Y-84678602D01*
X120253973Y-84809705D01*
X120253976Y-84809709D01*
X120365470Y-84921203D01*
X120365474Y-84921206D01*
X120496577Y-85008807D01*
X120496590Y-85008814D01*
X120642261Y-85069152D01*
X120642266Y-85069154D01*
X120796916Y-85099916D01*
X120796919Y-85099917D01*
X120796921Y-85099917D01*
X120954607Y-85099917D01*
X120954608Y-85099916D01*
X121109260Y-85069154D01*
X121254942Y-85008811D01*
X121386052Y-84921206D01*
X121497552Y-84809706D01*
X121585157Y-84678596D01*
X121589870Y-84667219D01*
X121616971Y-84601789D01*
X121645500Y-84532914D01*
X121666008Y-84429815D01*
X121675856Y-84380308D01*
X121708241Y-84318397D01*
X121768957Y-84283823D01*
X121797473Y-84280499D01*
X122248908Y-84280499D01*
X122248910Y-84280499D01*
X122248911Y-84280499D01*
X122388921Y-84242983D01*
X122427733Y-84220575D01*
X122429185Y-84219737D01*
X122514444Y-84170513D01*
X122514443Y-84170513D01*
X122514451Y-84170509D01*
X122964226Y-83720733D01*
X123025548Y-83687249D01*
X123095239Y-83692233D01*
X123151173Y-83734104D01*
X123175590Y-83799569D01*
X123173523Y-83832606D01*
X123159888Y-83901153D01*
X123159888Y-84058846D01*
X123190649Y-84213489D01*
X123190652Y-84213501D01*
X123250990Y-84359172D01*
X123250997Y-84359185D01*
X123338598Y-84490288D01*
X123338601Y-84490292D01*
X123450095Y-84601786D01*
X123450099Y-84601789D01*
X123581202Y-84689390D01*
X123581215Y-84689397D01*
X123702676Y-84739707D01*
X123726891Y-84749737D01*
X123873211Y-84778842D01*
X123881541Y-84780499D01*
X123881544Y-84780500D01*
X123881546Y-84780500D01*
X124039232Y-84780500D01*
X124039233Y-84780499D01*
X124193885Y-84749737D01*
X124339567Y-84689394D01*
X124470677Y-84601789D01*
X124582177Y-84490289D01*
X124669782Y-84359179D01*
X124730125Y-84213497D01*
X124760888Y-84058842D01*
X124760888Y-83901158D01*
X124760888Y-83901155D01*
X124760887Y-83901153D01*
X124752759Y-83860292D01*
X124730125Y-83746503D01*
X124730123Y-83746498D01*
X124669785Y-83600827D01*
X124669778Y-83600814D01*
X124618003Y-83523327D01*
X124597125Y-83456649D01*
X124615610Y-83389269D01*
X124633420Y-83366758D01*
X124740890Y-83259289D01*
X124828495Y-83128179D01*
X124888838Y-82982497D01*
X124919601Y-82827842D01*
X124919601Y-82743500D01*
X124939286Y-82676461D01*
X124992090Y-82630706D01*
X125043601Y-82619500D01*
X125799548Y-82619500D01*
X125816334Y-82624429D01*
X125833829Y-82624333D01*
X125849162Y-82634068D01*
X125866587Y-82639185D01*
X125878185Y-82652495D01*
X125892814Y-82661784D01*
X125909071Y-82687942D01*
X125912058Y-82691370D01*
X125913126Y-82693676D01*
X125971707Y-82835103D01*
X125994372Y-82869024D01*
X125998425Y-82877771D01*
X126002220Y-82903177D01*
X126009895Y-82927689D01*
X126007296Y-82937159D01*
X126008748Y-82946874D01*
X125998205Y-82970298D01*
X125991410Y-82995069D01*
X125986234Y-83002786D01*
X125887712Y-83138390D01*
X125794781Y-83320776D01*
X125731522Y-83515465D01*
X125699500Y-83717648D01*
X125699500Y-83922351D01*
X125731522Y-84124534D01*
X125794781Y-84319223D01*
X125854924Y-84437259D01*
X125881946Y-84490292D01*
X125887715Y-84501613D01*
X126008028Y-84667213D01*
X126152786Y-84811971D01*
X126255816Y-84886825D01*
X126318390Y-84932287D01*
X126402313Y-84975048D01*
X126411080Y-84979515D01*
X126418633Y-84986649D01*
X126428395Y-84990212D01*
X126443601Y-85010230D01*
X126461876Y-85027490D01*
X126464373Y-85037575D01*
X126470659Y-85045850D01*
X126472628Y-85070912D01*
X126478671Y-85095311D01*
X126475319Y-85105145D01*
X126476134Y-85115505D01*
X126464242Y-85137651D01*
X126456134Y-85161446D01*
X126447118Y-85169543D01*
X126443081Y-85177062D01*
X126419655Y-85194208D01*
X126414976Y-85198411D01*
X126413030Y-85199491D01*
X126318390Y-85247713D01*
X126293152Y-85266048D01*
X126286551Y-85269714D01*
X126259528Y-85275791D01*
X126233433Y-85285101D01*
X126225914Y-85283352D01*
X126218384Y-85285046D01*
X126192362Y-85275548D01*
X126165380Y-85269273D01*
X126157469Y-85264405D01*
X126114261Y-85235534D01*
X126114248Y-85235527D01*
X125968577Y-85175189D01*
X125968565Y-85175186D01*
X125813921Y-85144425D01*
X125813918Y-85144425D01*
X125656234Y-85144425D01*
X125656231Y-85144425D01*
X125501586Y-85175186D01*
X125501574Y-85175189D01*
X125355903Y-85235527D01*
X125355890Y-85235534D01*
X125224787Y-85323135D01*
X125224783Y-85323138D01*
X125113289Y-85434632D01*
X125113286Y-85434636D01*
X125025685Y-85565739D01*
X125025678Y-85565752D01*
X124965340Y-85711423D01*
X124965337Y-85711435D01*
X124934576Y-85866078D01*
X124934576Y-86023771D01*
X124965337Y-86178414D01*
X124965340Y-86178426D01*
X125025678Y-86324097D01*
X125025685Y-86324110D01*
X125113286Y-86455213D01*
X125113289Y-86455217D01*
X125224783Y-86566711D01*
X125224787Y-86566714D01*
X125355890Y-86654315D01*
X125355903Y-86654322D01*
X125473808Y-86703159D01*
X125501579Y-86714662D01*
X125628413Y-86739891D01*
X125656229Y-86745424D01*
X125656232Y-86745425D01*
X125656234Y-86745425D01*
X125667715Y-86745425D01*
X125734754Y-86765110D01*
X125780509Y-86817914D01*
X125785646Y-86831106D01*
X125794781Y-86859223D01*
X125844604Y-86957004D01*
X125874521Y-87015720D01*
X125887715Y-87041613D01*
X126008028Y-87207213D01*
X126152786Y-87351971D01*
X126307749Y-87464556D01*
X126318390Y-87472287D01*
X126402313Y-87515048D01*
X126411080Y-87519515D01*
X126461876Y-87567490D01*
X126478671Y-87635311D01*
X126456134Y-87701446D01*
X126411080Y-87740485D01*
X126318386Y-87787715D01*
X126152786Y-87908028D01*
X126008028Y-88052786D01*
X125887715Y-88218386D01*
X125794781Y-88400776D01*
X125731522Y-88595465D01*
X125700123Y-88793713D01*
X125699500Y-88797648D01*
X125699500Y-89002352D01*
X125700580Y-89009172D01*
X125731522Y-89204534D01*
X125794781Y-89399223D01*
X125838578Y-89485178D01*
X125880989Y-89568414D01*
X125887715Y-89581613D01*
X126008028Y-89747213D01*
X126152786Y-89891971D01*
X126307749Y-90004556D01*
X126318390Y-90012287D01*
X126393666Y-90050642D01*
X126411080Y-90059515D01*
X126461876Y-90107490D01*
X126478671Y-90175311D01*
X126456134Y-90241446D01*
X126411080Y-90280485D01*
X126318386Y-90327715D01*
X126152786Y-90448028D01*
X126008028Y-90592786D01*
X125887715Y-90758386D01*
X125794781Y-90940776D01*
X125731522Y-91135465D01*
X125699500Y-91337648D01*
X125699500Y-91542351D01*
X125731522Y-91744534D01*
X125794781Y-91939223D01*
X125858691Y-92064653D01*
X125885114Y-92116510D01*
X125887715Y-92121613D01*
X126008028Y-92287213D01*
X126152786Y-92431971D01*
X126307749Y-92544556D01*
X126318390Y-92552287D01*
X126379651Y-92583501D01*
X126411080Y-92599515D01*
X126461876Y-92647490D01*
X126478671Y-92715311D01*
X126456134Y-92781446D01*
X126411080Y-92820485D01*
X126318386Y-92867715D01*
X126152786Y-92988028D01*
X126008028Y-93132786D01*
X125887715Y-93298386D01*
X125794781Y-93480776D01*
X125731522Y-93675465D01*
X125699500Y-93877648D01*
X125699500Y-94082351D01*
X125731522Y-94284534D01*
X125794781Y-94479223D01*
X125887715Y-94661613D01*
X126008028Y-94827213D01*
X126152786Y-94971971D01*
X126291828Y-95072989D01*
X126318390Y-95092287D01*
X126389299Y-95128417D01*
X126411080Y-95139515D01*
X126461876Y-95187490D01*
X126478671Y-95255311D01*
X126456134Y-95321446D01*
X126411080Y-95360485D01*
X126318386Y-95407715D01*
X126152786Y-95528028D01*
X126008028Y-95672786D01*
X125887715Y-95838386D01*
X125794781Y-96020776D01*
X125731522Y-96215465D01*
X125710515Y-96348100D01*
X125699500Y-96417648D01*
X125699500Y-96622352D01*
X125702275Y-96639872D01*
X125731522Y-96824534D01*
X125794781Y-97019223D01*
X125847377Y-97122446D01*
X125872518Y-97171789D01*
X125887715Y-97201613D01*
X126008028Y-97367213D01*
X126152786Y-97511971D01*
X126255816Y-97586825D01*
X126318390Y-97632287D01*
X126402313Y-97675048D01*
X126411080Y-97679515D01*
X126461876Y-97727490D01*
X126478671Y-97795311D01*
X126456134Y-97861446D01*
X126411080Y-97900485D01*
X126318386Y-97947715D01*
X126152786Y-98068028D01*
X126008028Y-98212786D01*
X125887715Y-98378386D01*
X125794781Y-98560776D01*
X125731522Y-98755465D01*
X125699500Y-98957648D01*
X125699500Y-99162351D01*
X125731522Y-99364534D01*
X125794781Y-99559223D01*
X125875972Y-99718568D01*
X125887713Y-99741610D01*
X125890800Y-99745859D01*
X125914282Y-99811664D01*
X125898459Y-99879718D01*
X125848355Y-99928415D01*
X125822585Y-99938520D01*
X125819218Y-99939422D01*
X125819209Y-99939426D01*
X125682290Y-100018475D01*
X125682282Y-100018481D01*
X125485337Y-100215426D01*
X125424014Y-100248911D01*
X125421848Y-100249362D01*
X125266508Y-100280261D01*
X125266498Y-100280264D01*
X125120827Y-100340602D01*
X125120814Y-100340609D01*
X124989711Y-100428210D01*
X124989707Y-100428213D01*
X124878213Y-100539707D01*
X124878210Y-100539711D01*
X124790609Y-100670814D01*
X124790602Y-100670827D01*
X124730264Y-100816498D01*
X124730261Y-100816510D01*
X124699500Y-100971153D01*
X124699500Y-101128846D01*
X124730261Y-101283489D01*
X124730264Y-101283501D01*
X124790602Y-101429172D01*
X124790609Y-101429185D01*
X124878210Y-101560288D01*
X124878213Y-101560292D01*
X124989707Y-101671786D01*
X124989711Y-101671789D01*
X125120814Y-101759390D01*
X125120827Y-101759397D01*
X125266498Y-101819735D01*
X125266503Y-101819737D01*
X125402311Y-101846751D01*
X125421153Y-101850499D01*
X125421156Y-101850500D01*
X125421158Y-101850500D01*
X125578842Y-101850500D01*
X125597687Y-101846751D01*
X125667276Y-101852975D01*
X125722456Y-101895835D01*
X125739813Y-101930048D01*
X125794781Y-102099223D01*
X125843696Y-102195222D01*
X125866820Y-102240606D01*
X125887715Y-102281613D01*
X126008028Y-102447213D01*
X126152786Y-102591971D01*
X126307749Y-102704556D01*
X126318390Y-102712287D01*
X126402319Y-102755051D01*
X126500776Y-102805218D01*
X126500778Y-102805218D01*
X126500781Y-102805220D01*
X126605137Y-102839127D01*
X126695465Y-102868477D01*
X126796557Y-102884488D01*
X126897648Y-102900500D01*
X126897649Y-102900500D01*
X127102351Y-102900500D01*
X127102352Y-102900500D01*
X127304534Y-102868477D01*
X127499219Y-102805220D01*
X127681610Y-102712287D01*
X127794726Y-102630104D01*
X127847213Y-102591971D01*
X127847215Y-102591968D01*
X127847219Y-102591966D01*
X127991966Y-102447219D01*
X127991968Y-102447215D01*
X127991971Y-102447213D01*
X128078428Y-102328213D01*
X128112287Y-102281610D01*
X128205220Y-102099219D01*
X128268477Y-101904534D01*
X128300500Y-101702352D01*
X128300500Y-101497648D01*
X128268477Y-101295466D01*
X128264673Y-101283760D01*
X128250370Y-101239738D01*
X128247204Y-101229997D01*
X128245209Y-101160158D01*
X128281289Y-101100325D01*
X128313944Y-101078740D01*
X128323207Y-101074540D01*
X128382785Y-101058577D01*
X128466479Y-101010256D01*
X128519716Y-100979520D01*
X128631520Y-100867716D01*
X128631520Y-100867714D01*
X128641724Y-100857511D01*
X128641728Y-100857506D01*
X128958506Y-100540728D01*
X128958511Y-100540724D01*
X128968714Y-100530520D01*
X128968716Y-100530520D01*
X129080520Y-100418716D01*
X129149349Y-100299500D01*
X129159577Y-100281785D01*
X129200501Y-100129057D01*
X129200501Y-99970943D01*
X129200501Y-99963348D01*
X129200500Y-99963330D01*
X129200500Y-65189060D01*
X129200501Y-65189047D01*
X129200501Y-65020944D01*
X129198132Y-65012102D01*
X129159577Y-64868216D01*
X129134509Y-64824796D01*
X129080524Y-64731290D01*
X129080518Y-64731282D01*
X128336818Y-63987582D01*
X128303333Y-63926259D01*
X128300499Y-63899901D01*
X128300499Y-62652129D01*
X128300498Y-62652123D01*
X128300497Y-62652116D01*
X128295125Y-62602135D01*
X130729500Y-62602135D01*
X130729500Y-64397870D01*
X130729501Y-64397876D01*
X130735908Y-64457483D01*
X130786202Y-64592328D01*
X130786206Y-64592335D01*
X130872452Y-64707544D01*
X130872455Y-64707547D01*
X130987664Y-64793793D01*
X130987671Y-64793797D01*
X131119082Y-64842810D01*
X131175016Y-64884681D01*
X131199433Y-64950145D01*
X131184582Y-65018418D01*
X131163431Y-65046673D01*
X131049889Y-65160215D01*
X130924951Y-65332179D01*
X130828444Y-65521585D01*
X130762753Y-65723760D01*
X130729500Y-65933713D01*
X130729500Y-66146286D01*
X130752307Y-66290288D01*
X130762754Y-66356243D01*
X130824219Y-66545413D01*
X130828444Y-66558414D01*
X130924951Y-66747820D01*
X131049890Y-66919786D01*
X131200213Y-67070109D01*
X131372182Y-67195050D01*
X131380946Y-67199516D01*
X131431742Y-67247491D01*
X131448536Y-67315312D01*
X131425998Y-67381447D01*
X131380946Y-67420484D01*
X131372182Y-67424949D01*
X131200213Y-67549890D01*
X131049890Y-67700213D01*
X130924951Y-67872179D01*
X130828444Y-68061585D01*
X130762753Y-68263760D01*
X130760899Y-68275466D01*
X130729500Y-68473713D01*
X130729500Y-68686287D01*
X130762754Y-68896243D01*
X130814925Y-69056809D01*
X130828444Y-69098414D01*
X130924951Y-69287820D01*
X131049890Y-69459786D01*
X131200213Y-69610109D01*
X131372182Y-69735050D01*
X131380946Y-69739516D01*
X131431742Y-69787491D01*
X131448536Y-69855312D01*
X131425998Y-69921447D01*
X131380946Y-69960484D01*
X131372182Y-69964949D01*
X131200213Y-70089890D01*
X131049890Y-70240213D01*
X130924951Y-70412179D01*
X130828444Y-70601585D01*
X130762753Y-70803760D01*
X130739512Y-70950500D01*
X130729500Y-71013713D01*
X130729500Y-71226287D01*
X130735476Y-71264019D01*
X130756243Y-71395139D01*
X130762754Y-71436243D01*
X130806483Y-71570827D01*
X130828444Y-71638414D01*
X130924951Y-71827820D01*
X131049890Y-71999786D01*
X131200213Y-72150109D01*
X131372182Y-72275050D01*
X131380946Y-72279516D01*
X131431742Y-72327491D01*
X131448536Y-72395312D01*
X131425998Y-72461447D01*
X131380946Y-72500484D01*
X131372182Y-72504949D01*
X131200213Y-72629890D01*
X131049890Y-72780213D01*
X130924951Y-72952179D01*
X130828444Y-73141585D01*
X130762753Y-73343760D01*
X130729500Y-73553713D01*
X130729500Y-73766287D01*
X130731389Y-73778211D01*
X130758432Y-73948959D01*
X130762754Y-73976243D01*
X130818582Y-74148064D01*
X130828444Y-74178414D01*
X130924951Y-74367820D01*
X131049890Y-74539786D01*
X131200213Y-74690109D01*
X131372182Y-74815050D01*
X131380946Y-74819516D01*
X131431742Y-74867491D01*
X131448536Y-74935312D01*
X131425998Y-75001447D01*
X131380946Y-75040484D01*
X131372182Y-75044949D01*
X131200213Y-75169890D01*
X131049890Y-75320213D01*
X130924951Y-75492179D01*
X130828444Y-75681585D01*
X130762753Y-75883760D01*
X130739774Y-76028846D01*
X130729500Y-76093713D01*
X130729500Y-76306287D01*
X130732973Y-76328213D01*
X130758860Y-76491661D01*
X130762754Y-76516243D01*
X130810415Y-76662929D01*
X130828444Y-76718414D01*
X130924951Y-76907820D01*
X131049890Y-77079786D01*
X131200213Y-77230109D01*
X131372182Y-77355050D01*
X131380946Y-77359516D01*
X131431742Y-77407491D01*
X131448536Y-77475312D01*
X131425998Y-77541447D01*
X131380946Y-77580484D01*
X131372182Y-77584949D01*
X131200213Y-77709890D01*
X131049890Y-77860213D01*
X130924951Y-78032179D01*
X130828444Y-78221585D01*
X130762753Y-78423760D01*
X130729500Y-78633713D01*
X130729500Y-78846286D01*
X130762409Y-79054070D01*
X130762754Y-79056243D01*
X130772043Y-79084833D01*
X130828444Y-79258414D01*
X130924951Y-79447820D01*
X131049890Y-79619786D01*
X131200213Y-79770109D01*
X131372182Y-79895050D01*
X131380946Y-79899516D01*
X131431742Y-79947491D01*
X131448536Y-80015312D01*
X131425998Y-80081447D01*
X131380946Y-80120484D01*
X131372182Y-80124949D01*
X131200213Y-80249890D01*
X131049890Y-80400213D01*
X130924951Y-80572179D01*
X130828444Y-80761585D01*
X130762753Y-80963760D01*
X130739774Y-81108844D01*
X130729500Y-81173713D01*
X130729500Y-81386287D01*
X130733995Y-81414666D01*
X130756382Y-81556016D01*
X130762754Y-81596243D01*
X130821999Y-81778580D01*
X130828444Y-81798414D01*
X130924951Y-81987820D01*
X131049890Y-82159786D01*
X131200213Y-82310109D01*
X131372182Y-82435050D01*
X131380946Y-82439516D01*
X131431742Y-82487491D01*
X131448536Y-82555312D01*
X131425998Y-82621447D01*
X131380946Y-82660484D01*
X131372182Y-82664949D01*
X131200213Y-82789890D01*
X131049890Y-82940213D01*
X130924951Y-83112179D01*
X130828444Y-83301585D01*
X130762753Y-83503760D01*
X130729500Y-83713713D01*
X130729500Y-83926286D01*
X130760139Y-84119737D01*
X130762754Y-84136243D01*
X130822727Y-84320821D01*
X130828444Y-84338414D01*
X130924951Y-84527820D01*
X131049890Y-84699786D01*
X131200213Y-84850109D01*
X131372182Y-84975050D01*
X131380946Y-84979516D01*
X131431742Y-85027491D01*
X131448536Y-85095312D01*
X131425998Y-85161447D01*
X131380946Y-85200484D01*
X131372182Y-85204949D01*
X131200213Y-85329890D01*
X131049890Y-85480213D01*
X130924951Y-85652179D01*
X130828444Y-85841585D01*
X130762753Y-86043760D01*
X130729500Y-86253713D01*
X130729500Y-86466286D01*
X130761166Y-86666220D01*
X130762754Y-86676243D01*
X130828378Y-86878213D01*
X130828444Y-86878414D01*
X130924951Y-87067820D01*
X131049890Y-87239786D01*
X131200213Y-87390109D01*
X131372182Y-87515050D01*
X131380946Y-87519516D01*
X131431742Y-87567491D01*
X131448536Y-87635312D01*
X131425998Y-87701447D01*
X131380946Y-87740484D01*
X131372182Y-87744949D01*
X131200213Y-87869890D01*
X131049890Y-88020213D01*
X130924951Y-88192179D01*
X130828444Y-88381585D01*
X130762753Y-88583760D01*
X130729500Y-88793713D01*
X130729500Y-89006286D01*
X130748306Y-89125026D01*
X130762754Y-89216243D01*
X130827564Y-89415708D01*
X130828444Y-89418414D01*
X130924951Y-89607820D01*
X131049890Y-89779786D01*
X131200213Y-89930109D01*
X131372182Y-90055050D01*
X131380946Y-90059516D01*
X131431742Y-90107491D01*
X131448536Y-90175312D01*
X131425998Y-90241447D01*
X131380946Y-90280484D01*
X131372182Y-90284949D01*
X131200213Y-90409890D01*
X131049890Y-90560213D01*
X130924951Y-90732179D01*
X130828444Y-90921585D01*
X130762753Y-91123760D01*
X130729500Y-91333713D01*
X130729500Y-91546286D01*
X130761124Y-91745956D01*
X130762754Y-91756243D01*
X130803563Y-91881841D01*
X130828444Y-91958414D01*
X130924951Y-92147820D01*
X131049890Y-92319786D01*
X131200213Y-92470109D01*
X131372182Y-92595050D01*
X131380946Y-92599516D01*
X131431742Y-92647491D01*
X131448536Y-92715312D01*
X131425998Y-92781447D01*
X131380946Y-92820484D01*
X131372182Y-92824949D01*
X131200213Y-92949890D01*
X131049890Y-93100213D01*
X130924951Y-93272179D01*
X130828444Y-93461585D01*
X130762753Y-93663760D01*
X130729500Y-93873713D01*
X130729500Y-94086286D01*
X130759998Y-94278846D01*
X130762754Y-94296243D01*
X130825941Y-94490713D01*
X130828444Y-94498414D01*
X130924951Y-94687820D01*
X131049890Y-94859786D01*
X131200213Y-95010109D01*
X131372182Y-95135050D01*
X131380946Y-95139516D01*
X131431742Y-95187491D01*
X131448536Y-95255312D01*
X131425998Y-95321447D01*
X131380946Y-95360484D01*
X131372182Y-95364949D01*
X131200213Y-95489890D01*
X131049890Y-95640213D01*
X130924951Y-95812179D01*
X130828444Y-96001585D01*
X130762753Y-96203760D01*
X130729500Y-96413713D01*
X130729500Y-96626286D01*
X130760464Y-96821789D01*
X130762754Y-96836243D01*
X130816124Y-97000499D01*
X130828444Y-97038414D01*
X130924951Y-97227820D01*
X131049890Y-97399786D01*
X131200213Y-97550109D01*
X131372182Y-97675050D01*
X131380946Y-97679516D01*
X131431742Y-97727491D01*
X131448536Y-97795312D01*
X131425998Y-97861447D01*
X131380946Y-97900484D01*
X131372182Y-97904949D01*
X131200213Y-98029890D01*
X131049890Y-98180213D01*
X130924951Y-98352179D01*
X130828444Y-98541585D01*
X130762753Y-98743760D01*
X130735392Y-98916510D01*
X130729500Y-98953713D01*
X130729500Y-99166287D01*
X130738003Y-99219971D01*
X130762498Y-99374631D01*
X130762754Y-99376243D01*
X130825624Y-99569737D01*
X130828444Y-99578414D01*
X130924951Y-99767820D01*
X131049890Y-99939786D01*
X131200213Y-100090109D01*
X131372182Y-100215050D01*
X131380946Y-100219516D01*
X131431742Y-100267491D01*
X131448536Y-100335312D01*
X131425998Y-100401447D01*
X131380946Y-100440484D01*
X131372182Y-100444949D01*
X131200213Y-100569890D01*
X131049890Y-100720213D01*
X130924951Y-100892179D01*
X130828444Y-101081585D01*
X130828443Y-101081587D01*
X130828443Y-101081588D01*
X130815587Y-101121155D01*
X130762753Y-101283760D01*
X130729500Y-101493713D01*
X130729500Y-101706286D01*
X130761913Y-101910938D01*
X130762754Y-101916243D01*
X130780135Y-101969737D01*
X130828444Y-102118414D01*
X130924951Y-102307820D01*
X131049890Y-102479786D01*
X131200213Y-102630109D01*
X131372179Y-102755048D01*
X131372181Y-102755049D01*
X131372184Y-102755051D01*
X131561588Y-102851557D01*
X131763757Y-102917246D01*
X131973713Y-102950500D01*
X131973714Y-102950500D01*
X132186286Y-102950500D01*
X132186287Y-102950500D01*
X132396243Y-102917246D01*
X132598412Y-102851557D01*
X132787816Y-102755051D01*
X132846680Y-102712284D01*
X132959786Y-102630109D01*
X132959788Y-102630106D01*
X132959792Y-102630104D01*
X133110104Y-102479792D01*
X133110106Y-102479788D01*
X133110109Y-102479786D01*
X133235048Y-102307820D01*
X133235047Y-102307820D01*
X133235051Y-102307816D01*
X133331557Y-102118412D01*
X133397246Y-101916243D01*
X133430500Y-101706287D01*
X133430500Y-101493713D01*
X133397246Y-101283757D01*
X133331557Y-101081588D01*
X133235051Y-100892184D01*
X133235049Y-100892181D01*
X133235048Y-100892179D01*
X133110109Y-100720213D01*
X132959786Y-100569890D01*
X132787820Y-100444951D01*
X132787115Y-100444591D01*
X132779054Y-100440485D01*
X132728259Y-100392512D01*
X132711463Y-100324692D01*
X132733999Y-100258556D01*
X132779054Y-100219515D01*
X132787816Y-100215051D01*
X132846680Y-100172284D01*
X132959786Y-100090109D01*
X132959788Y-100090106D01*
X132959792Y-100090104D01*
X133110104Y-99939792D01*
X133110106Y-99939788D01*
X133110109Y-99939786D01*
X133235048Y-99767820D01*
X133235047Y-99767820D01*
X133235051Y-99767816D01*
X133331557Y-99578412D01*
X133397246Y-99376243D01*
X133430500Y-99166287D01*
X133430500Y-98953713D01*
X133397246Y-98743757D01*
X133331557Y-98541588D01*
X133235051Y-98352184D01*
X133235049Y-98352181D01*
X133235048Y-98352179D01*
X133110109Y-98180213D01*
X132959786Y-98029890D01*
X132787820Y-97904951D01*
X132787115Y-97904591D01*
X132779054Y-97900485D01*
X132728259Y-97852512D01*
X132711463Y-97784692D01*
X132733999Y-97718556D01*
X132779054Y-97679515D01*
X132787816Y-97675051D01*
X132846680Y-97632284D01*
X132959786Y-97550109D01*
X132959788Y-97550106D01*
X132959792Y-97550104D01*
X133110104Y-97399792D01*
X133110106Y-97399788D01*
X133110109Y-97399786D01*
X133230923Y-97233498D01*
X133235051Y-97227816D01*
X133331557Y-97038412D01*
X133397246Y-96836243D01*
X133430500Y-96626287D01*
X133430500Y-96413713D01*
X133397246Y-96203757D01*
X133331557Y-96001588D01*
X133235051Y-95812184D01*
X133235049Y-95812181D01*
X133235048Y-95812179D01*
X133110109Y-95640213D01*
X132959786Y-95489890D01*
X132787820Y-95364951D01*
X132787115Y-95364591D01*
X132779054Y-95360485D01*
X132728259Y-95312512D01*
X132711463Y-95244692D01*
X132733999Y-95178556D01*
X132779054Y-95139515D01*
X132787816Y-95135051D01*
X132873238Y-95072989D01*
X132959786Y-95010109D01*
X132959788Y-95010106D01*
X132959792Y-95010104D01*
X133110104Y-94859792D01*
X133110106Y-94859788D01*
X133110109Y-94859786D01*
X133235048Y-94687820D01*
X133235047Y-94687820D01*
X133235051Y-94687816D01*
X133331557Y-94498412D01*
X133397246Y-94296243D01*
X133430500Y-94086287D01*
X133430500Y-93873713D01*
X133397246Y-93663757D01*
X133331557Y-93461588D01*
X133235051Y-93272184D01*
X133235049Y-93272181D01*
X133235048Y-93272179D01*
X133110109Y-93100213D01*
X132959786Y-92949890D01*
X132787820Y-92824951D01*
X132787115Y-92824591D01*
X132779054Y-92820485D01*
X132728259Y-92772512D01*
X132711463Y-92704692D01*
X132733999Y-92638556D01*
X132779054Y-92599515D01*
X132787816Y-92595051D01*
X132846680Y-92552284D01*
X132959786Y-92470109D01*
X132959788Y-92470106D01*
X132959792Y-92470104D01*
X133110104Y-92319792D01*
X133110106Y-92319788D01*
X133110109Y-92319786D01*
X133235048Y-92147820D01*
X133235047Y-92147820D01*
X133235051Y-92147816D01*
X133331557Y-91958412D01*
X133397246Y-91756243D01*
X133430500Y-91546287D01*
X133430500Y-91333713D01*
X133397246Y-91123757D01*
X133331557Y-90921588D01*
X133235051Y-90732184D01*
X133235049Y-90732181D01*
X133235048Y-90732179D01*
X133110109Y-90560213D01*
X132959786Y-90409890D01*
X132787820Y-90284951D01*
X132787115Y-90284591D01*
X132779054Y-90280485D01*
X132728259Y-90232512D01*
X132711463Y-90164692D01*
X132733999Y-90098556D01*
X132779054Y-90059515D01*
X132787816Y-90055051D01*
X132829603Y-90024691D01*
X132959786Y-89930109D01*
X132959788Y-89930106D01*
X132959792Y-89930104D01*
X133110104Y-89779792D01*
X133110106Y-89779788D01*
X133110109Y-89779786D01*
X133235048Y-89607820D01*
X133235047Y-89607820D01*
X133235051Y-89607816D01*
X133331557Y-89418412D01*
X133397246Y-89216243D01*
X133430500Y-89006287D01*
X133430500Y-88793713D01*
X133397246Y-88583757D01*
X133331557Y-88381588D01*
X133235051Y-88192184D01*
X133235049Y-88192181D01*
X133235048Y-88192179D01*
X133110109Y-88020213D01*
X132959786Y-87869890D01*
X132787820Y-87744951D01*
X132787115Y-87744591D01*
X132779054Y-87740485D01*
X132728259Y-87692512D01*
X132711463Y-87624692D01*
X132733999Y-87558556D01*
X132779054Y-87519515D01*
X132787816Y-87515051D01*
X132846680Y-87472284D01*
X132959786Y-87390109D01*
X132959788Y-87390106D01*
X132959792Y-87390104D01*
X133110104Y-87239792D01*
X133110106Y-87239788D01*
X133110109Y-87239786D01*
X133235048Y-87067820D01*
X133235047Y-87067820D01*
X133235051Y-87067816D01*
X133331557Y-86878412D01*
X133397246Y-86676243D01*
X133430500Y-86466287D01*
X133430500Y-86253713D01*
X133397246Y-86043757D01*
X133331557Y-85841588D01*
X133235051Y-85652184D01*
X133235049Y-85652181D01*
X133235048Y-85652179D01*
X133110109Y-85480213D01*
X132959786Y-85329890D01*
X132787820Y-85204951D01*
X132787115Y-85204591D01*
X132779054Y-85200485D01*
X132728259Y-85152512D01*
X132711463Y-85084692D01*
X132733999Y-85018556D01*
X132779054Y-84979515D01*
X132787816Y-84975051D01*
X132909250Y-84886825D01*
X132959786Y-84850109D01*
X132959788Y-84850106D01*
X132959792Y-84850104D01*
X133110104Y-84699792D01*
X133110106Y-84699788D01*
X133110109Y-84699786D01*
X133235048Y-84527820D01*
X133235047Y-84527820D01*
X133235051Y-84527816D01*
X133331557Y-84338412D01*
X133397246Y-84136243D01*
X133430500Y-83926287D01*
X133430500Y-83713713D01*
X133397246Y-83503757D01*
X133331557Y-83301588D01*
X133235051Y-83112184D01*
X133235049Y-83112181D01*
X133235048Y-83112179D01*
X133110109Y-82940213D01*
X132959786Y-82789890D01*
X132787820Y-82664951D01*
X132781604Y-82661784D01*
X132779054Y-82660485D01*
X132728259Y-82612512D01*
X132711463Y-82544692D01*
X132733999Y-82478556D01*
X132779054Y-82439515D01*
X132787816Y-82435051D01*
X132858769Y-82383501D01*
X132959786Y-82310109D01*
X132959788Y-82310106D01*
X132959792Y-82310104D01*
X133110104Y-82159792D01*
X133110106Y-82159788D01*
X133110109Y-82159786D01*
X133235048Y-81987820D01*
X133235047Y-81987820D01*
X133235051Y-81987816D01*
X133331557Y-81798412D01*
X133397246Y-81596243D01*
X133430500Y-81386287D01*
X133430500Y-81173713D01*
X133397246Y-80963757D01*
X133331557Y-80761588D01*
X133235051Y-80572184D01*
X133235049Y-80572181D01*
X133235048Y-80572179D01*
X133110109Y-80400213D01*
X132959786Y-80249890D01*
X132787820Y-80124951D01*
X132783382Y-80122690D01*
X132779054Y-80120485D01*
X132728259Y-80072512D01*
X132711463Y-80004692D01*
X132733999Y-79938556D01*
X132779054Y-79899515D01*
X132787816Y-79895051D01*
X132909250Y-79806825D01*
X132959786Y-79770109D01*
X132959788Y-79770106D01*
X132959792Y-79770104D01*
X133110104Y-79619792D01*
X133110106Y-79619788D01*
X133110109Y-79619786D01*
X133235048Y-79447820D01*
X133235047Y-79447820D01*
X133235051Y-79447816D01*
X133331557Y-79258412D01*
X133397246Y-79056243D01*
X133430500Y-78846287D01*
X133430500Y-78633713D01*
X133397246Y-78423757D01*
X133331557Y-78221588D01*
X133235051Y-78032184D01*
X133235049Y-78032181D01*
X133235048Y-78032179D01*
X133110109Y-77860213D01*
X132959786Y-77709890D01*
X132787820Y-77584951D01*
X132784519Y-77583269D01*
X132779054Y-77580485D01*
X132728259Y-77532512D01*
X132711463Y-77464692D01*
X132733999Y-77398556D01*
X132779054Y-77359515D01*
X132787816Y-77355051D01*
X132846680Y-77312284D01*
X132959786Y-77230109D01*
X132959788Y-77230106D01*
X132959792Y-77230104D01*
X133110104Y-77079792D01*
X133110106Y-77079788D01*
X133110109Y-77079786D01*
X133235048Y-76907820D01*
X133235047Y-76907820D01*
X133235051Y-76907816D01*
X133331557Y-76718412D01*
X133397246Y-76516243D01*
X133430500Y-76306287D01*
X133430500Y-76093713D01*
X133397246Y-75883757D01*
X133331557Y-75681588D01*
X133235051Y-75492184D01*
X133235049Y-75492181D01*
X133235048Y-75492179D01*
X133110109Y-75320213D01*
X132959786Y-75169890D01*
X132787820Y-75044951D01*
X132787115Y-75044591D01*
X132779054Y-75040485D01*
X132728259Y-74992512D01*
X132711463Y-74924692D01*
X132733999Y-74858556D01*
X132779054Y-74819515D01*
X132787816Y-74815051D01*
X132846680Y-74772284D01*
X132959786Y-74690109D01*
X132959788Y-74690106D01*
X132959792Y-74690104D01*
X133110104Y-74539792D01*
X133110106Y-74539788D01*
X133110109Y-74539786D01*
X133235048Y-74367820D01*
X133235047Y-74367820D01*
X133235051Y-74367816D01*
X133331557Y-74178412D01*
X133397246Y-73976243D01*
X133430500Y-73766287D01*
X133430500Y-73553713D01*
X133397246Y-73343757D01*
X133331557Y-73141588D01*
X133235051Y-72952184D01*
X133235049Y-72952181D01*
X133235048Y-72952179D01*
X133110109Y-72780213D01*
X132959786Y-72629890D01*
X132787820Y-72504951D01*
X132787115Y-72504591D01*
X132779054Y-72500485D01*
X132728259Y-72452512D01*
X132711463Y-72384692D01*
X132733999Y-72318556D01*
X132779054Y-72279515D01*
X132787816Y-72275051D01*
X132846680Y-72232284D01*
X132959786Y-72150109D01*
X132959788Y-72150106D01*
X132959792Y-72150104D01*
X133110104Y-71999792D01*
X133110106Y-71999788D01*
X133110109Y-71999786D01*
X133235048Y-71827820D01*
X133235047Y-71827820D01*
X133235051Y-71827816D01*
X133331557Y-71638412D01*
X133397246Y-71436243D01*
X133430500Y-71226287D01*
X133430500Y-71013713D01*
X133397246Y-70803757D01*
X133331557Y-70601588D01*
X133235051Y-70412184D01*
X133235049Y-70412181D01*
X133235048Y-70412179D01*
X133110109Y-70240213D01*
X132959786Y-70089890D01*
X132787820Y-69964951D01*
X132787115Y-69964591D01*
X132779054Y-69960485D01*
X132728259Y-69912512D01*
X132711463Y-69844692D01*
X132733999Y-69778556D01*
X132779054Y-69739515D01*
X132787816Y-69735051D01*
X132846680Y-69692284D01*
X132959786Y-69610109D01*
X132959788Y-69610106D01*
X132959792Y-69610104D01*
X133110104Y-69459792D01*
X133110106Y-69459788D01*
X133110109Y-69459786D01*
X133235048Y-69287820D01*
X133235047Y-69287820D01*
X133235051Y-69287816D01*
X133331557Y-69098412D01*
X133397246Y-68896243D01*
X133430500Y-68686287D01*
X133430500Y-68473713D01*
X133397246Y-68263757D01*
X133331557Y-68061588D01*
X133235051Y-67872184D01*
X133235049Y-67872181D01*
X133235048Y-67872179D01*
X133110109Y-67700213D01*
X132959786Y-67549890D01*
X132787820Y-67424951D01*
X132787115Y-67424591D01*
X132779054Y-67420485D01*
X132728259Y-67372512D01*
X132711463Y-67304692D01*
X132733999Y-67238556D01*
X132779054Y-67199515D01*
X132787816Y-67195051D01*
X132947760Y-67078846D01*
X132959786Y-67070109D01*
X132959788Y-67070106D01*
X132959792Y-67070104D01*
X133110104Y-66919792D01*
X133110106Y-66919788D01*
X133110109Y-66919786D01*
X133235048Y-66747820D01*
X133235047Y-66747820D01*
X133235051Y-66747816D01*
X133331557Y-66558412D01*
X133397246Y-66356243D01*
X133430500Y-66146287D01*
X133430500Y-65933713D01*
X133397246Y-65723757D01*
X133331557Y-65521588D01*
X133235051Y-65332184D01*
X133235049Y-65332181D01*
X133235048Y-65332179D01*
X133110109Y-65160213D01*
X132996569Y-65046673D01*
X132963084Y-64985350D01*
X132968068Y-64915658D01*
X133009940Y-64859725D01*
X133040915Y-64842810D01*
X133172331Y-64793796D01*
X133287546Y-64707546D01*
X133373796Y-64592331D01*
X133424091Y-64457483D01*
X133430500Y-64397873D01*
X133430499Y-62602128D01*
X133424091Y-62542517D01*
X133414291Y-62516243D01*
X133373797Y-62407671D01*
X133373793Y-62407664D01*
X133287547Y-62292455D01*
X133287544Y-62292452D01*
X133172335Y-62206206D01*
X133172328Y-62206202D01*
X133037482Y-62155908D01*
X133037483Y-62155908D01*
X132977883Y-62149501D01*
X132977881Y-62149500D01*
X132977873Y-62149500D01*
X132977864Y-62149500D01*
X131182129Y-62149500D01*
X131182123Y-62149501D01*
X131122516Y-62155908D01*
X130987671Y-62206202D01*
X130987664Y-62206206D01*
X130872455Y-62292452D01*
X130872452Y-62292455D01*
X130786206Y-62407664D01*
X130786202Y-62407671D01*
X130735908Y-62542517D01*
X130731323Y-62585167D01*
X130729501Y-62602123D01*
X130729500Y-62602135D01*
X128295125Y-62602135D01*
X128294091Y-62592517D01*
X128275442Y-62542517D01*
X128243797Y-62457671D01*
X128243793Y-62457664D01*
X128157547Y-62342455D01*
X128157544Y-62342452D01*
X128042335Y-62256206D01*
X128042328Y-62256202D01*
X127907482Y-62205908D01*
X127907483Y-62205908D01*
X127847883Y-62199501D01*
X127847881Y-62199500D01*
X127847873Y-62199500D01*
X127847864Y-62199500D01*
X126152129Y-62199500D01*
X126152123Y-62199501D01*
X126092516Y-62205908D01*
X125957671Y-62256202D01*
X125957664Y-62256206D01*
X125842455Y-62342452D01*
X125842452Y-62342455D01*
X125756206Y-62457664D01*
X125756202Y-62457671D01*
X125705908Y-62592517D01*
X125699501Y-62652116D01*
X125699501Y-62652123D01*
X125699500Y-62652135D01*
X125699500Y-64347870D01*
X125699501Y-64347876D01*
X125705908Y-64407483D01*
X125756202Y-64542328D01*
X125756206Y-64542335D01*
X125842452Y-64657544D01*
X125842455Y-64657547D01*
X125957664Y-64743793D01*
X125957671Y-64743797D01*
X126002618Y-64760561D01*
X126092517Y-64794091D01*
X126129443Y-64798061D01*
X126149694Y-64806449D01*
X126171284Y-64810263D01*
X126181339Y-64819556D01*
X126193989Y-64824796D01*
X126206492Y-64842803D01*
X126222595Y-64857686D01*
X126226029Y-64870940D01*
X126233839Y-64882188D01*
X126234621Y-64904100D01*
X126240121Y-64925322D01*
X126235845Y-64938327D01*
X126236334Y-64952013D01*
X126225145Y-64970870D01*
X126218299Y-64991696D01*
X126204231Y-65006121D01*
X126200683Y-65012102D01*
X126194344Y-65017615D01*
X126191743Y-65019726D01*
X126152781Y-65048034D01*
X126135097Y-65065716D01*
X126130107Y-65069769D01*
X126103561Y-65080878D01*
X126078302Y-65094670D01*
X126071730Y-65094199D01*
X126065654Y-65096743D01*
X126037314Y-65091736D01*
X126008611Y-65089683D01*
X125999610Y-65085076D01*
X125996849Y-65084589D01*
X125994605Y-65082515D01*
X125983058Y-65076606D01*
X125929183Y-65040608D01*
X125929172Y-65040602D01*
X125783501Y-64980264D01*
X125783489Y-64980261D01*
X125628845Y-64949500D01*
X125628842Y-64949500D01*
X125474500Y-64949500D01*
X125407461Y-64929815D01*
X125361706Y-64877011D01*
X125350500Y-64825500D01*
X125350500Y-64627527D01*
X125350500Y-64627525D01*
X125312984Y-64487515D01*
X125240510Y-64361985D01*
X123938015Y-63059490D01*
X123812485Y-62987016D01*
X123812480Y-62987014D01*
X123775625Y-62977138D01*
X123775625Y-62977139D01*
X123724049Y-62963319D01*
X123672475Y-62949500D01*
X123672474Y-62949500D01*
X123286162Y-62949500D01*
X123219123Y-62929815D01*
X123173368Y-62877011D01*
X123163424Y-62807853D01*
X123175677Y-62769205D01*
X123181482Y-62757810D01*
X123201557Y-62718412D01*
X123267246Y-62516243D01*
X123300500Y-62306287D01*
X123300500Y-62093713D01*
X123267246Y-61883757D01*
X123201557Y-61681588D01*
X123105051Y-61492184D01*
X123105049Y-61492181D01*
X123105048Y-61492179D01*
X122980109Y-61320213D01*
X122829790Y-61169894D01*
X122829785Y-61169890D01*
X122698929Y-61074818D01*
X122656263Y-61019488D01*
X122650284Y-60949875D01*
X122682889Y-60888080D01*
X122743728Y-60853723D01*
X122771814Y-60850500D01*
X133875500Y-60850500D01*
X133942539Y-60870185D01*
X133988294Y-60922989D01*
X133999500Y-60974500D01*
X133999500Y-103675500D01*
X133979815Y-103742539D01*
X133927011Y-103788294D01*
X133875500Y-103799500D01*
X121024496Y-103799500D01*
X120957457Y-103779815D01*
X120911702Y-103727011D01*
X120901758Y-103657853D01*
X120919503Y-103609527D01*
X120925788Y-103599524D01*
X120927617Y-103594297D01*
X120985368Y-103429255D01*
X121000500Y-103294954D01*
X121000500Y-101805046D01*
X120989824Y-101710289D01*
X120985369Y-101670750D01*
X120985368Y-101670745D01*
X120925788Y-101500476D01*
X120829815Y-101347737D01*
X120702262Y-101220184D01*
X120549523Y-101124211D01*
X120379254Y-101064631D01*
X120379249Y-101064630D01*
X120244960Y-101049500D01*
X120244954Y-101049500D01*
X118755046Y-101049500D01*
X118755039Y-101049500D01*
X118620750Y-101064630D01*
X118620745Y-101064631D01*
X118450476Y-101124211D01*
X118297737Y-101220184D01*
X118170184Y-101347737D01*
X118074211Y-101500476D01*
X118014631Y-101670745D01*
X118014630Y-101670750D01*
X117999500Y-101805039D01*
X117999500Y-103294960D01*
X118014630Y-103429249D01*
X118014631Y-103429254D01*
X118074211Y-103599524D01*
X118080497Y-103609527D01*
X118099498Y-103676764D01*
X118079131Y-103743599D01*
X118025863Y-103788814D01*
X117975504Y-103799500D01*
X116628269Y-103799500D01*
X116561230Y-103779815D01*
X116515475Y-103727011D01*
X116505531Y-103657853D01*
X116534556Y-103594297D01*
X116555626Y-103575707D01*
X116555581Y-103575653D01*
X116557119Y-103574390D01*
X116559379Y-103572397D01*
X116560289Y-103571789D01*
X116671789Y-103460289D01*
X116759394Y-103329179D01*
X116819737Y-103183497D01*
X116850500Y-103028842D01*
X116850500Y-102871158D01*
X116850500Y-102871155D01*
X116850499Y-102871153D01*
X116837384Y-102805220D01*
X116819737Y-102716503D01*
X116817991Y-102712287D01*
X116759397Y-102570827D01*
X116759390Y-102570814D01*
X116671789Y-102439711D01*
X116671786Y-102439707D01*
X116560292Y-102328213D01*
X116560288Y-102328210D01*
X116429185Y-102240609D01*
X116429178Y-102240605D01*
X116425451Y-102239062D01*
X116371047Y-102195222D01*
X116348981Y-102128928D01*
X116366259Y-102061229D01*
X116417395Y-102013617D01*
X116472902Y-102000500D01*
X116528844Y-102000500D01*
X116528845Y-102000499D01*
X116683497Y-101969737D01*
X116812654Y-101916239D01*
X116829172Y-101909397D01*
X116829172Y-101909396D01*
X116829179Y-101909394D01*
X116960289Y-101821789D01*
X117071789Y-101710289D01*
X117159394Y-101579179D01*
X117219737Y-101433497D01*
X117250500Y-101278842D01*
X117250500Y-101121158D01*
X117250500Y-101121155D01*
X117250499Y-101121153D01*
X117244658Y-101091789D01*
X117219737Y-100966503D01*
X117199808Y-100918390D01*
X117159397Y-100820827D01*
X117159390Y-100820814D01*
X117071789Y-100689711D01*
X117071786Y-100689707D01*
X116960292Y-100578213D01*
X116960288Y-100578210D01*
X116829185Y-100490609D01*
X116829172Y-100490602D01*
X116683501Y-100430264D01*
X116683489Y-100430261D01*
X116528845Y-100399500D01*
X116528842Y-100399500D01*
X116371158Y-100399500D01*
X116371155Y-100399500D01*
X116216510Y-100430261D01*
X116216498Y-100430264D01*
X116070827Y-100490602D01*
X116070814Y-100490609D01*
X115939711Y-100578210D01*
X115939707Y-100578213D01*
X115828213Y-100689707D01*
X115828210Y-100689711D01*
X115740609Y-100820814D01*
X115740602Y-100820827D01*
X115680264Y-100966498D01*
X115680261Y-100966510D01*
X115649500Y-101121153D01*
X115649500Y-101278846D01*
X115680261Y-101433489D01*
X115680264Y-101433501D01*
X115740602Y-101579172D01*
X115740609Y-101579185D01*
X115828210Y-101710288D01*
X115828213Y-101710292D01*
X115939707Y-101821786D01*
X115939711Y-101821789D01*
X116070814Y-101909390D01*
X116070821Y-101909394D01*
X116074549Y-101910938D01*
X116128953Y-101954778D01*
X116151019Y-102021072D01*
X116133741Y-102088771D01*
X116082605Y-102136383D01*
X116027098Y-102149500D01*
X115971155Y-102149500D01*
X115816510Y-102180261D01*
X115816498Y-102180264D01*
X115670827Y-102240602D01*
X115670814Y-102240609D01*
X115539711Y-102328210D01*
X115539707Y-102328213D01*
X115428213Y-102439707D01*
X115428210Y-102439711D01*
X115340609Y-102570814D01*
X115340602Y-102570827D01*
X115280264Y-102716498D01*
X115280261Y-102716510D01*
X115249500Y-102871153D01*
X115249500Y-103028846D01*
X115280261Y-103183489D01*
X115280264Y-103183501D01*
X115340602Y-103329172D01*
X115340609Y-103329185D01*
X115428210Y-103460288D01*
X115428213Y-103460292D01*
X115539708Y-103571787D01*
X115540621Y-103572397D01*
X115540991Y-103572839D01*
X115544419Y-103575653D01*
X115543885Y-103576303D01*
X115585427Y-103626010D01*
X115594134Y-103695334D01*
X115563980Y-103758362D01*
X115504537Y-103795082D01*
X115471731Y-103799500D01*
X104724500Y-103799500D01*
X104657461Y-103779815D01*
X104611706Y-103727011D01*
X104600500Y-103675500D01*
X104600500Y-62602135D01*
X105329500Y-62602135D01*
X105329500Y-64397870D01*
X105329501Y-64397876D01*
X105335908Y-64457483D01*
X105386202Y-64592328D01*
X105386206Y-64592335D01*
X105472452Y-64707544D01*
X105472455Y-64707547D01*
X105587664Y-64793793D01*
X105587671Y-64793797D01*
X105719082Y-64842810D01*
X105775016Y-64884681D01*
X105799433Y-64950145D01*
X105784582Y-65018418D01*
X105763431Y-65046673D01*
X105649889Y-65160215D01*
X105524951Y-65332179D01*
X105428444Y-65521585D01*
X105362753Y-65723760D01*
X105329500Y-65933713D01*
X105329500Y-66146286D01*
X105352307Y-66290288D01*
X105362754Y-66356243D01*
X105424219Y-66545413D01*
X105428444Y-66558414D01*
X105524951Y-66747820D01*
X105649890Y-66919786D01*
X105800213Y-67070109D01*
X105972182Y-67195050D01*
X105980946Y-67199516D01*
X106031742Y-67247491D01*
X106048536Y-67315312D01*
X106025998Y-67381447D01*
X105980946Y-67420484D01*
X105972182Y-67424949D01*
X105800213Y-67549890D01*
X105649890Y-67700213D01*
X105524951Y-67872179D01*
X105428444Y-68061585D01*
X105362753Y-68263760D01*
X105360899Y-68275466D01*
X105329500Y-68473713D01*
X105329500Y-68686287D01*
X105362754Y-68896243D01*
X105414925Y-69056809D01*
X105428444Y-69098414D01*
X105524951Y-69287820D01*
X105649890Y-69459786D01*
X105800213Y-69610109D01*
X105972182Y-69735050D01*
X105980946Y-69739516D01*
X106031742Y-69787491D01*
X106048536Y-69855312D01*
X106025998Y-69921447D01*
X105980946Y-69960484D01*
X105972182Y-69964949D01*
X105800213Y-70089890D01*
X105649890Y-70240213D01*
X105524951Y-70412179D01*
X105428444Y-70601585D01*
X105362753Y-70803760D01*
X105339512Y-70950500D01*
X105329500Y-71013713D01*
X105329500Y-71226287D01*
X105335476Y-71264019D01*
X105356243Y-71395139D01*
X105362754Y-71436243D01*
X105406483Y-71570827D01*
X105428444Y-71638414D01*
X105524951Y-71827820D01*
X105649890Y-71999786D01*
X105800213Y-72150109D01*
X105972182Y-72275050D01*
X105980946Y-72279516D01*
X106031742Y-72327491D01*
X106048536Y-72395312D01*
X106025998Y-72461447D01*
X105980946Y-72500484D01*
X105972182Y-72504949D01*
X105800213Y-72629890D01*
X105649890Y-72780213D01*
X105524951Y-72952179D01*
X105428444Y-73141585D01*
X105362753Y-73343760D01*
X105329500Y-73553713D01*
X105329500Y-73766287D01*
X105331389Y-73778211D01*
X105358432Y-73948959D01*
X105362754Y-73976243D01*
X105418582Y-74148064D01*
X105428444Y-74178414D01*
X105524951Y-74367820D01*
X105649890Y-74539786D01*
X105800213Y-74690109D01*
X105972182Y-74815050D01*
X105980946Y-74819516D01*
X106031742Y-74867491D01*
X106048536Y-74935312D01*
X106025998Y-75001447D01*
X105980946Y-75040484D01*
X105972182Y-75044949D01*
X105800213Y-75169890D01*
X105649890Y-75320213D01*
X105524951Y-75492179D01*
X105428444Y-75681585D01*
X105362753Y-75883760D01*
X105339774Y-76028846D01*
X105329500Y-76093713D01*
X105329500Y-76306287D01*
X105332973Y-76328213D01*
X105358860Y-76491661D01*
X105362754Y-76516243D01*
X105410415Y-76662929D01*
X105428444Y-76718414D01*
X105524951Y-76907820D01*
X105649890Y-77079786D01*
X105800213Y-77230109D01*
X105972182Y-77355050D01*
X105980946Y-77359516D01*
X106031742Y-77407491D01*
X106048536Y-77475312D01*
X106025998Y-77541447D01*
X105980946Y-77580484D01*
X105972182Y-77584949D01*
X105800213Y-77709890D01*
X105649890Y-77860213D01*
X105524951Y-78032179D01*
X105428444Y-78221585D01*
X105362753Y-78423760D01*
X105329500Y-78633713D01*
X105329500Y-78846286D01*
X105362409Y-79054070D01*
X105362754Y-79056243D01*
X105372043Y-79084833D01*
X105428444Y-79258414D01*
X105524951Y-79447820D01*
X105649890Y-79619786D01*
X105800213Y-79770109D01*
X105972182Y-79895050D01*
X105980946Y-79899516D01*
X106031742Y-79947491D01*
X106048536Y-80015312D01*
X106025998Y-80081447D01*
X105980946Y-80120484D01*
X105972182Y-80124949D01*
X105800213Y-80249890D01*
X105649890Y-80400213D01*
X105524951Y-80572179D01*
X105428444Y-80761585D01*
X105362753Y-80963760D01*
X105339774Y-81108844D01*
X105329500Y-81173713D01*
X105329500Y-81386287D01*
X105333995Y-81414666D01*
X105356382Y-81556016D01*
X105362754Y-81596243D01*
X105421999Y-81778580D01*
X105428444Y-81798414D01*
X105524951Y-81987820D01*
X105649890Y-82159786D01*
X105800213Y-82310109D01*
X105972182Y-82435050D01*
X105980946Y-82439516D01*
X106031742Y-82487491D01*
X106048536Y-82555312D01*
X106025998Y-82621447D01*
X105980946Y-82660484D01*
X105972182Y-82664949D01*
X105800213Y-82789890D01*
X105649890Y-82940213D01*
X105524951Y-83112179D01*
X105428444Y-83301585D01*
X105362753Y-83503760D01*
X105329500Y-83713713D01*
X105329500Y-83926286D01*
X105360139Y-84119737D01*
X105362754Y-84136243D01*
X105422727Y-84320821D01*
X105428444Y-84338414D01*
X105524951Y-84527820D01*
X105649890Y-84699786D01*
X105800213Y-84850109D01*
X105972182Y-84975050D01*
X105980946Y-84979516D01*
X106031742Y-85027491D01*
X106048536Y-85095312D01*
X106025998Y-85161447D01*
X105980946Y-85200484D01*
X105972182Y-85204949D01*
X105800213Y-85329890D01*
X105649890Y-85480213D01*
X105524951Y-85652179D01*
X105428444Y-85841585D01*
X105362753Y-86043760D01*
X105329500Y-86253713D01*
X105329500Y-86466286D01*
X105361166Y-86666220D01*
X105362754Y-86676243D01*
X105428378Y-86878213D01*
X105428444Y-86878414D01*
X105524951Y-87067820D01*
X105649890Y-87239786D01*
X105800213Y-87390109D01*
X105972182Y-87515050D01*
X105980946Y-87519516D01*
X106031742Y-87567491D01*
X106048536Y-87635312D01*
X106025998Y-87701447D01*
X105980946Y-87740484D01*
X105972182Y-87744949D01*
X105800213Y-87869890D01*
X105649890Y-88020213D01*
X105524951Y-88192179D01*
X105428444Y-88381585D01*
X105362753Y-88583760D01*
X105329500Y-88793713D01*
X105329500Y-89006286D01*
X105348306Y-89125026D01*
X105362754Y-89216243D01*
X105427564Y-89415708D01*
X105428444Y-89418414D01*
X105524951Y-89607820D01*
X105649890Y-89779786D01*
X105800213Y-89930109D01*
X105972182Y-90055050D01*
X105980946Y-90059516D01*
X106031742Y-90107491D01*
X106048536Y-90175312D01*
X106025998Y-90241447D01*
X105980946Y-90280484D01*
X105972182Y-90284949D01*
X105800213Y-90409890D01*
X105649890Y-90560213D01*
X105524951Y-90732179D01*
X105428444Y-90921585D01*
X105362753Y-91123760D01*
X105329500Y-91333713D01*
X105329500Y-91546286D01*
X105361124Y-91745956D01*
X105362754Y-91756243D01*
X105403563Y-91881841D01*
X105428444Y-91958414D01*
X105524951Y-92147820D01*
X105649890Y-92319786D01*
X105800213Y-92470109D01*
X105972182Y-92595050D01*
X105980946Y-92599516D01*
X106031742Y-92647491D01*
X106048536Y-92715312D01*
X106025998Y-92781447D01*
X105980946Y-92820484D01*
X105972182Y-92824949D01*
X105800213Y-92949890D01*
X105649890Y-93100213D01*
X105524951Y-93272179D01*
X105428444Y-93461585D01*
X105362753Y-93663760D01*
X105329500Y-93873713D01*
X105329500Y-94086286D01*
X105359998Y-94278846D01*
X105362754Y-94296243D01*
X105425941Y-94490713D01*
X105428444Y-94498414D01*
X105524951Y-94687820D01*
X105649890Y-94859786D01*
X105800213Y-95010109D01*
X105972182Y-95135050D01*
X105980946Y-95139516D01*
X106031742Y-95187491D01*
X106048536Y-95255312D01*
X106025998Y-95321447D01*
X105980946Y-95360484D01*
X105972182Y-95364949D01*
X105800213Y-95489890D01*
X105649890Y-95640213D01*
X105524951Y-95812179D01*
X105428444Y-96001585D01*
X105362753Y-96203760D01*
X105329500Y-96413713D01*
X105329500Y-96626286D01*
X105360464Y-96821789D01*
X105362754Y-96836243D01*
X105416124Y-97000499D01*
X105428444Y-97038414D01*
X105524951Y-97227820D01*
X105649890Y-97399786D01*
X105800213Y-97550109D01*
X105972182Y-97675050D01*
X105980946Y-97679516D01*
X106031742Y-97727491D01*
X106048536Y-97795312D01*
X106025998Y-97861447D01*
X105980946Y-97900484D01*
X105972182Y-97904949D01*
X105800213Y-98029890D01*
X105649890Y-98180213D01*
X105524951Y-98352179D01*
X105428444Y-98541585D01*
X105362753Y-98743760D01*
X105335392Y-98916510D01*
X105329500Y-98953713D01*
X105329500Y-99166287D01*
X105338003Y-99219971D01*
X105362498Y-99374631D01*
X105362754Y-99376243D01*
X105425624Y-99569737D01*
X105428444Y-99578414D01*
X105524951Y-99767820D01*
X105649890Y-99939786D01*
X105800213Y-100090109D01*
X105972182Y-100215050D01*
X105980946Y-100219516D01*
X106031742Y-100267491D01*
X106048536Y-100335312D01*
X106025998Y-100401447D01*
X105980946Y-100440484D01*
X105972182Y-100444949D01*
X105800213Y-100569890D01*
X105649890Y-100720213D01*
X105524951Y-100892179D01*
X105428444Y-101081585D01*
X105428443Y-101081587D01*
X105428443Y-101081588D01*
X105415587Y-101121155D01*
X105362753Y-101283760D01*
X105329500Y-101493713D01*
X105329500Y-101706286D01*
X105361913Y-101910938D01*
X105362754Y-101916243D01*
X105380135Y-101969737D01*
X105428444Y-102118414D01*
X105524951Y-102307820D01*
X105649890Y-102479786D01*
X105800213Y-102630109D01*
X105972179Y-102755048D01*
X105972181Y-102755049D01*
X105972184Y-102755051D01*
X106161588Y-102851557D01*
X106363757Y-102917246D01*
X106573713Y-102950500D01*
X106573714Y-102950500D01*
X106786286Y-102950500D01*
X106786287Y-102950500D01*
X106996243Y-102917246D01*
X107198412Y-102851557D01*
X107387816Y-102755051D01*
X107446680Y-102712284D01*
X107559786Y-102630109D01*
X107559788Y-102630106D01*
X107559792Y-102630104D01*
X107710104Y-102479792D01*
X107710106Y-102479788D01*
X107710109Y-102479786D01*
X107835048Y-102307820D01*
X107835047Y-102307820D01*
X107835051Y-102307816D01*
X107931557Y-102118412D01*
X107997246Y-101916243D01*
X108030500Y-101706287D01*
X108030500Y-101493713D01*
X107997246Y-101283757D01*
X107931557Y-101081588D01*
X107835051Y-100892184D01*
X107835049Y-100892181D01*
X107835048Y-100892179D01*
X107710109Y-100720213D01*
X107559786Y-100569890D01*
X107387820Y-100444951D01*
X107387115Y-100444591D01*
X107379054Y-100440485D01*
X107328259Y-100392512D01*
X107311463Y-100324692D01*
X107333999Y-100258556D01*
X107379054Y-100219515D01*
X107387816Y-100215051D01*
X107446680Y-100172284D01*
X107559786Y-100090109D01*
X107559788Y-100090106D01*
X107559792Y-100090104D01*
X107710104Y-99939792D01*
X107710106Y-99939788D01*
X107710109Y-99939786D01*
X107835048Y-99767820D01*
X107835047Y-99767820D01*
X107835051Y-99767816D01*
X107931557Y-99578412D01*
X107997246Y-99376243D01*
X108030500Y-99166287D01*
X108030500Y-98953713D01*
X107997246Y-98743757D01*
X107931557Y-98541588D01*
X107835051Y-98352184D01*
X107835049Y-98352181D01*
X107835048Y-98352179D01*
X107710109Y-98180213D01*
X107559786Y-98029890D01*
X107387820Y-97904951D01*
X107387115Y-97904591D01*
X107379054Y-97900485D01*
X107328259Y-97852512D01*
X107311463Y-97784692D01*
X107333999Y-97718556D01*
X107379054Y-97679515D01*
X107387816Y-97675051D01*
X107446680Y-97632284D01*
X107559786Y-97550109D01*
X107559788Y-97550106D01*
X107559792Y-97550104D01*
X107710104Y-97399792D01*
X107710106Y-97399788D01*
X107710109Y-97399786D01*
X107830923Y-97233498D01*
X107835051Y-97227816D01*
X107931557Y-97038412D01*
X107997246Y-96836243D01*
X108030500Y-96626287D01*
X108030500Y-96413713D01*
X107997246Y-96203757D01*
X107931557Y-96001588D01*
X107835051Y-95812184D01*
X107835049Y-95812181D01*
X107835048Y-95812179D01*
X107710109Y-95640213D01*
X107559786Y-95489890D01*
X107387820Y-95364951D01*
X107387115Y-95364591D01*
X107379054Y-95360485D01*
X107328259Y-95312512D01*
X107311463Y-95244692D01*
X107333999Y-95178556D01*
X107379054Y-95139515D01*
X107387816Y-95135051D01*
X107473238Y-95072989D01*
X107559786Y-95010109D01*
X107559788Y-95010106D01*
X107559792Y-95010104D01*
X107710104Y-94859792D01*
X107710106Y-94859788D01*
X107710109Y-94859786D01*
X107835048Y-94687820D01*
X107835047Y-94687820D01*
X107835051Y-94687816D01*
X107931557Y-94498412D01*
X107997246Y-94296243D01*
X108030500Y-94086287D01*
X108030500Y-93873713D01*
X107997246Y-93663757D01*
X107931557Y-93461588D01*
X107835051Y-93272184D01*
X107835049Y-93272181D01*
X107835048Y-93272179D01*
X107710109Y-93100213D01*
X107559786Y-92949890D01*
X107387820Y-92824951D01*
X107387115Y-92824591D01*
X107379054Y-92820485D01*
X107328259Y-92772512D01*
X107311463Y-92704692D01*
X107333999Y-92638556D01*
X107379054Y-92599515D01*
X107387816Y-92595051D01*
X107446680Y-92552284D01*
X107559786Y-92470109D01*
X107559788Y-92470106D01*
X107559792Y-92470104D01*
X107710104Y-92319792D01*
X107710106Y-92319788D01*
X107710109Y-92319786D01*
X107835048Y-92147820D01*
X107835047Y-92147820D01*
X107835051Y-92147816D01*
X107931557Y-91958412D01*
X107997246Y-91756243D01*
X108030500Y-91546287D01*
X108030500Y-91333713D01*
X107997246Y-91123757D01*
X107931557Y-90921588D01*
X107835051Y-90732184D01*
X107835049Y-90732181D01*
X107835048Y-90732179D01*
X107710109Y-90560213D01*
X107559786Y-90409890D01*
X107387820Y-90284951D01*
X107387115Y-90284591D01*
X107379054Y-90280485D01*
X107328259Y-90232512D01*
X107311463Y-90164692D01*
X107333999Y-90098556D01*
X107379054Y-90059515D01*
X107387816Y-90055051D01*
X107429603Y-90024691D01*
X107559786Y-89930109D01*
X107559788Y-89930106D01*
X107559792Y-89930104D01*
X107710104Y-89779792D01*
X107710106Y-89779788D01*
X107710109Y-89779786D01*
X107835048Y-89607820D01*
X107835047Y-89607820D01*
X107835051Y-89607816D01*
X107931557Y-89418412D01*
X107997246Y-89216243D01*
X108030500Y-89006287D01*
X108030500Y-88793713D01*
X107997246Y-88583757D01*
X107931557Y-88381588D01*
X107835051Y-88192184D01*
X107835049Y-88192181D01*
X107835048Y-88192179D01*
X107710109Y-88020213D01*
X107559786Y-87869890D01*
X107387820Y-87744951D01*
X107387115Y-87744591D01*
X107379054Y-87740485D01*
X107328259Y-87692512D01*
X107311463Y-87624692D01*
X107333999Y-87558556D01*
X107379054Y-87519515D01*
X107387816Y-87515051D01*
X107446680Y-87472284D01*
X107559786Y-87390109D01*
X107559788Y-87390106D01*
X107559792Y-87390104D01*
X107710104Y-87239792D01*
X107710106Y-87239788D01*
X107710109Y-87239786D01*
X107835048Y-87067820D01*
X107835047Y-87067820D01*
X107835051Y-87067816D01*
X107931557Y-86878412D01*
X107997246Y-86676243D01*
X108030500Y-86466287D01*
X108030500Y-86253713D01*
X107997246Y-86043757D01*
X107931557Y-85841588D01*
X107835051Y-85652184D01*
X107835049Y-85652181D01*
X107835048Y-85652179D01*
X107710109Y-85480213D01*
X107559786Y-85329890D01*
X107387820Y-85204951D01*
X107387115Y-85204591D01*
X107379054Y-85200485D01*
X107328259Y-85152512D01*
X107311463Y-85084692D01*
X107333999Y-85018556D01*
X107379054Y-84979515D01*
X107387816Y-84975051D01*
X107509250Y-84886825D01*
X107559786Y-84850109D01*
X107559788Y-84850106D01*
X107559792Y-84850104D01*
X107710104Y-84699792D01*
X107710106Y-84699788D01*
X107710109Y-84699786D01*
X107835048Y-84527820D01*
X107835047Y-84527820D01*
X107835051Y-84527816D01*
X107931557Y-84338412D01*
X107997246Y-84136243D01*
X108030500Y-83926287D01*
X108030500Y-83713713D01*
X107997246Y-83503757D01*
X107931557Y-83301588D01*
X107835051Y-83112184D01*
X107835049Y-83112181D01*
X107835048Y-83112179D01*
X107710109Y-82940213D01*
X107559786Y-82789890D01*
X107387820Y-82664951D01*
X107381604Y-82661784D01*
X107379054Y-82660485D01*
X107328259Y-82612512D01*
X107311463Y-82544692D01*
X107333999Y-82478556D01*
X107379054Y-82439515D01*
X107387816Y-82435051D01*
X107458769Y-82383501D01*
X107559786Y-82310109D01*
X107559788Y-82310106D01*
X107559792Y-82310104D01*
X107710104Y-82159792D01*
X107710106Y-82159788D01*
X107710109Y-82159786D01*
X107835048Y-81987820D01*
X107835047Y-81987820D01*
X107835051Y-81987816D01*
X107931557Y-81798412D01*
X107997246Y-81596243D01*
X108030500Y-81386287D01*
X108030500Y-81173713D01*
X107997246Y-80963757D01*
X107931557Y-80761588D01*
X107835051Y-80572184D01*
X107835049Y-80572181D01*
X107835048Y-80572179D01*
X107710109Y-80400213D01*
X107559786Y-80249890D01*
X107387820Y-80124951D01*
X107383382Y-80122690D01*
X107379054Y-80120485D01*
X107328259Y-80072512D01*
X107311463Y-80004692D01*
X107333999Y-79938556D01*
X107379054Y-79899515D01*
X107387816Y-79895051D01*
X107509250Y-79806825D01*
X107559786Y-79770109D01*
X107559788Y-79770106D01*
X107559792Y-79770104D01*
X107710104Y-79619792D01*
X107710106Y-79619788D01*
X107710109Y-79619786D01*
X107835048Y-79447820D01*
X107835047Y-79447820D01*
X107835051Y-79447816D01*
X107931557Y-79258412D01*
X107997246Y-79056243D01*
X108030500Y-78846287D01*
X108030500Y-78633713D01*
X107997246Y-78423757D01*
X107931557Y-78221588D01*
X107835051Y-78032184D01*
X107835049Y-78032181D01*
X107835048Y-78032179D01*
X107710109Y-77860213D01*
X107559786Y-77709890D01*
X107387820Y-77584951D01*
X107384519Y-77583269D01*
X107379054Y-77580485D01*
X107328259Y-77532512D01*
X107311463Y-77464692D01*
X107333999Y-77398556D01*
X107379054Y-77359515D01*
X107387816Y-77355051D01*
X107446680Y-77312284D01*
X107559786Y-77230109D01*
X107559788Y-77230106D01*
X107559792Y-77230104D01*
X107710104Y-77079792D01*
X107710106Y-77079788D01*
X107710109Y-77079786D01*
X107835048Y-76907820D01*
X107835047Y-76907820D01*
X107835051Y-76907816D01*
X107931557Y-76718412D01*
X107997246Y-76516243D01*
X108030500Y-76306287D01*
X108030500Y-76093713D01*
X107997246Y-75883757D01*
X107931557Y-75681588D01*
X107835051Y-75492184D01*
X107835049Y-75492181D01*
X107835048Y-75492179D01*
X107710109Y-75320213D01*
X107559786Y-75169890D01*
X107387820Y-75044951D01*
X107387115Y-75044591D01*
X107379054Y-75040485D01*
X107328259Y-74992512D01*
X107311463Y-74924692D01*
X107333999Y-74858556D01*
X107379054Y-74819515D01*
X107387816Y-74815051D01*
X107446680Y-74772284D01*
X107559786Y-74690109D01*
X107559788Y-74690106D01*
X107559792Y-74690104D01*
X107710104Y-74539792D01*
X107710106Y-74539788D01*
X107710109Y-74539786D01*
X107835048Y-74367820D01*
X107835047Y-74367820D01*
X107835051Y-74367816D01*
X107931557Y-74178412D01*
X107997246Y-73976243D01*
X108030500Y-73766287D01*
X108030500Y-73553713D01*
X107997246Y-73343757D01*
X107931557Y-73141588D01*
X107835051Y-72952184D01*
X107835049Y-72952181D01*
X107835048Y-72952179D01*
X107710109Y-72780213D01*
X107559786Y-72629890D01*
X107387820Y-72504951D01*
X107387115Y-72504591D01*
X107379054Y-72500485D01*
X107328259Y-72452512D01*
X107311463Y-72384692D01*
X107333999Y-72318556D01*
X107379054Y-72279515D01*
X107387816Y-72275051D01*
X107446680Y-72232284D01*
X107559786Y-72150109D01*
X107559788Y-72150106D01*
X107559792Y-72150104D01*
X107710104Y-71999792D01*
X107710106Y-71999788D01*
X107710109Y-71999786D01*
X107835048Y-71827820D01*
X107835047Y-71827820D01*
X107835051Y-71827816D01*
X107931557Y-71638412D01*
X107997246Y-71436243D01*
X108030500Y-71226287D01*
X108030500Y-71013713D01*
X107997246Y-70803757D01*
X107931557Y-70601588D01*
X107835051Y-70412184D01*
X107835049Y-70412181D01*
X107835048Y-70412179D01*
X107710109Y-70240213D01*
X107559786Y-70089890D01*
X107387820Y-69964951D01*
X107387115Y-69964591D01*
X107379054Y-69960485D01*
X107328259Y-69912512D01*
X107311463Y-69844692D01*
X107333999Y-69778556D01*
X107379054Y-69739515D01*
X107387816Y-69735051D01*
X107446680Y-69692284D01*
X107559786Y-69610109D01*
X107559788Y-69610106D01*
X107559792Y-69610104D01*
X107710104Y-69459792D01*
X107710106Y-69459788D01*
X107710109Y-69459786D01*
X107835048Y-69287820D01*
X107835047Y-69287820D01*
X107835051Y-69287816D01*
X107931557Y-69098412D01*
X107997246Y-68896243D01*
X108030500Y-68686287D01*
X108030500Y-68473713D01*
X107997246Y-68263757D01*
X107931557Y-68061588D01*
X107835051Y-67872184D01*
X107835049Y-67872181D01*
X107835048Y-67872179D01*
X107710109Y-67700213D01*
X107559786Y-67549890D01*
X107387820Y-67424951D01*
X107387115Y-67424591D01*
X107379054Y-67420485D01*
X107328259Y-67372512D01*
X107311463Y-67304692D01*
X107333999Y-67238556D01*
X107379054Y-67199515D01*
X107387816Y-67195051D01*
X107547760Y-67078846D01*
X107559786Y-67070109D01*
X107559788Y-67070106D01*
X107559792Y-67070104D01*
X107710104Y-66919792D01*
X107710106Y-66919788D01*
X107710109Y-66919786D01*
X107835048Y-66747820D01*
X107835047Y-66747820D01*
X107835051Y-66747816D01*
X107931557Y-66558412D01*
X107997246Y-66356243D01*
X108030500Y-66146287D01*
X108030500Y-65933713D01*
X107997246Y-65723757D01*
X107931557Y-65521588D01*
X107835051Y-65332184D01*
X107835049Y-65332181D01*
X107835048Y-65332179D01*
X107710109Y-65160213D01*
X107596569Y-65046673D01*
X107563084Y-64985350D01*
X107568068Y-64915658D01*
X107609940Y-64859725D01*
X107640915Y-64842810D01*
X107772331Y-64793796D01*
X107887546Y-64707546D01*
X107973796Y-64592331D01*
X108024091Y-64457483D01*
X108030500Y-64397873D01*
X108030499Y-62652135D01*
X110459500Y-62652135D01*
X110459500Y-64347870D01*
X110459501Y-64347876D01*
X110465908Y-64407483D01*
X110516202Y-64542328D01*
X110516206Y-64542335D01*
X110602452Y-64657544D01*
X110602455Y-64657547D01*
X110717664Y-64743793D01*
X110717671Y-64743797D01*
X110762618Y-64760561D01*
X110852517Y-64794091D01*
X110889441Y-64798060D01*
X110953989Y-64824796D01*
X110993838Y-64882188D01*
X110996333Y-64952013D01*
X110960681Y-65012102D01*
X110949071Y-65021666D01*
X110912784Y-65048030D01*
X110768028Y-65192786D01*
X110647715Y-65358386D01*
X110554781Y-65540776D01*
X110491522Y-65735465D01*
X110459500Y-65937648D01*
X110459500Y-66142351D01*
X110491522Y-66344534D01*
X110554781Y-66539223D01*
X110647715Y-66721613D01*
X110768028Y-66887213D01*
X110912786Y-67031971D01*
X111015816Y-67106825D01*
X111078390Y-67152287D01*
X111162313Y-67195048D01*
X111171080Y-67199515D01*
X111221876Y-67247490D01*
X111238671Y-67315311D01*
X111216134Y-67381446D01*
X111171080Y-67420485D01*
X111078386Y-67467715D01*
X110912786Y-67588028D01*
X110768028Y-67732786D01*
X110647715Y-67898386D01*
X110554781Y-68080776D01*
X110491522Y-68275465D01*
X110459500Y-68477648D01*
X110459500Y-68682351D01*
X110491522Y-68884534D01*
X110554781Y-69079223D01*
X110647715Y-69261613D01*
X110768028Y-69427213D01*
X110912786Y-69571971D01*
X111059016Y-69678211D01*
X111078390Y-69692287D01*
X111159269Y-69733497D01*
X111171080Y-69739515D01*
X111221876Y-69787490D01*
X111238671Y-69855311D01*
X111216134Y-69921446D01*
X111171080Y-69960485D01*
X111078386Y-70007715D01*
X110912786Y-70128028D01*
X110768028Y-70272786D01*
X110647715Y-70438386D01*
X110554781Y-70620776D01*
X110491522Y-70815465D01*
X110459500Y-71017648D01*
X110459500Y-71222351D01*
X110491522Y-71424534D01*
X110554781Y-71619223D01*
X110647715Y-71801613D01*
X110768028Y-71967213D01*
X110912786Y-72111971D01*
X111011241Y-72183501D01*
X111078390Y-72232287D01*
X111162313Y-72275048D01*
X111171080Y-72279515D01*
X111221876Y-72327490D01*
X111238671Y-72395311D01*
X111216134Y-72461446D01*
X111171080Y-72500485D01*
X111078386Y-72547715D01*
X110912786Y-72668028D01*
X110768028Y-72812786D01*
X110647715Y-72978386D01*
X110554781Y-73160776D01*
X110491522Y-73355465D01*
X110459500Y-73557648D01*
X110459500Y-73762351D01*
X110491522Y-73964534D01*
X110554781Y-74159223D01*
X110647715Y-74341613D01*
X110768028Y-74507213D01*
X110912786Y-74651971D01*
X111067749Y-74764556D01*
X111078390Y-74772287D01*
X111162313Y-74815048D01*
X111171080Y-74819515D01*
X111221876Y-74867490D01*
X111238671Y-74935311D01*
X111216134Y-75001446D01*
X111171080Y-75040485D01*
X111078386Y-75087715D01*
X110912786Y-75208028D01*
X110768028Y-75352786D01*
X110647715Y-75518386D01*
X110554781Y-75700776D01*
X110491522Y-75895465D01*
X110459500Y-76097648D01*
X110459500Y-76302351D01*
X110491522Y-76504534D01*
X110554781Y-76699223D01*
X110611328Y-76810201D01*
X110642387Y-76871158D01*
X110647715Y-76881613D01*
X110768028Y-77047213D01*
X110912786Y-77191971D01*
X111067749Y-77304556D01*
X111078390Y-77312287D01*
X111162313Y-77355048D01*
X111171080Y-77359515D01*
X111221876Y-77407490D01*
X111238671Y-77475311D01*
X111216134Y-77541446D01*
X111171080Y-77580485D01*
X111078386Y-77627715D01*
X110912786Y-77748028D01*
X110768028Y-77892786D01*
X110647715Y-78058386D01*
X110554781Y-78240776D01*
X110491522Y-78435465D01*
X110459500Y-78637648D01*
X110459500Y-78842351D01*
X110491522Y-79044534D01*
X110554781Y-79239223D01*
X110647715Y-79421613D01*
X110768028Y-79587213D01*
X110912786Y-79731971D01*
X111015816Y-79806825D01*
X111078390Y-79852287D01*
X111139651Y-79883501D01*
X111171080Y-79899515D01*
X111221876Y-79947490D01*
X111238671Y-80015311D01*
X111216134Y-80081446D01*
X111171080Y-80120485D01*
X111078386Y-80167715D01*
X110912786Y-80288028D01*
X110768028Y-80432786D01*
X110647715Y-80598386D01*
X110554781Y-80780776D01*
X110491522Y-80975465D01*
X110459500Y-81177648D01*
X110459500Y-81382351D01*
X110491522Y-81584534D01*
X110554781Y-81779223D01*
X110647715Y-81961613D01*
X110768028Y-82127213D01*
X110912786Y-82271971D01*
X111066297Y-82383501D01*
X111078390Y-82392287D01*
X111157827Y-82432762D01*
X111171080Y-82439515D01*
X111221876Y-82487490D01*
X111238671Y-82555311D01*
X111216134Y-82621446D01*
X111171080Y-82660485D01*
X111078386Y-82707715D01*
X110912786Y-82828028D01*
X110768028Y-82972786D01*
X110647715Y-83138386D01*
X110554781Y-83320776D01*
X110491522Y-83515465D01*
X110459500Y-83717648D01*
X110459500Y-83922351D01*
X110491522Y-84124534D01*
X110554781Y-84319223D01*
X110614924Y-84437259D01*
X110641946Y-84490292D01*
X110647715Y-84501613D01*
X110768028Y-84667213D01*
X110912786Y-84811971D01*
X111015816Y-84886825D01*
X111078390Y-84932287D01*
X111162313Y-84975048D01*
X111171080Y-84979515D01*
X111221876Y-85027490D01*
X111238671Y-85095311D01*
X111216134Y-85161446D01*
X111171080Y-85200485D01*
X111078386Y-85247715D01*
X110912786Y-85368028D01*
X110768028Y-85512786D01*
X110647715Y-85678386D01*
X110554781Y-85860776D01*
X110491522Y-86055465D01*
X110459500Y-86257648D01*
X110459500Y-86462351D01*
X110491522Y-86664534D01*
X110554781Y-86859223D01*
X110604604Y-86957004D01*
X110634521Y-87015720D01*
X110647715Y-87041613D01*
X110768028Y-87207213D01*
X110912786Y-87351971D01*
X111067749Y-87464556D01*
X111078390Y-87472287D01*
X111162313Y-87515048D01*
X111171080Y-87519515D01*
X111221876Y-87567490D01*
X111238671Y-87635311D01*
X111216134Y-87701446D01*
X111171080Y-87740485D01*
X111078386Y-87787715D01*
X110912786Y-87908028D01*
X110768028Y-88052786D01*
X110647715Y-88218386D01*
X110554781Y-88400776D01*
X110491522Y-88595465D01*
X110460123Y-88793713D01*
X110459500Y-88797648D01*
X110459500Y-89002352D01*
X110460580Y-89009172D01*
X110491522Y-89204534D01*
X110554781Y-89399223D01*
X110598578Y-89485178D01*
X110640989Y-89568414D01*
X110647715Y-89581613D01*
X110768028Y-89747213D01*
X110912786Y-89891971D01*
X111067749Y-90004556D01*
X111078390Y-90012287D01*
X111153666Y-90050642D01*
X111171080Y-90059515D01*
X111221876Y-90107490D01*
X111238671Y-90175311D01*
X111216134Y-90241446D01*
X111171080Y-90280485D01*
X111078386Y-90327715D01*
X110912786Y-90448028D01*
X110768028Y-90592786D01*
X110647715Y-90758386D01*
X110554781Y-90940776D01*
X110491522Y-91135465D01*
X110459500Y-91337648D01*
X110459500Y-91542351D01*
X110491522Y-91744534D01*
X110554781Y-91939223D01*
X110618691Y-92064653D01*
X110645114Y-92116510D01*
X110647715Y-92121613D01*
X110768028Y-92287213D01*
X110912786Y-92431971D01*
X111067749Y-92544556D01*
X111078390Y-92552287D01*
X111139651Y-92583501D01*
X111171080Y-92599515D01*
X111221876Y-92647490D01*
X111238671Y-92715311D01*
X111216134Y-92781446D01*
X111171080Y-92820485D01*
X111078386Y-92867715D01*
X110912786Y-92988028D01*
X110768028Y-93132786D01*
X110647715Y-93298386D01*
X110554781Y-93480776D01*
X110491522Y-93675465D01*
X110459500Y-93877648D01*
X110459500Y-94082351D01*
X110491522Y-94284534D01*
X110554781Y-94479223D01*
X110647715Y-94661613D01*
X110768028Y-94827213D01*
X110912786Y-94971971D01*
X111051828Y-95072989D01*
X111078390Y-95092287D01*
X111149299Y-95128417D01*
X111171080Y-95139515D01*
X111221876Y-95187490D01*
X111238671Y-95255311D01*
X111216134Y-95321446D01*
X111171080Y-95360485D01*
X111078386Y-95407715D01*
X110912786Y-95528028D01*
X110768028Y-95672786D01*
X110647715Y-95838386D01*
X110554781Y-96020776D01*
X110491522Y-96215465D01*
X110470515Y-96348100D01*
X110459500Y-96417648D01*
X110459500Y-96622352D01*
X110462275Y-96639872D01*
X110491522Y-96824534D01*
X110554781Y-97019223D01*
X110607377Y-97122446D01*
X110632518Y-97171789D01*
X110647715Y-97201613D01*
X110768028Y-97367213D01*
X110912786Y-97511971D01*
X111015816Y-97586825D01*
X111078390Y-97632287D01*
X111162313Y-97675048D01*
X111171080Y-97679515D01*
X111221876Y-97727490D01*
X111238671Y-97795311D01*
X111216134Y-97861446D01*
X111171080Y-97900485D01*
X111078386Y-97947715D01*
X110912786Y-98068028D01*
X110768028Y-98212786D01*
X110647715Y-98378386D01*
X110554781Y-98560776D01*
X110491522Y-98755465D01*
X110459500Y-98957648D01*
X110459500Y-99162351D01*
X110491522Y-99364534D01*
X110554781Y-99559223D01*
X110605820Y-99659390D01*
X110646203Y-99738647D01*
X110647715Y-99741613D01*
X110768028Y-99907213D01*
X110912786Y-100051971D01*
X111067749Y-100164556D01*
X111078390Y-100172287D01*
X111162313Y-100215048D01*
X111171080Y-100219515D01*
X111221876Y-100267490D01*
X111238671Y-100335311D01*
X111216134Y-100401446D01*
X111171080Y-100440485D01*
X111078386Y-100487715D01*
X110912786Y-100608028D01*
X110768028Y-100752786D01*
X110647715Y-100918386D01*
X110554781Y-101100776D01*
X110491522Y-101295465D01*
X110459500Y-101497648D01*
X110459500Y-101702351D01*
X110491522Y-101904534D01*
X110554781Y-102099223D01*
X110603696Y-102195222D01*
X110626820Y-102240606D01*
X110647715Y-102281613D01*
X110768028Y-102447213D01*
X110912786Y-102591971D01*
X111067749Y-102704556D01*
X111078390Y-102712287D01*
X111162319Y-102755051D01*
X111260776Y-102805218D01*
X111260778Y-102805218D01*
X111260781Y-102805220D01*
X111365137Y-102839127D01*
X111455465Y-102868477D01*
X111556557Y-102884488D01*
X111657648Y-102900500D01*
X111657649Y-102900500D01*
X111862351Y-102900500D01*
X111862352Y-102900500D01*
X112064534Y-102868477D01*
X112259219Y-102805220D01*
X112441610Y-102712287D01*
X112554726Y-102630104D01*
X112607213Y-102591971D01*
X112607215Y-102591968D01*
X112607219Y-102591966D01*
X112751966Y-102447219D01*
X112751968Y-102447215D01*
X112751971Y-102447213D01*
X112838428Y-102328213D01*
X112872287Y-102281610D01*
X112965220Y-102099219D01*
X113028477Y-101904534D01*
X113060500Y-101702352D01*
X113060500Y-101497648D01*
X113028477Y-101295466D01*
X113024673Y-101283760D01*
X112974339Y-101128846D01*
X112965220Y-101100781D01*
X112965218Y-101100778D01*
X112965218Y-101100776D01*
X112919095Y-101010256D01*
X112872287Y-100918390D01*
X112864556Y-100907749D01*
X112751971Y-100752786D01*
X112607213Y-100608028D01*
X112441614Y-100487715D01*
X112435006Y-100484348D01*
X112348917Y-100440483D01*
X112298123Y-100392511D01*
X112281328Y-100324690D01*
X112303865Y-100258555D01*
X112348917Y-100219516D01*
X112441610Y-100172287D01*
X112462770Y-100156913D01*
X112607213Y-100051971D01*
X112607215Y-100051968D01*
X112607219Y-100051966D01*
X112751966Y-99907219D01*
X112751968Y-99907215D01*
X112751971Y-99907213D01*
X112821390Y-99811664D01*
X112872287Y-99741610D01*
X112965220Y-99559219D01*
X113028477Y-99364534D01*
X113060500Y-99162352D01*
X113060500Y-98957648D01*
X113058209Y-98943184D01*
X113048909Y-98884463D01*
X113046801Y-98871153D01*
X113749500Y-98871153D01*
X113749500Y-99028846D01*
X113780261Y-99183489D01*
X113780264Y-99183501D01*
X113840602Y-99329172D01*
X113840609Y-99329185D01*
X113928210Y-99460288D01*
X113928213Y-99460292D01*
X114039707Y-99571786D01*
X114039711Y-99571789D01*
X114170814Y-99659390D01*
X114170827Y-99659397D01*
X114313681Y-99718568D01*
X114316503Y-99719737D01*
X114471153Y-99750499D01*
X114471156Y-99750500D01*
X114471158Y-99750500D01*
X114628844Y-99750500D01*
X114628845Y-99750499D01*
X114783497Y-99719737D01*
X114929179Y-99659394D01*
X115060289Y-99571789D01*
X115171789Y-99460289D01*
X115259394Y-99329179D01*
X115319737Y-99183497D01*
X115350500Y-99028842D01*
X115350500Y-98871158D01*
X115350500Y-98871155D01*
X115350499Y-98871153D01*
X115330543Y-98770827D01*
X115319737Y-98716503D01*
X115293422Y-98652973D01*
X115259397Y-98570827D01*
X115259390Y-98570814D01*
X115171789Y-98439711D01*
X115171786Y-98439707D01*
X115060292Y-98328213D01*
X115060288Y-98328210D01*
X114929185Y-98240609D01*
X114929172Y-98240602D01*
X114783501Y-98180264D01*
X114783489Y-98180261D01*
X114628845Y-98149500D01*
X114628842Y-98149500D01*
X114471158Y-98149500D01*
X114471155Y-98149500D01*
X114316510Y-98180261D01*
X114316498Y-98180264D01*
X114170827Y-98240602D01*
X114170814Y-98240609D01*
X114039711Y-98328210D01*
X114039707Y-98328213D01*
X113928213Y-98439707D01*
X113928210Y-98439711D01*
X113840609Y-98570814D01*
X113840602Y-98570827D01*
X113780264Y-98716498D01*
X113780261Y-98716510D01*
X113749500Y-98871153D01*
X113046801Y-98871153D01*
X113028477Y-98755465D01*
X112965218Y-98560776D01*
X112920380Y-98472778D01*
X112872287Y-98378390D01*
X112853512Y-98352548D01*
X112751971Y-98212786D01*
X112607213Y-98068028D01*
X112441614Y-97947715D01*
X112417264Y-97935308D01*
X112348917Y-97900483D01*
X112298123Y-97852511D01*
X112281328Y-97784690D01*
X112303865Y-97718555D01*
X112348917Y-97679516D01*
X112441610Y-97632287D01*
X112504184Y-97586825D01*
X112607213Y-97511971D01*
X112607215Y-97511968D01*
X112607219Y-97511966D01*
X112751966Y-97367219D01*
X112751968Y-97367215D01*
X112751971Y-97367213D01*
X112804732Y-97294590D01*
X112872287Y-97201610D01*
X112965220Y-97019219D01*
X113028477Y-96824534D01*
X113060500Y-96622352D01*
X113060500Y-96471153D01*
X113749500Y-96471153D01*
X113749500Y-96628846D01*
X113780261Y-96783489D01*
X113780264Y-96783501D01*
X113840602Y-96929172D01*
X113840609Y-96929185D01*
X113928210Y-97060288D01*
X113928213Y-97060292D01*
X114039707Y-97171786D01*
X114039711Y-97171789D01*
X114170814Y-97259390D01*
X114170827Y-97259397D01*
X114316498Y-97319735D01*
X114316503Y-97319737D01*
X114471153Y-97350499D01*
X114471156Y-97350500D01*
X114471158Y-97350500D01*
X114628844Y-97350500D01*
X114628845Y-97350499D01*
X114783497Y-97319737D01*
X114929179Y-97259394D01*
X115060289Y-97171789D01*
X115171789Y-97060289D01*
X115259394Y-96929179D01*
X115319737Y-96783497D01*
X115350500Y-96628842D01*
X115350500Y-96471158D01*
X115350500Y-96471155D01*
X115350499Y-96471153D01*
X115346192Y-96449500D01*
X115319737Y-96316503D01*
X115319735Y-96316498D01*
X115259397Y-96170827D01*
X115259390Y-96170814D01*
X115171789Y-96039711D01*
X115171786Y-96039707D01*
X115060292Y-95928213D01*
X115060288Y-95928210D01*
X114929185Y-95840609D01*
X114929172Y-95840602D01*
X114783501Y-95780264D01*
X114783489Y-95780261D01*
X114628845Y-95749500D01*
X114628842Y-95749500D01*
X114471158Y-95749500D01*
X114471155Y-95749500D01*
X114316510Y-95780261D01*
X114316498Y-95780264D01*
X114170827Y-95840602D01*
X114170814Y-95840609D01*
X114039711Y-95928210D01*
X114039707Y-95928213D01*
X113928213Y-96039707D01*
X113928210Y-96039711D01*
X113840609Y-96170814D01*
X113840602Y-96170827D01*
X113780264Y-96316498D01*
X113780261Y-96316510D01*
X113749500Y-96471153D01*
X113060500Y-96471153D01*
X113060500Y-96417648D01*
X113030821Y-96230263D01*
X113028477Y-96215465D01*
X112996321Y-96116500D01*
X112965220Y-96020781D01*
X112965218Y-96020778D01*
X112965218Y-96020776D01*
X112918053Y-95928211D01*
X112872287Y-95838390D01*
X112859527Y-95820827D01*
X112751971Y-95672786D01*
X112607213Y-95528028D01*
X112441614Y-95407715D01*
X112417264Y-95395308D01*
X112348917Y-95360483D01*
X112298123Y-95312511D01*
X112281328Y-95244690D01*
X112303865Y-95178555D01*
X112348917Y-95139516D01*
X112441610Y-95092287D01*
X112522311Y-95033655D01*
X112607213Y-94971971D01*
X112607215Y-94971968D01*
X112607219Y-94971966D01*
X112751966Y-94827219D01*
X112751968Y-94827215D01*
X112751971Y-94827213D01*
X112820191Y-94733314D01*
X112872287Y-94661610D01*
X112965220Y-94479219D01*
X113028477Y-94284534D01*
X113054354Y-94121153D01*
X116299500Y-94121153D01*
X116299500Y-94278846D01*
X116330261Y-94433489D01*
X116330264Y-94433501D01*
X116390602Y-94579172D01*
X116390609Y-94579185D01*
X116478210Y-94710288D01*
X116478213Y-94710292D01*
X116589707Y-94821786D01*
X116589711Y-94821789D01*
X116720814Y-94909390D01*
X116720827Y-94909397D01*
X116854637Y-94964822D01*
X116866503Y-94969737D01*
X117002150Y-94996719D01*
X117021153Y-95000499D01*
X117021156Y-95000500D01*
X117085597Y-95000500D01*
X117152636Y-95020185D01*
X117198391Y-95072989D01*
X117208335Y-95142147D01*
X117179310Y-95205703D01*
X117173278Y-95212181D01*
X117057940Y-95327518D01*
X117057937Y-95327522D01*
X116970336Y-95458625D01*
X116970329Y-95458638D01*
X116909991Y-95604309D01*
X116909988Y-95604321D01*
X116879227Y-95758964D01*
X116879227Y-95916657D01*
X116909988Y-96071300D01*
X116909991Y-96071312D01*
X116970329Y-96216983D01*
X116970336Y-96216996D01*
X117057937Y-96348099D01*
X117057940Y-96348103D01*
X117169434Y-96459597D01*
X117169438Y-96459600D01*
X117305006Y-96550184D01*
X117349811Y-96603796D01*
X117357732Y-96629094D01*
X117386756Y-96775004D01*
X117386759Y-96775014D01*
X117444628Y-96914724D01*
X117452097Y-96984193D01*
X117420821Y-97046672D01*
X117398958Y-97065278D01*
X117297866Y-97132826D01*
X117297862Y-97132829D01*
X117186368Y-97244323D01*
X117186365Y-97244327D01*
X117098764Y-97375430D01*
X117098757Y-97375443D01*
X117038419Y-97521114D01*
X117038416Y-97521126D01*
X117007655Y-97675769D01*
X117007655Y-97833462D01*
X117038416Y-97988105D01*
X117038419Y-97988117D01*
X117098757Y-98133788D01*
X117098764Y-98133801D01*
X117186365Y-98264904D01*
X117186368Y-98264908D01*
X117297862Y-98376402D01*
X117297866Y-98376405D01*
X117428969Y-98464006D01*
X117428976Y-98464010D01*
X117450146Y-98472778D01*
X117504549Y-98516618D01*
X117526615Y-98582912D01*
X117509337Y-98650612D01*
X117458200Y-98698223D01*
X117450147Y-98701901D01*
X117348325Y-98744077D01*
X117348315Y-98744082D01*
X117217212Y-98831683D01*
X117217208Y-98831686D01*
X117105714Y-98943180D01*
X117105711Y-98943184D01*
X117018110Y-99074287D01*
X117018103Y-99074300D01*
X116957765Y-99219971D01*
X116957762Y-99219983D01*
X116927001Y-99374626D01*
X116927001Y-99532319D01*
X116957762Y-99686962D01*
X116957765Y-99686974D01*
X117018103Y-99832645D01*
X117018110Y-99832658D01*
X117105711Y-99963761D01*
X117105714Y-99963765D01*
X117217208Y-100075259D01*
X117217212Y-100075262D01*
X117348315Y-100162863D01*
X117348328Y-100162870D01*
X117485081Y-100219514D01*
X117494004Y-100223210D01*
X117623211Y-100248911D01*
X117648654Y-100253972D01*
X117648657Y-100253973D01*
X117648659Y-100253973D01*
X117806345Y-100253973D01*
X117806346Y-100253972D01*
X117960998Y-100223210D01*
X118106680Y-100162867D01*
X118237790Y-100075262D01*
X118349290Y-99963762D01*
X118436895Y-99832652D01*
X118439544Y-99826258D01*
X118470923Y-99750500D01*
X118497238Y-99686970D01*
X118528001Y-99532315D01*
X118528001Y-99374631D01*
X118528001Y-99374628D01*
X118528000Y-99374626D01*
X118518960Y-99329179D01*
X118497238Y-99219976D01*
X118475815Y-99168258D01*
X118475646Y-99166684D01*
X118474684Y-99165428D01*
X118471924Y-99132066D01*
X118468347Y-99098789D01*
X118469055Y-99097373D01*
X118468925Y-99095796D01*
X118484641Y-99066236D01*
X118499622Y-99036310D01*
X118500982Y-99035502D01*
X118501726Y-99034105D01*
X118530927Y-99017735D01*
X118559711Y-99000658D01*
X118561736Y-99000465D01*
X118562674Y-98999940D01*
X118568082Y-98999861D01*
X118597848Y-98997031D01*
X118606275Y-98997539D01*
X118621158Y-99000500D01*
X118655323Y-99000500D01*
X118659051Y-99000725D01*
X118688548Y-99011355D01*
X118718619Y-99020185D01*
X118721147Y-99023103D01*
X118724782Y-99024413D01*
X118743849Y-99049302D01*
X118764374Y-99072989D01*
X118766108Y-99076972D01*
X118825341Y-99219971D01*
X118826380Y-99222480D01*
X118826382Y-99222484D01*
X118913983Y-99353587D01*
X118913986Y-99353591D01*
X119025480Y-99465085D01*
X119025484Y-99465088D01*
X119156587Y-99552689D01*
X119156600Y-99552696D01*
X119272011Y-99600500D01*
X119302276Y-99613036D01*
X119411057Y-99634674D01*
X119456926Y-99643798D01*
X119456929Y-99643799D01*
X119456931Y-99643799D01*
X119614617Y-99643799D01*
X119614618Y-99643798D01*
X119769270Y-99613036D01*
X119914952Y-99552693D01*
X120046062Y-99465088D01*
X120088039Y-99423111D01*
X120149362Y-99389625D01*
X120219053Y-99394609D01*
X120274987Y-99436479D01*
X120290281Y-99463337D01*
X120303826Y-99496038D01*
X120303829Y-99496043D01*
X120391432Y-99627149D01*
X120391435Y-99627153D01*
X120502929Y-99738647D01*
X120502933Y-99738650D01*
X120634036Y-99826251D01*
X120634049Y-99826258D01*
X120718722Y-99861330D01*
X120779725Y-99886598D01*
X120934375Y-99917360D01*
X120934378Y-99917361D01*
X120934380Y-99917361D01*
X121092066Y-99917361D01*
X121092067Y-99917360D01*
X121246719Y-99886598D01*
X121392401Y-99826255D01*
X121523511Y-99738650D01*
X121635011Y-99627150D01*
X121673375Y-99569735D01*
X121716223Y-99505609D01*
X121769835Y-99460804D01*
X121819325Y-99450500D01*
X121878844Y-99450500D01*
X121878845Y-99450499D01*
X122033497Y-99419737D01*
X122035925Y-99418730D01*
X122037300Y-99418582D01*
X122039328Y-99417968D01*
X122039444Y-99418352D01*
X122105393Y-99411256D01*
X122152278Y-99430186D01*
X122270814Y-99509390D01*
X122270827Y-99509397D01*
X122416498Y-99569735D01*
X122416503Y-99569737D01*
X122555840Y-99597453D01*
X122571153Y-99600499D01*
X122571156Y-99600500D01*
X122571158Y-99600500D01*
X122728843Y-99600500D01*
X122744160Y-99597453D01*
X122813752Y-99603679D01*
X122859201Y-99634674D01*
X122865949Y-99641938D01*
X122878211Y-99660289D01*
X122945601Y-99727679D01*
X122947158Y-99729355D01*
X122961787Y-99758661D01*
X122977476Y-99787393D01*
X122977307Y-99789752D01*
X122978364Y-99791869D01*
X122974827Y-99824425D01*
X122972492Y-99857085D01*
X122971033Y-99859354D01*
X122970819Y-99861330D01*
X122965653Y-99867725D01*
X122943991Y-99901432D01*
X122885715Y-99959707D01*
X122885712Y-99959711D01*
X122798111Y-100090814D01*
X122798104Y-100090827D01*
X122737766Y-100236498D01*
X122737763Y-100236510D01*
X122707002Y-100391153D01*
X122707002Y-100548846D01*
X122737763Y-100703489D01*
X122737766Y-100703501D01*
X122798104Y-100849172D01*
X122798111Y-100849185D01*
X122885712Y-100980288D01*
X122885715Y-100980292D01*
X122997209Y-101091786D01*
X122997213Y-101091789D01*
X123128316Y-101179390D01*
X123128329Y-101179397D01*
X123250495Y-101229999D01*
X123274005Y-101239737D01*
X123428655Y-101270499D01*
X123428658Y-101270500D01*
X123428660Y-101270500D01*
X123586346Y-101270500D01*
X123586347Y-101270499D01*
X123740999Y-101239737D01*
X123886681Y-101179394D01*
X124017791Y-101091789D01*
X124129291Y-100980289D01*
X124216896Y-100849179D01*
X124277239Y-100703497D01*
X124308002Y-100548842D01*
X124308002Y-100391158D01*
X124308002Y-100391155D01*
X124308001Y-100391153D01*
X124297947Y-100340609D01*
X124277239Y-100236503D01*
X124270203Y-100219516D01*
X124216899Y-100090827D01*
X124216892Y-100090814D01*
X124129291Y-99959711D01*
X124129288Y-99959707D01*
X124063511Y-99893930D01*
X124030026Y-99832607D01*
X124035010Y-99762915D01*
X124063511Y-99718568D01*
X124121786Y-99660292D01*
X124121789Y-99660289D01*
X124209394Y-99529179D01*
X124269737Y-99383497D01*
X124300500Y-99228842D01*
X124300500Y-99071158D01*
X124300500Y-99071155D01*
X124300499Y-99071153D01*
X124299521Y-99066236D01*
X124269737Y-98916503D01*
X124250955Y-98871158D01*
X124209397Y-98770827D01*
X124209390Y-98770814D01*
X124121789Y-98639711D01*
X124121786Y-98639707D01*
X124010292Y-98528213D01*
X124010288Y-98528210D01*
X123879185Y-98440609D01*
X123879172Y-98440602D01*
X123733501Y-98380264D01*
X123733489Y-98380261D01*
X123578845Y-98349500D01*
X123578842Y-98349500D01*
X123421158Y-98349500D01*
X123405831Y-98352548D01*
X123336240Y-98346317D01*
X123281065Y-98303451D01*
X123278544Y-98299820D01*
X123271789Y-98289711D01*
X123271786Y-98289707D01*
X123160292Y-98178213D01*
X123160288Y-98178210D01*
X123029185Y-98090609D01*
X123029172Y-98090602D01*
X122883501Y-98030264D01*
X122883489Y-98030261D01*
X122728845Y-97999500D01*
X122728842Y-97999500D01*
X122571158Y-97999500D01*
X122571155Y-97999500D01*
X122416511Y-98030260D01*
X122416495Y-98030265D01*
X122414053Y-98031277D01*
X122412673Y-98031425D01*
X122410680Y-98032030D01*
X122410565Y-98031651D01*
X122344583Y-98038738D01*
X122297722Y-98019813D01*
X122179185Y-97940609D01*
X122179172Y-97940602D01*
X122033501Y-97880264D01*
X122033489Y-97880261D01*
X121878845Y-97849500D01*
X121878842Y-97849500D01*
X121721158Y-97849500D01*
X121721155Y-97849500D01*
X121566510Y-97880261D01*
X121566498Y-97880264D01*
X121420827Y-97940602D01*
X121420814Y-97940609D01*
X121289711Y-98028210D01*
X121201331Y-98116590D01*
X121189410Y-98123098D01*
X121180498Y-98133346D01*
X121159345Y-98139514D01*
X121140007Y-98150074D01*
X121126461Y-98149105D01*
X121113422Y-98152908D01*
X121092293Y-98146661D01*
X121070316Y-98145090D01*
X121058004Y-98136525D01*
X121046419Y-98133100D01*
X121030348Y-98117284D01*
X121019788Y-98109938D01*
X121014790Y-98104148D01*
X120984737Y-98059171D01*
X120920542Y-97994976D01*
X120917568Y-97991531D01*
X120904915Y-97963692D01*
X120890264Y-97936859D01*
X120890598Y-97932187D01*
X120888660Y-97927923D01*
X120893066Y-97897664D01*
X120895248Y-97867167D01*
X120898054Y-97863417D01*
X120898730Y-97858782D01*
X120918798Y-97835707D01*
X120937120Y-97811234D01*
X120941962Y-97809074D01*
X120944582Y-97806063D01*
X120956528Y-97802578D01*
X120987239Y-97788884D01*
X120989285Y-97788477D01*
X121083497Y-97769737D01*
X121229179Y-97709394D01*
X121360289Y-97621789D01*
X121471789Y-97510289D01*
X121559394Y-97379179D01*
X121560942Y-97375443D01*
X121584016Y-97319735D01*
X121619737Y-97233497D01*
X121622446Y-97219874D01*
X121654830Y-97157964D01*
X121715545Y-97123388D01*
X121719855Y-97122450D01*
X121733497Y-97119737D01*
X121879179Y-97059394D01*
X121997722Y-96980185D01*
X122064399Y-96959308D01*
X122110642Y-96968078D01*
X122110676Y-96967969D01*
X122111698Y-96968279D01*
X122114069Y-96968728D01*
X122116503Y-96969737D01*
X122271153Y-97000499D01*
X122271156Y-97000500D01*
X122271158Y-97000500D01*
X122428844Y-97000500D01*
X122428845Y-97000499D01*
X122583497Y-96969737D01*
X122729179Y-96909394D01*
X122860289Y-96821789D01*
X122971789Y-96710289D01*
X123059394Y-96579179D01*
X123119737Y-96433497D01*
X123150500Y-96278842D01*
X123150500Y-96121158D01*
X123150500Y-96121155D01*
X123150499Y-96121153D01*
X123140584Y-96071308D01*
X123119737Y-95966503D01*
X123103876Y-95928210D01*
X123059397Y-95820827D01*
X123059390Y-95820814D01*
X122971789Y-95689711D01*
X122971786Y-95689707D01*
X122860292Y-95578213D01*
X122860288Y-95578210D01*
X122729185Y-95490609D01*
X122729172Y-95490602D01*
X122583501Y-95430264D01*
X122583489Y-95430261D01*
X122428845Y-95399500D01*
X122428842Y-95399500D01*
X122271158Y-95399500D01*
X122271155Y-95399500D01*
X122116510Y-95430261D01*
X122116498Y-95430264D01*
X121970827Y-95490602D01*
X121970814Y-95490609D01*
X121852278Y-95569813D01*
X121785600Y-95590691D01*
X121739356Y-95581922D01*
X121739324Y-95582031D01*
X121738315Y-95581725D01*
X121735942Y-95581275D01*
X121733504Y-95580265D01*
X121733497Y-95580263D01*
X121733495Y-95580262D01*
X121733489Y-95580261D01*
X121578845Y-95549500D01*
X121578842Y-95549500D01*
X121421158Y-95549500D01*
X121421155Y-95549500D01*
X121266510Y-95580261D01*
X121266498Y-95580264D01*
X121120827Y-95640602D01*
X121120814Y-95640609D01*
X120989711Y-95728210D01*
X120989707Y-95728213D01*
X120878213Y-95839707D01*
X120878210Y-95839711D01*
X120790609Y-95970814D01*
X120790602Y-95970827D01*
X120730263Y-96116500D01*
X120730262Y-96116505D01*
X120727552Y-96130129D01*
X120695165Y-96192040D01*
X120634449Y-96226612D01*
X120630129Y-96227552D01*
X120616505Y-96230262D01*
X120616500Y-96230263D01*
X120470827Y-96290602D01*
X120470814Y-96290609D01*
X120339711Y-96378210D01*
X120339707Y-96378213D01*
X120251092Y-96466829D01*
X120189769Y-96500314D01*
X120120077Y-96495330D01*
X120115959Y-96493709D01*
X120083498Y-96480263D01*
X120083488Y-96480260D01*
X119928845Y-96449500D01*
X119928842Y-96449500D01*
X119771158Y-96449500D01*
X119771155Y-96449500D01*
X119616510Y-96480261D01*
X119616498Y-96480264D01*
X119470827Y-96540602D01*
X119470814Y-96540609D01*
X119339711Y-96628210D01*
X119237680Y-96730241D01*
X119176357Y-96763725D01*
X119106665Y-96758741D01*
X119077580Y-96743214D01*
X119069423Y-96737345D01*
X119060289Y-96728211D01*
X119010332Y-96694830D01*
X119008576Y-96693567D01*
X118988378Y-96667624D01*
X118967299Y-96642401D01*
X118966772Y-96639872D01*
X118965654Y-96638436D01*
X118965023Y-96631470D01*
X118956995Y-96592912D01*
X118956995Y-96462668D01*
X118956994Y-96462666D01*
X118948039Y-96417648D01*
X118926232Y-96308016D01*
X118919019Y-96290602D01*
X118865892Y-96162340D01*
X118865885Y-96162327D01*
X118778284Y-96031224D01*
X118778281Y-96031220D01*
X118666787Y-95919726D01*
X118666783Y-95919723D01*
X118531214Y-95829138D01*
X118486409Y-95775526D01*
X118478488Y-95750227D01*
X118474109Y-95728211D01*
X118449464Y-95604314D01*
X118440189Y-95581922D01*
X118389124Y-95458638D01*
X118389117Y-95458625D01*
X118301516Y-95327522D01*
X118301513Y-95327518D01*
X118190019Y-95216024D01*
X118190015Y-95216021D01*
X118062276Y-95130668D01*
X118058910Y-95128419D01*
X118058899Y-95128413D01*
X117913228Y-95068075D01*
X117913216Y-95068072D01*
X117758572Y-95037311D01*
X117758569Y-95037311D01*
X117694130Y-95037311D01*
X117681672Y-95033653D01*
X123463500Y-95033653D01*
X123463500Y-95191346D01*
X123494261Y-95345989D01*
X123494264Y-95346001D01*
X123554602Y-95491672D01*
X123554609Y-95491685D01*
X123642210Y-95622788D01*
X123642213Y-95622792D01*
X123753707Y-95734286D01*
X123753711Y-95734289D01*
X123884814Y-95821890D01*
X123884827Y-95821897D01*
X124030498Y-95882235D01*
X124030503Y-95882237D01*
X124185153Y-95912999D01*
X124185156Y-95913000D01*
X124185158Y-95913000D01*
X124342844Y-95913000D01*
X124342845Y-95912999D01*
X124497497Y-95882237D01*
X124610166Y-95835567D01*
X124643172Y-95821897D01*
X124643172Y-95821896D01*
X124643179Y-95821894D01*
X124774289Y-95734289D01*
X124885789Y-95622789D01*
X124973394Y-95491679D01*
X124973839Y-95490606D01*
X125008173Y-95407715D01*
X125033737Y-95345997D01*
X125064500Y-95191342D01*
X125064500Y-95033658D01*
X125064500Y-95033655D01*
X125064499Y-95033653D01*
X125054004Y-94980893D01*
X125033737Y-94879003D01*
X125012285Y-94827213D01*
X124973397Y-94733327D01*
X124973390Y-94733314D01*
X124885789Y-94602211D01*
X124885786Y-94602207D01*
X124774292Y-94490713D01*
X124774288Y-94490710D01*
X124643185Y-94403109D01*
X124643172Y-94403102D01*
X124497501Y-94342764D01*
X124497489Y-94342761D01*
X124342845Y-94312000D01*
X124342842Y-94312000D01*
X124185158Y-94312000D01*
X124185155Y-94312000D01*
X124030510Y-94342761D01*
X124030498Y-94342764D01*
X123884827Y-94403102D01*
X123884814Y-94403109D01*
X123753711Y-94490710D01*
X123753707Y-94490713D01*
X123642213Y-94602207D01*
X123642210Y-94602211D01*
X123554609Y-94733314D01*
X123554602Y-94733327D01*
X123494264Y-94878998D01*
X123494261Y-94879010D01*
X123463500Y-95033653D01*
X117681672Y-95033653D01*
X117627091Y-95017626D01*
X117581336Y-94964822D01*
X117571392Y-94895664D01*
X117600417Y-94832108D01*
X117606449Y-94825630D01*
X117721786Y-94710292D01*
X117721789Y-94710289D01*
X117809394Y-94579179D01*
X117869737Y-94433497D01*
X117900500Y-94278842D01*
X117900500Y-94121158D01*
X117900500Y-94121155D01*
X117900499Y-94121153D01*
X117869738Y-93966510D01*
X117869737Y-93966503D01*
X117869735Y-93966498D01*
X117809397Y-93820827D01*
X117809390Y-93820814D01*
X117721789Y-93689711D01*
X117721786Y-93689707D01*
X117610292Y-93578213D01*
X117610288Y-93578210D01*
X117479185Y-93490609D01*
X117479172Y-93490602D01*
X117333501Y-93430264D01*
X117333489Y-93430261D01*
X117178845Y-93399500D01*
X117178842Y-93399500D01*
X117021158Y-93399500D01*
X117021155Y-93399500D01*
X116866510Y-93430261D01*
X116866498Y-93430264D01*
X116720827Y-93490602D01*
X116720814Y-93490609D01*
X116589711Y-93578210D01*
X116589707Y-93578213D01*
X116478213Y-93689707D01*
X116478210Y-93689711D01*
X116390609Y-93820814D01*
X116390602Y-93820827D01*
X116330264Y-93966498D01*
X116330261Y-93966510D01*
X116299500Y-94121153D01*
X113054354Y-94121153D01*
X113060500Y-94082352D01*
X113060500Y-93877648D01*
X113051498Y-93820814D01*
X113028477Y-93675465D01*
X112965218Y-93480776D01*
X112891671Y-93336433D01*
X112883438Y-93320276D01*
X112870543Y-93251609D01*
X112896819Y-93186869D01*
X112953925Y-93146611D01*
X112969729Y-93142366D01*
X113083497Y-93119737D01*
X113229179Y-93059394D01*
X113360289Y-92971789D01*
X113471789Y-92860289D01*
X113559394Y-92729179D01*
X113619737Y-92583497D01*
X113650500Y-92428842D01*
X113650500Y-92271158D01*
X113650500Y-92271155D01*
X113650499Y-92271153D01*
X113619737Y-92116503D01*
X113619735Y-92116498D01*
X113559397Y-91970827D01*
X113559390Y-91970814D01*
X113544493Y-91948519D01*
X113523615Y-91881841D01*
X113542100Y-91814461D01*
X113578702Y-91776527D01*
X113624456Y-91745956D01*
X113735956Y-91634456D01*
X113823561Y-91503346D01*
X113883904Y-91357664D01*
X113914667Y-91203009D01*
X113914667Y-91045325D01*
X113914667Y-91045322D01*
X113914666Y-91045320D01*
X113909338Y-91018535D01*
X113883904Y-90890670D01*
X113857389Y-90826657D01*
X113823564Y-90744994D01*
X113823557Y-90744981D01*
X113735956Y-90613878D01*
X113735953Y-90613874D01*
X113624459Y-90502380D01*
X113624455Y-90502377D01*
X113533279Y-90441455D01*
X113488474Y-90387843D01*
X113479767Y-90318518D01*
X113499069Y-90269461D01*
X113522243Y-90234780D01*
X113559394Y-90179179D01*
X113565396Y-90164690D01*
X113589088Y-90107490D01*
X113619737Y-90033497D01*
X113650500Y-89878842D01*
X113650500Y-89721158D01*
X113650500Y-89721155D01*
X113650499Y-89721153D01*
X113630543Y-89620827D01*
X113619737Y-89566503D01*
X113586050Y-89485176D01*
X113578582Y-89415708D01*
X113609857Y-89353229D01*
X113631715Y-89334627D01*
X113755692Y-89251789D01*
X113867192Y-89140289D01*
X113954797Y-89009179D01*
X114015140Y-88863497D01*
X114045903Y-88708842D01*
X114045903Y-88551158D01*
X114045903Y-88551155D01*
X114025521Y-88448692D01*
X114031748Y-88379100D01*
X114074611Y-88323923D01*
X114140500Y-88300678D01*
X114147138Y-88300500D01*
X114228844Y-88300500D01*
X114228845Y-88300499D01*
X114383497Y-88269737D01*
X114529179Y-88209394D01*
X114660289Y-88121789D01*
X114771789Y-88010289D01*
X114859394Y-87879179D01*
X114919737Y-87733497D01*
X114950500Y-87578842D01*
X114950500Y-87421158D01*
X114950500Y-87421155D01*
X114950499Y-87421153D01*
X114944288Y-87389928D01*
X114919737Y-87266503D01*
X114895181Y-87207219D01*
X114859397Y-87120827D01*
X114859390Y-87120814D01*
X114771789Y-86989711D01*
X114771786Y-86989707D01*
X114660292Y-86878213D01*
X114660288Y-86878210D01*
X114529185Y-86790609D01*
X114529172Y-86790602D01*
X114383501Y-86730264D01*
X114383489Y-86730261D01*
X114228845Y-86699500D01*
X114228842Y-86699500D01*
X114071158Y-86699500D01*
X114071153Y-86699500D01*
X114052759Y-86703159D01*
X113983167Y-86696932D01*
X113927990Y-86654068D01*
X113904746Y-86588179D01*
X113920814Y-86520182D01*
X113925456Y-86512665D01*
X113961195Y-86459179D01*
X113961500Y-86458444D01*
X114021536Y-86313501D01*
X114021538Y-86313497D01*
X114052301Y-86158842D01*
X114052301Y-86001158D01*
X114052301Y-86001155D01*
X114052300Y-86001153D01*
X114050804Y-85993634D01*
X114021538Y-85846503D01*
X113985829Y-85760292D01*
X113961198Y-85700827D01*
X113961191Y-85700814D01*
X113873590Y-85569711D01*
X113873587Y-85569707D01*
X113762093Y-85458213D01*
X113762089Y-85458210D01*
X113630986Y-85370609D01*
X113630976Y-85370604D01*
X113522829Y-85325808D01*
X113468426Y-85281967D01*
X113446361Y-85215673D01*
X113463640Y-85147973D01*
X113467181Y-85142355D01*
X113509389Y-85079187D01*
X113509390Y-85079184D01*
X113509394Y-85079179D01*
X113513547Y-85069154D01*
X113569735Y-84933501D01*
X113569737Y-84933497D01*
X113600500Y-84778842D01*
X113600500Y-84621158D01*
X113600500Y-84621155D01*
X113600499Y-84621153D01*
X113596647Y-84601786D01*
X113569737Y-84466503D01*
X113553142Y-84426440D01*
X113545674Y-84356974D01*
X113576948Y-84294495D01*
X113620252Y-84264429D01*
X113632410Y-84259394D01*
X113763520Y-84171789D01*
X113875020Y-84060289D01*
X113962625Y-83929179D01*
X113966329Y-83920238D01*
X113991160Y-83860288D01*
X114022968Y-83783497D01*
X114053731Y-83628842D01*
X114053731Y-83471158D01*
X114053731Y-83471155D01*
X114053730Y-83471153D01*
X114037442Y-83389269D01*
X114022968Y-83316503D01*
X114016789Y-83301585D01*
X113962628Y-83170827D01*
X113962621Y-83170814D01*
X113875020Y-83039711D01*
X113875017Y-83039707D01*
X113763523Y-82928213D01*
X113763519Y-82928210D01*
X113632416Y-82840609D01*
X113632403Y-82840602D01*
X113486732Y-82780264D01*
X113486720Y-82780261D01*
X113332076Y-82749500D01*
X113332073Y-82749500D01*
X113174389Y-82749500D01*
X113174386Y-82749500D01*
X113019741Y-82780261D01*
X113019729Y-82780264D01*
X112874058Y-82840602D01*
X112874045Y-82840609D01*
X112806247Y-82885911D01*
X112739569Y-82906789D01*
X112672189Y-82888304D01*
X112649675Y-82870490D01*
X112607213Y-82828028D01*
X112441614Y-82707715D01*
X112426979Y-82700258D01*
X112348917Y-82660483D01*
X112298123Y-82612511D01*
X112281328Y-82544690D01*
X112303865Y-82478555D01*
X112348917Y-82439516D01*
X112441610Y-82392287D01*
X112462770Y-82376913D01*
X112607213Y-82271971D01*
X112607215Y-82271968D01*
X112607219Y-82271966D01*
X112751966Y-82127219D01*
X112751968Y-82127215D01*
X112751971Y-82127213D01*
X112872286Y-81961611D01*
X112872287Y-81961610D01*
X112917833Y-81872220D01*
X112965806Y-81821426D01*
X113033627Y-81804630D01*
X113052509Y-81806899D01*
X113171155Y-81830500D01*
X113171158Y-81830500D01*
X113328844Y-81830500D01*
X113328845Y-81830499D01*
X113483497Y-81799737D01*
X113629179Y-81739394D01*
X113760289Y-81651789D01*
X113871789Y-81540289D01*
X113959394Y-81409179D01*
X114019737Y-81263497D01*
X114050500Y-81108842D01*
X114050500Y-80951158D01*
X114050500Y-80951155D01*
X114050499Y-80951153D01*
X114034698Y-80871719D01*
X114019737Y-80796503D01*
X114002427Y-80754712D01*
X113959397Y-80650827D01*
X113959390Y-80650814D01*
X113871789Y-80519711D01*
X113871786Y-80519707D01*
X113760292Y-80408213D01*
X113760288Y-80408210D01*
X113629185Y-80320609D01*
X113629172Y-80320602D01*
X113483501Y-80260264D01*
X113483489Y-80260261D01*
X113328845Y-80229500D01*
X113328842Y-80229500D01*
X113171158Y-80229500D01*
X113171155Y-80229500D01*
X113016510Y-80260261D01*
X113016498Y-80260264D01*
X112870827Y-80320602D01*
X112870814Y-80320609D01*
X112816942Y-80356606D01*
X112750264Y-80377484D01*
X112682884Y-80358999D01*
X112660370Y-80341185D01*
X112607213Y-80288028D01*
X112441614Y-80167715D01*
X112417264Y-80155308D01*
X112348917Y-80120483D01*
X112298123Y-80072511D01*
X112281328Y-80004690D01*
X112303865Y-79938555D01*
X112348917Y-79899516D01*
X112441610Y-79852287D01*
X112504184Y-79806825D01*
X112607213Y-79731971D01*
X112607215Y-79731968D01*
X112607219Y-79731966D01*
X112751966Y-79587219D01*
X112751968Y-79587215D01*
X112751971Y-79587213D01*
X112804732Y-79514590D01*
X112872287Y-79421610D01*
X112965220Y-79239219D01*
X112988698Y-79166960D01*
X113028134Y-79109286D01*
X113082436Y-79083662D01*
X113231206Y-79054070D01*
X113376888Y-78993727D01*
X113507998Y-78906122D01*
X113619498Y-78794622D01*
X113707103Y-78663512D01*
X113767446Y-78517830D01*
X113798209Y-78363175D01*
X113798209Y-78205491D01*
X113798209Y-78205488D01*
X113798208Y-78205486D01*
X113791379Y-78171153D01*
X113767446Y-78050836D01*
X113714629Y-77923323D01*
X113707106Y-77905160D01*
X113707099Y-77905147D01*
X113619498Y-77774044D01*
X113619495Y-77774040D01*
X113508001Y-77662546D01*
X113507997Y-77662543D01*
X113376894Y-77574942D01*
X113376881Y-77574935D01*
X113231210Y-77514597D01*
X113231198Y-77514594D01*
X113076554Y-77483833D01*
X113076551Y-77483833D01*
X112918867Y-77483833D01*
X112918864Y-77483833D01*
X112764219Y-77514594D01*
X112764207Y-77514597D01*
X112618533Y-77574937D01*
X112557604Y-77615648D01*
X112545379Y-77619475D01*
X112535348Y-77627442D01*
X112512671Y-77629716D01*
X112490926Y-77636525D01*
X112476944Y-77633299D01*
X112465827Y-77634415D01*
X112432420Y-77623030D01*
X112348920Y-77580485D01*
X112298123Y-77532511D01*
X112281328Y-77464690D01*
X112303865Y-77398555D01*
X112348917Y-77359516D01*
X112441610Y-77312287D01*
X112462770Y-77296913D01*
X112607213Y-77191971D01*
X112607215Y-77191968D01*
X112607219Y-77191966D01*
X112751966Y-77047219D01*
X112751968Y-77047215D01*
X112751971Y-77047213D01*
X112857838Y-76901498D01*
X112872287Y-76881610D01*
X112877615Y-76871153D01*
X116424954Y-76871153D01*
X116424954Y-77028846D01*
X116455715Y-77183489D01*
X116455718Y-77183501D01*
X116516056Y-77329172D01*
X116516063Y-77329185D01*
X116603664Y-77460288D01*
X116603667Y-77460292D01*
X116715161Y-77571786D01*
X116715165Y-77571789D01*
X116846268Y-77659390D01*
X116846281Y-77659397D01*
X116975115Y-77712761D01*
X116991957Y-77719737D01*
X117134185Y-77748028D01*
X117146607Y-77750499D01*
X117146610Y-77750500D01*
X117146612Y-77750500D01*
X117304298Y-77750500D01*
X117304299Y-77750499D01*
X117458951Y-77719737D01*
X117571620Y-77673067D01*
X117604626Y-77659397D01*
X117604626Y-77659396D01*
X117604633Y-77659394D01*
X117735743Y-77571789D01*
X117847243Y-77460289D01*
X117934848Y-77329179D01*
X117995191Y-77183497D01*
X118025954Y-77028842D01*
X118025954Y-76871158D01*
X118025954Y-76871155D01*
X118025953Y-76871153D01*
X118013830Y-76810208D01*
X117995191Y-76716503D01*
X117991587Y-76707802D01*
X117934851Y-76570827D01*
X117934844Y-76570814D01*
X117847243Y-76439711D01*
X117847240Y-76439707D01*
X117735746Y-76328213D01*
X117735742Y-76328210D01*
X117604639Y-76240609D01*
X117604626Y-76240602D01*
X117458955Y-76180264D01*
X117458943Y-76180261D01*
X117304299Y-76149500D01*
X117304296Y-76149500D01*
X117146612Y-76149500D01*
X117146609Y-76149500D01*
X116991964Y-76180261D01*
X116991952Y-76180264D01*
X116846281Y-76240602D01*
X116846268Y-76240609D01*
X116715165Y-76328210D01*
X116715161Y-76328213D01*
X116603667Y-76439707D01*
X116603664Y-76439711D01*
X116516063Y-76570814D01*
X116516056Y-76570827D01*
X116455718Y-76716498D01*
X116455715Y-76716510D01*
X116424954Y-76871153D01*
X112877615Y-76871153D01*
X112965220Y-76699219D01*
X112996675Y-76602410D01*
X112998790Y-76597429D01*
X113017652Y-76574437D01*
X113034438Y-76549889D01*
X113039571Y-76547719D01*
X113043106Y-76543411D01*
X113071401Y-76534267D01*
X113095480Y-76524092D01*
X113095385Y-76523612D01*
X113097711Y-76523149D01*
X113098796Y-76522691D01*
X113100786Y-76522479D01*
X113101349Y-76522423D01*
X113101359Y-76522423D01*
X113256014Y-76491660D01*
X113401696Y-76431317D01*
X113532806Y-76343712D01*
X113644306Y-76232212D01*
X113731911Y-76101102D01*
X113764691Y-76021964D01*
X121952031Y-76021964D01*
X121952031Y-76179657D01*
X121982792Y-76334300D01*
X121982795Y-76334312D01*
X122043133Y-76479983D01*
X122043140Y-76479996D01*
X122130741Y-76611099D01*
X122130744Y-76611103D01*
X122242238Y-76722597D01*
X122242242Y-76722600D01*
X122373345Y-76810201D01*
X122373358Y-76810208D01*
X122519029Y-76870546D01*
X122519034Y-76870548D01*
X122673684Y-76901310D01*
X122673687Y-76901311D01*
X122673689Y-76901311D01*
X122831375Y-76901311D01*
X122831376Y-76901310D01*
X122986028Y-76870548D01*
X123131710Y-76810205D01*
X123262820Y-76722600D01*
X123374320Y-76611100D01*
X123461925Y-76479990D01*
X123522268Y-76334308D01*
X123553031Y-76179653D01*
X123553031Y-76021969D01*
X123553031Y-76021966D01*
X123553030Y-76021964D01*
X123539792Y-75955412D01*
X123522268Y-75867314D01*
X123522266Y-75867309D01*
X123461928Y-75721638D01*
X123461921Y-75721625D01*
X123374320Y-75590522D01*
X123374317Y-75590518D01*
X123262823Y-75479024D01*
X123262819Y-75479021D01*
X123131716Y-75391420D01*
X123131703Y-75391413D01*
X122986032Y-75331075D01*
X122986020Y-75331072D01*
X122831376Y-75300311D01*
X122831373Y-75300311D01*
X122673689Y-75300311D01*
X122673686Y-75300311D01*
X122519041Y-75331072D01*
X122519029Y-75331075D01*
X122373358Y-75391413D01*
X122373345Y-75391420D01*
X122242242Y-75479021D01*
X122242238Y-75479024D01*
X122130744Y-75590518D01*
X122130741Y-75590522D01*
X122043140Y-75721625D01*
X122043133Y-75721638D01*
X121982795Y-75867309D01*
X121982792Y-75867321D01*
X121952031Y-76021964D01*
X113764691Y-76021964D01*
X113792254Y-75955420D01*
X113823017Y-75800765D01*
X113823017Y-75643081D01*
X113823017Y-75643078D01*
X113823016Y-75643076D01*
X113798213Y-75518386D01*
X113792254Y-75488426D01*
X113752072Y-75391417D01*
X113731914Y-75342750D01*
X113731907Y-75342737D01*
X113644306Y-75211634D01*
X113644303Y-75211630D01*
X113532809Y-75100136D01*
X113532805Y-75100133D01*
X113401702Y-75012532D01*
X113401689Y-75012525D01*
X113256018Y-74952187D01*
X113256006Y-74952184D01*
X113101362Y-74921423D01*
X113101359Y-74921423D01*
X112943675Y-74921423D01*
X112943672Y-74921423D01*
X112789027Y-74952184D01*
X112789015Y-74952187D01*
X112643344Y-75012525D01*
X112643331Y-75012532D01*
X112552652Y-75073123D01*
X112540427Y-75076950D01*
X112530395Y-75084918D01*
X112507718Y-75087192D01*
X112485974Y-75094001D01*
X112471991Y-75090775D01*
X112460875Y-75091891D01*
X112427467Y-75080506D01*
X112348920Y-75040485D01*
X112298124Y-74992511D01*
X112281328Y-74924690D01*
X112303865Y-74858555D01*
X112348917Y-74819516D01*
X112441610Y-74772287D01*
X112462770Y-74756913D01*
X112607213Y-74651971D01*
X112607215Y-74651968D01*
X112607219Y-74651966D01*
X112751966Y-74507219D01*
X112751968Y-74507215D01*
X112751971Y-74507213D01*
X112853247Y-74367816D01*
X112872287Y-74341610D01*
X112882710Y-74321153D01*
X114175308Y-74321153D01*
X114175308Y-74478846D01*
X114206069Y-74633489D01*
X114206072Y-74633501D01*
X114266410Y-74779172D01*
X114266417Y-74779185D01*
X114354018Y-74910288D01*
X114354021Y-74910292D01*
X114465515Y-75021786D01*
X114465519Y-75021789D01*
X114596622Y-75109390D01*
X114596635Y-75109397D01*
X114693454Y-75149500D01*
X114742311Y-75169737D01*
X114896961Y-75200499D01*
X114896964Y-75200500D01*
X114896966Y-75200500D01*
X115054652Y-75200500D01*
X115054653Y-75200499D01*
X115209305Y-75169737D01*
X115354987Y-75109394D01*
X115486097Y-75021789D01*
X115597597Y-74910289D01*
X115685202Y-74779179D01*
X115745545Y-74633497D01*
X115776308Y-74478842D01*
X115776308Y-74321158D01*
X115776308Y-74321155D01*
X115776307Y-74321153D01*
X115759999Y-74239167D01*
X115745545Y-74166503D01*
X115742528Y-74159219D01*
X115685205Y-74020827D01*
X115685198Y-74020814D01*
X115597597Y-73889711D01*
X115597594Y-73889707D01*
X115486100Y-73778213D01*
X115486096Y-73778210D01*
X115354993Y-73690609D01*
X115354980Y-73690602D01*
X115209309Y-73630264D01*
X115209297Y-73630261D01*
X115054653Y-73599500D01*
X115054650Y-73599500D01*
X114896966Y-73599500D01*
X114896963Y-73599500D01*
X114742318Y-73630261D01*
X114742306Y-73630264D01*
X114596635Y-73690602D01*
X114596622Y-73690609D01*
X114465519Y-73778210D01*
X114465515Y-73778213D01*
X114354021Y-73889707D01*
X114354018Y-73889711D01*
X114266417Y-74020814D01*
X114266410Y-74020827D01*
X114206072Y-74166498D01*
X114206069Y-74166510D01*
X114175308Y-74321153D01*
X112882710Y-74321153D01*
X112965220Y-74159219D01*
X112981147Y-74110199D01*
X112983911Y-74104054D01*
X113002430Y-74082428D01*
X113018508Y-74058916D01*
X113024869Y-74056227D01*
X113029359Y-74050985D01*
X113056632Y-74042804D01*
X113082867Y-74031718D01*
X113096121Y-74030960D01*
X113096283Y-74030912D01*
X113096396Y-74030944D01*
X113097002Y-74030910D01*
X113108051Y-74030910D01*
X113108052Y-74030909D01*
X113262704Y-74000147D01*
X113408386Y-73939804D01*
X113539496Y-73852199D01*
X113650996Y-73740699D01*
X113738601Y-73609589D01*
X113798944Y-73463907D01*
X113829707Y-73309252D01*
X113829707Y-73151568D01*
X113829707Y-73151565D01*
X113829706Y-73151563D01*
X113811391Y-73059488D01*
X113798944Y-72996913D01*
X113759009Y-72900500D01*
X113738604Y-72851237D01*
X113738597Y-72851224D01*
X113650996Y-72720121D01*
X113650993Y-72720117D01*
X113539499Y-72608623D01*
X113539495Y-72608620D01*
X113408392Y-72521019D01*
X113408379Y-72521012D01*
X113262708Y-72460674D01*
X113262696Y-72460671D01*
X113108052Y-72429910D01*
X113108049Y-72429910D01*
X112950365Y-72429910D01*
X112950362Y-72429910D01*
X112795717Y-72460671D01*
X112795705Y-72460674D01*
X112650035Y-72521012D01*
X112650019Y-72521021D01*
X112594172Y-72558336D01*
X112580398Y-72562648D01*
X112568862Y-72571323D01*
X112547720Y-72572880D01*
X112527494Y-72579213D01*
X112512277Y-72575490D01*
X112499182Y-72576455D01*
X112478567Y-72567244D01*
X112466087Y-72564191D01*
X112458963Y-72560320D01*
X112441610Y-72547713D01*
X112347450Y-72499736D01*
X112346018Y-72498958D01*
X112322391Y-72475431D01*
X112298123Y-72452511D01*
X112297713Y-72450857D01*
X112296508Y-72449657D01*
X112289346Y-72417070D01*
X112281328Y-72384690D01*
X112281876Y-72383079D01*
X112281511Y-72381416D01*
X112293106Y-72350126D01*
X112303865Y-72318555D01*
X112305251Y-72317353D01*
X112305790Y-72315900D01*
X112314401Y-72309425D01*
X112348917Y-72279516D01*
X112441610Y-72232287D01*
X112508759Y-72183501D01*
X112607213Y-72111971D01*
X112607215Y-72111968D01*
X112607219Y-72111966D01*
X112698032Y-72021153D01*
X114249500Y-72021153D01*
X114249500Y-72178846D01*
X114280261Y-72333489D01*
X114280264Y-72333501D01*
X114340602Y-72479172D01*
X114340609Y-72479185D01*
X114428210Y-72610288D01*
X114428213Y-72610292D01*
X114539707Y-72721786D01*
X114539711Y-72721789D01*
X114670814Y-72809390D01*
X114670827Y-72809397D01*
X114816498Y-72869735D01*
X114816503Y-72869737D01*
X114971153Y-72900499D01*
X114971156Y-72900500D01*
X114971158Y-72900500D01*
X115128844Y-72900500D01*
X115128845Y-72900499D01*
X115283497Y-72869737D01*
X115429179Y-72809394D01*
X115560289Y-72721789D01*
X115671789Y-72610289D01*
X115759394Y-72479179D01*
X115760947Y-72475431D01*
X115785120Y-72417070D01*
X115819737Y-72333497D01*
X115850500Y-72178842D01*
X115850500Y-72021158D01*
X115850500Y-72021155D01*
X115850499Y-72021153D01*
X115839771Y-71967219D01*
X115819737Y-71866503D01*
X115803714Y-71827820D01*
X115759397Y-71720827D01*
X115759390Y-71720814D01*
X115671789Y-71589711D01*
X115671786Y-71589707D01*
X115560292Y-71478213D01*
X115560288Y-71478210D01*
X115429185Y-71390609D01*
X115429172Y-71390602D01*
X115283501Y-71330264D01*
X115283489Y-71330261D01*
X115128845Y-71299500D01*
X115128842Y-71299500D01*
X114971158Y-71299500D01*
X114971155Y-71299500D01*
X114816510Y-71330261D01*
X114816498Y-71330264D01*
X114670827Y-71390602D01*
X114670814Y-71390609D01*
X114539711Y-71478210D01*
X114539707Y-71478213D01*
X114428213Y-71589707D01*
X114428210Y-71589711D01*
X114340609Y-71720814D01*
X114340602Y-71720827D01*
X114280264Y-71866498D01*
X114280261Y-71866510D01*
X114249500Y-72021153D01*
X112698032Y-72021153D01*
X112751966Y-71967219D01*
X112751968Y-71967215D01*
X112751971Y-71967213D01*
X112768675Y-71944222D01*
X112768684Y-71944208D01*
X112872287Y-71801610D01*
X112900333Y-71746564D01*
X112904338Y-71740553D01*
X112925800Y-71722563D01*
X112945028Y-71702205D01*
X112952212Y-71700425D01*
X112957885Y-71695671D01*
X112985668Y-71692140D01*
X113008066Y-71686593D01*
X113008066Y-71685347D01*
X113171844Y-71685347D01*
X113171845Y-71685346D01*
X113326497Y-71654584D01*
X113472179Y-71594241D01*
X113603289Y-71506636D01*
X113714789Y-71395136D01*
X113802394Y-71264026D01*
X113862737Y-71118344D01*
X113893500Y-70963689D01*
X113893500Y-70806005D01*
X113893500Y-70806002D01*
X113893499Y-70806000D01*
X113886693Y-70771786D01*
X113862737Y-70651350D01*
X113812130Y-70529172D01*
X113802397Y-70505674D01*
X113802390Y-70505661D01*
X113714789Y-70374558D01*
X113714786Y-70374554D01*
X113603292Y-70263060D01*
X113603288Y-70263057D01*
X113540575Y-70221153D01*
X122099500Y-70221153D01*
X122099500Y-70378846D01*
X122130261Y-70533489D01*
X122130264Y-70533501D01*
X122190602Y-70679172D01*
X122190609Y-70679185D01*
X122278210Y-70810288D01*
X122278213Y-70810292D01*
X122389707Y-70921786D01*
X122389711Y-70921789D01*
X122520814Y-71009390D01*
X122520827Y-71009397D01*
X122666498Y-71069735D01*
X122666503Y-71069737D01*
X122774671Y-71091253D01*
X122821153Y-71100499D01*
X122821156Y-71100500D01*
X122821158Y-71100500D01*
X122978844Y-71100500D01*
X122978845Y-71100499D01*
X123133497Y-71069737D01*
X123279179Y-71009394D01*
X123410289Y-70921789D01*
X123521789Y-70810289D01*
X123609394Y-70679179D01*
X123669737Y-70533497D01*
X123700500Y-70378842D01*
X123700500Y-70221158D01*
X123700500Y-70221155D01*
X123700499Y-70221153D01*
X123680589Y-70121061D01*
X123669737Y-70066503D01*
X123646453Y-70010289D01*
X123609397Y-69920827D01*
X123609390Y-69920814D01*
X123521789Y-69789711D01*
X123521786Y-69789707D01*
X123410292Y-69678213D01*
X123410288Y-69678210D01*
X123279185Y-69590609D01*
X123279172Y-69590602D01*
X123133501Y-69530264D01*
X123133489Y-69530261D01*
X122978845Y-69499500D01*
X122978842Y-69499500D01*
X122821158Y-69499500D01*
X122821155Y-69499500D01*
X122666510Y-69530261D01*
X122666498Y-69530264D01*
X122520827Y-69590602D01*
X122520814Y-69590609D01*
X122389711Y-69678210D01*
X122389707Y-69678213D01*
X122278213Y-69789707D01*
X122278210Y-69789711D01*
X122190609Y-69920814D01*
X122190602Y-69920827D01*
X122130264Y-70066498D01*
X122130261Y-70066510D01*
X122099500Y-70221153D01*
X113540575Y-70221153D01*
X113472185Y-70175456D01*
X113472176Y-70175451D01*
X113446707Y-70164902D01*
X113392304Y-70121061D01*
X113370239Y-70054767D01*
X113387518Y-69987068D01*
X113391036Y-69981482D01*
X113459394Y-69879179D01*
X113519737Y-69733497D01*
X113550500Y-69578842D01*
X113550500Y-69421158D01*
X113550500Y-69421155D01*
X113550499Y-69421153D01*
X113542365Y-69380261D01*
X113519737Y-69266503D01*
X113472309Y-69152002D01*
X113464841Y-69082534D01*
X113496116Y-69020055D01*
X113517973Y-69001454D01*
X113596420Y-68949038D01*
X113707920Y-68837538D01*
X113795525Y-68706428D01*
X113855868Y-68560746D01*
X113886631Y-68406091D01*
X113886631Y-68248407D01*
X113886631Y-68248404D01*
X113886630Y-68248402D01*
X113855869Y-68093759D01*
X113855868Y-68093752D01*
X113850492Y-68080773D01*
X113795528Y-67948076D01*
X113795521Y-67948063D01*
X113707920Y-67816960D01*
X113707917Y-67816956D01*
X113596423Y-67705462D01*
X113596419Y-67705459D01*
X113523202Y-67656537D01*
X113478397Y-67602925D01*
X113469690Y-67533600D01*
X113488991Y-67484544D01*
X113559394Y-67379179D01*
X113619737Y-67233497D01*
X113650500Y-67078842D01*
X113650500Y-66921158D01*
X113650500Y-66921155D01*
X113650499Y-66921153D01*
X113619738Y-66766510D01*
X113619737Y-66766503D01*
X113559394Y-66620821D01*
X113538315Y-66589274D01*
X120713755Y-66589274D01*
X120713755Y-66746967D01*
X120744516Y-66901610D01*
X120744519Y-66901622D01*
X120804857Y-67047293D01*
X120804864Y-67047306D01*
X120892465Y-67178409D01*
X120892468Y-67178413D01*
X121003962Y-67289907D01*
X121003966Y-67289910D01*
X121135069Y-67377511D01*
X121135082Y-67377518D01*
X121280753Y-67437856D01*
X121280758Y-67437858D01*
X121430843Y-67467712D01*
X121435408Y-67468620D01*
X121435411Y-67468621D01*
X121435413Y-67468621D01*
X121593099Y-67468621D01*
X121593100Y-67468620D01*
X121747752Y-67437858D01*
X121893434Y-67377515D01*
X122024544Y-67289910D01*
X122136044Y-67178410D01*
X122223649Y-67047300D01*
X122283992Y-66901618D01*
X122314755Y-66746963D01*
X122314755Y-66589279D01*
X122314755Y-66589276D01*
X122314754Y-66589274D01*
X122312138Y-66576124D01*
X122283992Y-66434624D01*
X122273735Y-66409861D01*
X122223652Y-66288948D01*
X122223645Y-66288935D01*
X122136044Y-66157832D01*
X122136041Y-66157828D01*
X122024547Y-66046334D01*
X122024543Y-66046331D01*
X121893440Y-65958730D01*
X121893427Y-65958723D01*
X121747756Y-65898385D01*
X121747744Y-65898382D01*
X121593100Y-65867621D01*
X121593097Y-65867621D01*
X121435413Y-65867621D01*
X121435410Y-65867621D01*
X121280765Y-65898382D01*
X121280753Y-65898385D01*
X121135082Y-65958723D01*
X121135069Y-65958730D01*
X121003966Y-66046331D01*
X121003962Y-66046334D01*
X120892468Y-66157828D01*
X120892465Y-66157832D01*
X120804864Y-66288935D01*
X120804857Y-66288948D01*
X120744519Y-66434619D01*
X120744516Y-66434631D01*
X120713755Y-66589274D01*
X113538315Y-66589274D01*
X113531477Y-66579040D01*
X113529751Y-66576124D01*
X113521948Y-66545413D01*
X113512482Y-66515181D01*
X113513408Y-66511802D01*
X113512546Y-66508406D01*
X113522584Y-66478355D01*
X113530966Y-66447801D01*
X113533756Y-66444908D01*
X113534683Y-66442136D01*
X113542489Y-66435858D01*
X113567572Y-66409865D01*
X113579660Y-66401789D01*
X113691160Y-66290289D01*
X113778765Y-66159179D01*
X113839108Y-66013497D01*
X113869871Y-65858842D01*
X113869871Y-65701158D01*
X113869871Y-65701155D01*
X113869870Y-65701153D01*
X113839109Y-65546510D01*
X113839108Y-65546503D01*
X113828787Y-65521585D01*
X113778768Y-65400827D01*
X113778761Y-65400814D01*
X113691160Y-65269711D01*
X113691157Y-65269707D01*
X113579663Y-65158213D01*
X113579659Y-65158210D01*
X113448556Y-65070609D01*
X113448543Y-65070602D01*
X113302872Y-65010264D01*
X113302860Y-65010261D01*
X113148216Y-64979500D01*
X113148213Y-64979500D01*
X112990529Y-64979500D01*
X112990526Y-64979500D01*
X112835881Y-65010261D01*
X112835869Y-65010264D01*
X112721291Y-65057724D01*
X112651822Y-65065193D01*
X112600955Y-65043482D01*
X112570931Y-65021669D01*
X112528265Y-64966340D01*
X112522284Y-64896727D01*
X112554889Y-64834931D01*
X112615728Y-64800573D01*
X112630562Y-64798060D01*
X112667483Y-64794091D01*
X112802328Y-64743797D01*
X112802327Y-64743797D01*
X112802331Y-64743796D01*
X112917546Y-64657546D01*
X113003796Y-64542331D01*
X113054091Y-64407483D01*
X113060500Y-64347873D01*
X113060499Y-62652128D01*
X113054091Y-62592517D01*
X113035442Y-62542517D01*
X113003797Y-62457671D01*
X113003793Y-62457664D01*
X112917547Y-62342455D01*
X112917544Y-62342452D01*
X112802335Y-62256206D01*
X112802328Y-62256202D01*
X112667482Y-62205908D01*
X112667483Y-62205908D01*
X112607883Y-62199501D01*
X112607881Y-62199500D01*
X112607873Y-62199500D01*
X112607864Y-62199500D01*
X110912129Y-62199500D01*
X110912123Y-62199501D01*
X110852516Y-62205908D01*
X110717671Y-62256202D01*
X110717664Y-62256206D01*
X110602455Y-62342452D01*
X110602452Y-62342455D01*
X110516206Y-62457664D01*
X110516202Y-62457671D01*
X110465908Y-62592517D01*
X110459501Y-62652116D01*
X110459501Y-62652123D01*
X110459500Y-62652135D01*
X108030499Y-62652135D01*
X108030499Y-62602128D01*
X108024091Y-62542517D01*
X108014291Y-62516243D01*
X107973797Y-62407671D01*
X107973793Y-62407664D01*
X107887547Y-62292455D01*
X107887544Y-62292452D01*
X107772335Y-62206206D01*
X107772328Y-62206202D01*
X107637482Y-62155908D01*
X107637483Y-62155908D01*
X107577883Y-62149501D01*
X107577881Y-62149500D01*
X107577873Y-62149500D01*
X107577864Y-62149500D01*
X105782129Y-62149500D01*
X105782123Y-62149501D01*
X105722516Y-62155908D01*
X105587671Y-62206202D01*
X105587664Y-62206206D01*
X105472455Y-62292452D01*
X105472452Y-62292455D01*
X105386206Y-62407664D01*
X105386202Y-62407671D01*
X105335908Y-62542517D01*
X105331323Y-62585167D01*
X105329501Y-62602123D01*
X105329500Y-62602135D01*
X104600500Y-62602135D01*
X104600500Y-60974500D01*
X104620185Y-60907461D01*
X104672989Y-60861706D01*
X104724500Y-60850500D01*
X115520999Y-60850500D01*
X115588038Y-60870185D01*
G37*
%TD.AperFunction*%
%TD*%
M02*
